<?xml version="1.0" encoding="UTF-8"?><svg width="125.412mm" height="44.7146mm" viewBox="0 0 474 169" xmlns="http://www.w3.org/2000/svg" xmlns:xlink="http://www.w3.org/1999/xlink"><g fill="none" stroke="black" stroke-width="1" fill-rule="evenodd" stroke-linecap="square" stroke-linejoin="bevel"><g clip-path="none" fill="#ffffff" fill-opacity="1" opacity="1" stroke="none" stroke-opacity="0" transform="matrix(1,0,0,1,0,0)"><path d="M0,0 L474,0 L474,169 L0,169 L0,0 z" fill-rule="evenodd" vector-effect="none"/></g><defs><clipPath id="clip3"><path d="M-157,-6 L317,-6 L317,163 L-157,163 L-157,-6 z"/></clipPath></defs><g clip-path="url(#clip3)" fill="#ffffff" fill-opacity="1" opacity="1" stroke="none" stroke-opacity="0" transform="matrix(1,0,0,1,157,6)"><path d="M0,0 L95,0 L95,60 L0,60 L0,0 z" fill-rule="evenodd" vector-effect="none"/></g><defs><clipPath id="clip8"><path d="M-1393.18,-179.526 L2274.08,-179.526 L2274.08,1128 L-1393.18,1128 L-1393.18,-179.526 z"/></clipPath></defs><g clip-path="url(#clip8)" fill="#ffffff" fill-opacity="1" opacity="0.75" stroke="none" stroke-opacity="0" transform="matrix(0.129252,0,0,0.129252,180.071,23.2041)"><path d="M0,0 L130,0 L130,30 L0,30 L0,0 z" fill-rule="evenodd" vector-effect="none"/></g><defs><clipPath id="clip9"><path d="M-1393.18,-179.526 L2274.08,-179.526 L2274.08,1128 L-1393.18,1128 L-1393.18,-179.526 z"/></clipPath></defs><g clip-path="url(#clip9)" fill="none" opacity="0.75" stroke="#000000" stroke-linecap="butt" stroke-linejoin="miter" stroke-miterlimit="2" stroke-opacity="1" stroke-width="1" transform="matrix(0.129252,0,0,0.129252,180.071,23.2041)"><path d="M0,0 L130,0 L130,30 L0,30 L0,0 z" fill-rule="evenodd" vector-effect="none"/></g><defs><clipPath id="clip13"><path d="M-1438.18,-234.526 L2229.08,-234.526 L2229.08,1073 L-1438.18,1073 L-1438.18,-234.526 z"/></clipPath></defs><g clip-path="url(#clip13)" fill="#ffffff" fill-opacity="1" opacity="0.75" stroke="none" stroke-opacity="0" transform="matrix(0.129252,0,0,0.129252,185.888,30.3129)"><path d="M0,0 L60,0 L60,30 L0,30 L0,0 z" fill-rule="evenodd" vector-effect="none"/></g><defs><clipPath id="clip14"><path d="M-1438.18,-234.526 L2229.08,-234.526 L2229.08,1073 L-1438.18,1073 L-1438.18,-234.526 z"/></clipPath></defs><g clip-path="url(#clip14)" fill="none" opacity="0.75" stroke="#000000" stroke-linecap="butt" stroke-linejoin="miter" stroke-miterlimit="2" stroke-opacity="1" stroke-width="1" transform="matrix(0.129252,0,0,0.129252,185.888,30.3129)"><path d="M0,0 L60,0 L60,30 L0,30 L0,0 z" fill-rule="evenodd" vector-effect="none"/></g><defs><clipPath id="clip18"><path d="M-1548.18,-224.526 L2119.08,-224.526 L2119.08,1083 L-1548.18,1083 L-1548.18,-224.526 z"/></clipPath></defs><g clip-path="url(#clip18)" fill="#ffffff" fill-opacity="1" opacity="0.75" stroke="none" stroke-opacity="0" transform="matrix(0.129252,0,0,0.129252,200.105,29.0204)"><path d="M0,0 L35,0 L35,35 L0,35 L0,0 z" fill-rule="nonzero" vector-effect="none"/></g><defs><clipPath id="clip19"><path d="M-1548.18,-224.526 L2119.08,-224.526 L2119.08,1083 L-1548.18,1083 L-1548.18,-224.526 z"/></clipPath></defs><g clip-path="url(#clip19)" fill="none" opacity="0.75" stroke="#000000" stroke-linecap="butt" stroke-linejoin="miter" stroke-miterlimit="2" stroke-opacity="1" stroke-width="1" transform="matrix(0.129252,0,0,0.129252,200.105,29.0204)"><path d="M0,0 L35,0 L35,35 L0,35 L0,0 z" fill-rule="nonzero" vector-effect="none"/></g><defs><clipPath id="clip22"><path d="M-1438.18,-319.526 L2229.08,-319.526 L2229.08,988 L-1438.18,988 L-1438.18,-319.526 z"/></clipPath></defs><g clip-path="url(#clip22)" fill="#ffffff" fill-opacity="1" opacity="0.75" stroke="none" stroke-opacity="0" transform="matrix(0.129252,0,0,0.129252,185.888,41.2993)"><path d="M0,0 L30,0 L30,30 L0,30 L0,0 z" fill-rule="evenodd" vector-effect="none"/></g><defs><clipPath id="clip23"><path d="M-1438.18,-319.526 L2229.08,-319.526 L2229.08,988 L-1438.18,988 L-1438.18,-319.526 z"/></clipPath></defs><g clip-path="url(#clip23)" fill="none" opacity="0.75" stroke="#000000" stroke-linecap="butt" stroke-linejoin="miter" stroke-miterlimit="2" stroke-opacity="1" stroke-width="1" transform="matrix(0.129252,0,0,0.129252,185.888,41.2993)"><path d="M0,0 L30,0 L30,30 L0,30 L0,0 z" fill-rule="evenodd" vector-effect="none"/></g><defs><clipPath id="clip26"><path d="M-1498.18,-321.526 L2169.08,-321.526 L2169.08,986 L-1498.18,986 L-1498.18,-321.526 z"/></clipPath></defs><g clip-path="url(#clip26)" fill="#ffffff" fill-opacity="1" opacity="0.75" stroke="none" stroke-opacity="0" transform="matrix(0.129252,0,0,0.129252,193.643,41.5578)"><path d="M0,0 L25,0 L25,56 L0,56 L0,0 z" fill-rule="evenodd" vector-effect="none"/></g><defs><clipPath id="clip27"><path d="M-1498.18,-321.526 L2169.08,-321.526 L2169.08,986 L-1498.18,986 L-1498.18,-321.526 z"/></clipPath></defs><g clip-path="url(#clip27)" fill="none" opacity="0.75" stroke="#000000" stroke-linecap="butt" stroke-linejoin="miter" stroke-miterlimit="2" stroke-opacity="1" stroke-width="1" transform="matrix(0.129252,0,0,0.129252,193.643,41.5578)"><path d="M0,0 L25,0 L25,56 L0,56 L0,0 z" fill-rule="evenodd" vector-effect="none"/></g><defs><clipPath id="clip30"><path d="M-1578.18,-334.526 L2089.08,-334.526 L2089.08,973 L-1578.18,973 L-1578.18,-334.526 z"/></clipPath></defs><g clip-path="url(#clip30)" fill="#ffffff" fill-opacity="1" opacity="0.75" stroke="none" stroke-opacity="0" transform="matrix(0.129252,0,0,0.129252,203.983,43.2381)"><path d="M0,0 L30,0 L30,30 L0,30 L0,0 z" fill-rule="evenodd" vector-effect="none"/></g><defs><clipPath id="clip31"><path d="M-1578.18,-334.526 L2089.08,-334.526 L2089.08,973 L-1578.18,973 L-1578.18,-334.526 z"/></clipPath></defs><g clip-path="url(#clip31)" fill="none" opacity="0.75" stroke="#000000" stroke-linecap="butt" stroke-linejoin="miter" stroke-miterlimit="2" stroke-opacity="1" stroke-width="1" transform="matrix(0.129252,0,0,0.129252,203.983,43.2381)"><path d="M0,0 L30,0 L30,30 L0,30 L0,0 z" fill-rule="evenodd" vector-effect="none"/></g><defs><clipPath id="clip34"><path d="M-1608.18,-234.526 L2059.08,-234.526 L2059.08,1073 L-1608.18,1073 L-1608.18,-234.526 z"/></clipPath></defs><g clip-path="url(#clip34)" fill="#ffffff" fill-opacity="1" opacity="0.75" stroke="none" stroke-opacity="0" transform="matrix(0.129252,0,0,0.129252,207.861,30.3129)"><path d="M20,10 C20,15.5228 15.5228,20 10,20 C4.47715,20 0,15.5228 0,10 C0,4.47715 4.47715,0 10,0 C15.5228,0 20,4.47715 20,10 z" fill-rule="nonzero" vector-effect="none"/></g><defs><clipPath id="clip35"><path d="M-1608.18,-234.526 L2059.08,-234.526 L2059.08,1073 L-1608.18,1073 L-1608.18,-234.526 z"/></clipPath></defs><g clip-path="url(#clip35)" fill="none" opacity="0.75" stroke="#000000" stroke-linecap="butt" stroke-linejoin="miter" stroke-miterlimit="2" stroke-opacity="1" stroke-width="1" transform="matrix(0.129252,0,0,0.129252,207.861,30.3129)"><path d="M20,10 C20,15.5228 15.5228,20 10,20 C4.47715,20 0,15.5228 0,10 C0,4.47715 4.47715,0 10,0 C15.5228,0 20,4.47715 20,10 z" fill-rule="nonzero" vector-effect="none"/></g><defs><clipPath id="clip38"><path d="M-1663.18,-266.526 L2004.08,-266.526 L2004.08,1041 L-1663.18,1041 L-1663.18,-266.526 z"/></clipPath></defs><g clip-path="url(#clip38)" fill="#ffffff" fill-opacity="1" opacity="0.75" stroke="none" stroke-opacity="0" transform="matrix(0.129252,0,0,0.129252,214.969,34.449)"><path d="M0,0 L30,0 L30,31 L0,31 L0,0 z" fill-rule="evenodd" vector-effect="none"/></g><defs><clipPath id="clip39"><path d="M-1663.18,-266.526 L2004.08,-266.526 L2004.08,1041 L-1663.18,1041 L-1663.18,-266.526 z"/></clipPath></defs><g clip-path="url(#clip39)" fill="none" opacity="0.75" stroke="#000000" stroke-linecap="butt" stroke-linejoin="miter" stroke-miterlimit="2" stroke-opacity="1" stroke-width="1" transform="matrix(0.129252,0,0,0.129252,214.969,34.449)"><path d="M0,0 L30,0 L30,31 L0,31 L0,0 z" fill-rule="evenodd" vector-effect="none"/></g><defs><clipPath id="clip42"><path d="M-1708.18,-227.526 L1959.08,-227.526 L1959.08,1080 L-1708.18,1080 L-1708.18,-227.526 z"/></clipPath></defs><g clip-path="url(#clip42)" fill="#ffffff" fill-opacity="1" opacity="0.75" stroke="none" stroke-opacity="0" transform="matrix(0.129252,0,0,0.129252,220.786,29.4082)"><path d="M7,0 L23,0 C26.866,0 30,3.13401 30,7 C30,10.866 26.866,14 23,14 L7,14 C3.13401,14 0,10.866 0,7 C0,3.13401 3.13401,0 7,0 z" fill-rule="nonzero" vector-effect="none"/></g><defs><clipPath id="clip43"><path d="M-1708.18,-227.526 L1959.08,-227.526 L1959.08,1080 L-1708.18,1080 L-1708.18,-227.526 z"/></clipPath></defs><g clip-path="url(#clip43)" fill="none" opacity="0.75" stroke="#000000" stroke-linecap="butt" stroke-linejoin="miter" stroke-miterlimit="2" stroke-opacity="1" stroke-width="1" transform="matrix(0.129252,0,0,0.129252,220.786,29.4082)"><path d="M7,0 L23,0 C26.866,0 30,3.13401 30,7 C30,10.866 26.866,14 23,14 L7,14 C3.13401,14 0,10.866 0,7 C0,3.13401 3.13401,0 7,0 z" fill-rule="nonzero" vector-effect="none"/></g><defs><clipPath id="clip47"><path d="M-1793.18,-337.526 L1874.08,-337.526 L1874.08,970 L-1793.18,970 L-1793.18,-337.526 z"/></clipPath></defs><g clip-path="url(#clip47)" fill="#ffffff" fill-opacity="1" opacity="0.75" stroke="none" stroke-opacity="0" transform="matrix(0.129252,0,0,0.129252,231.772,43.6259)"><path d="M23,14 L7,14 C3.13401,14 0,10.866 0,7 C0,3.13401 3.13401,0 7,0 L23,0 C26.866,0 30,3.13401 30,7 C30,10.866 26.866,14 23,14 z" fill-rule="nonzero" vector-effect="none"/></g><defs><clipPath id="clip48"><path d="M-1793.18,-337.526 L1874.08,-337.526 L1874.08,970 L-1793.18,970 L-1793.18,-337.526 z"/></clipPath></defs><g clip-path="url(#clip48)" fill="none" opacity="0.75" stroke="#000000" stroke-linecap="butt" stroke-linejoin="miter" stroke-miterlimit="2" stroke-opacity="1" stroke-width="1" transform="matrix(0.129252,0,0,0.129252,231.772,43.6259)"><path d="M23,14 L7,14 C3.13401,14 0,10.866 0,7 C0,3.13401 3.13401,0 7,0 L23,0 C26.866,0 30,3.13401 30,7 C30,10.866 26.866,14 23,14 z" fill-rule="nonzero" vector-effect="none"/></g><defs><clipPath id="clip52"><path d="M-1783.18,-264.526 L1884.08,-264.526 L1884.08,1043 L-1783.18,1043 L-1783.18,-264.526 z"/></clipPath></defs><g clip-path="url(#clip52)" fill="#ffffff" fill-opacity="1" opacity="0.75" stroke="none" stroke-opacity="0" transform="matrix(0.129252,0,0,0.129252,230.48,34.1905)"><path d="M0,0 L80,0 L80,40 L0,40 L0,0 z" fill-rule="evenodd" vector-effect="none"/></g><defs><clipPath id="clip53"><path d="M-1783.18,-264.526 L1884.08,-264.526 L1884.08,1043 L-1783.18,1043 L-1783.18,-264.526 z"/></clipPath></defs><g clip-path="url(#clip53)" fill="none" opacity="0.75" stroke="#000000" stroke-linecap="butt" stroke-linejoin="miter" stroke-miterlimit="2" stroke-opacity="1" stroke-width="1" transform="matrix(0.129252,0,0,0.129252,230.48,34.1905)"><path d="M0,0 L80,0 L80,40 L0,40 L0,0 z" fill-rule="evenodd" vector-effect="none"/></g><defs><clipPath id="clip56"><path d="M-1708.18,-329.526 L1959.08,-329.526 L1959.08,978 L-1708.18,978 L-1708.18,-329.526 z"/></clipPath></defs><g clip-path="url(#clip56)" fill="#ffffff" fill-opacity="1" opacity="0.75" stroke="none" stroke-opacity="0" transform="matrix(0.129252,0,0,0.129252,220.786,42.5918)"><path d="M0,0 L30,15 L0,30 L0,0 z" fill-rule="nonzero" vector-effect="none"/></g><defs><clipPath id="clip57"><path d="M-1708.18,-329.526 L1959.08,-329.526 L1959.08,978 L-1708.18,978 L-1708.18,-329.526 z"/></clipPath></defs><g clip-path="url(#clip57)" fill="none" opacity="0.75" stroke="#000000" stroke-linecap="butt" stroke-linejoin="miter" stroke-miterlimit="2" stroke-opacity="1" stroke-width="1" transform="matrix(0.129252,0,0,0.129252,220.786,42.5918)"><path d="M0,0 L30,15 L0,30 L0,0 z" fill-rule="nonzero" vector-effect="none"/></g><defs><clipPath id="clip60"><path d="M-1348.18,-197.526 L2319.08,-197.526 L2319.08,1110 L-1348.18,1110 L-1348.18,-197.526 z"/></clipPath></defs><g clip-path="url(#clip60)" fill="#ffffff" fill-opacity="1" opacity="0.75" stroke="none" stroke-opacity="0" transform="matrix(0.129252,0,0,0.129252,174.255,25.5306)"><path d="M0,0 L5,0 L5,69 L0,69 L0,0 z" fill-rule="evenodd" vector-effect="none"/></g><defs><clipPath id="clip61"><path d="M-1348.18,-197.526 L2319.08,-197.526 L2319.08,1110 L-1348.18,1110 L-1348.18,-197.526 z"/></clipPath></defs><g clip-path="url(#clip61)" fill="none" opacity="0.75" stroke="#000000" stroke-linecap="butt" stroke-linejoin="miter" stroke-miterlimit="2" stroke-opacity="1" stroke-width="1" transform="matrix(0.129252,0,0,0.129252,174.255,25.5306)"><path d="M0,0 L5,0 L5,69 L0,69 L0,0 z" fill-rule="evenodd" vector-effect="none"/></g><defs><clipPath id="clip64"><path d="M-1288.18,-227.526 L2379.08,-227.526 L2379.08,1080 L-1288.18,1080 L-1288.18,-227.526 z"/></clipPath></defs><g clip-path="url(#clip64)" fill="#ffffff" fill-opacity="1" opacity="0.75" stroke="none" stroke-opacity="0" transform="matrix(0.129252,0,0,0.129252,166.5,29.4082)"><path d="M7,0 L23,0 C26.866,0 30,3.13401 30,7 C30,10.866 26.866,14 23,14 L7,14 C3.13401,14 0,10.866 0,7 C0,3.13401 3.13401,0 7,0 z" fill-rule="nonzero" vector-effect="none"/></g><defs><clipPath id="clip65"><path d="M-1288.18,-227.526 L2379.08,-227.526 L2379.08,1080 L-1288.18,1080 L-1288.18,-227.526 z"/></clipPath></defs><g clip-path="url(#clip65)" fill="none" opacity="0.75" stroke="#000000" stroke-linecap="butt" stroke-linejoin="miter" stroke-miterlimit="2" stroke-opacity="1" stroke-width="1" transform="matrix(0.129252,0,0,0.129252,166.5,29.4082)"><path d="M7,0 L23,0 C26.866,0 30,3.13401 30,7 C30,10.866 26.866,14 23,14 L7,14 C3.13401,14 0,10.866 0,7 C0,3.13401 3.13401,0 7,0 z" fill-rule="nonzero" vector-effect="none"/></g><defs><clipPath id="clip69"><path d="M-1728.18,-269.526 L1939.08,-269.526 L1939.08,1038 L-1728.18,1038 L-1728.18,-269.526 z"/></clipPath></defs><g clip-path="url(#clip69)" fill="#ffffff" fill-opacity="1" opacity="0.75" stroke="none" stroke-opacity="0" transform="matrix(0.129252,0,0,0.129252,223.371,34.8367)"><path d="M0,0 L30,15 L0,30 L0,0 z" fill-rule="nonzero" vector-effect="none"/></g><defs><clipPath id="clip70"><path d="M-1728.18,-269.526 L1939.08,-269.526 L1939.08,1038 L-1728.18,1038 L-1728.18,-269.526 z"/></clipPath></defs><g clip-path="url(#clip70)" fill="none" opacity="0.75" stroke="#000000" stroke-linecap="butt" stroke-linejoin="miter" stroke-miterlimit="2" stroke-opacity="1" stroke-width="1" transform="matrix(0.129252,0,0,0.129252,223.371,34.8367)"><path d="M0,0 L30,15 L0,30 L0,0 z" fill-rule="nonzero" vector-effect="none"/></g><defs><clipPath id="clip74"><path d="M-1538.18,-281.526 L2129.08,-281.526 L2129.08,1026 L-1538.18,1026 L-1538.18,-281.526 z"/></clipPath></defs><g clip-path="url(#clip74)" fill="#ffffff" fill-opacity="1" opacity="0.75" stroke="none" stroke-opacity="0" transform="matrix(0.129252,0,0,0.129252,198.813,36.3878)"><path d="M0,0 L55,0 L55,26 L0,26 L0,0 z" fill-rule="evenodd" vector-effect="none"/></g><defs><clipPath id="clip75"><path d="M-1538.18,-281.526 L2129.08,-281.526 L2129.08,1026 L-1538.18,1026 L-1538.18,-281.526 z"/></clipPath></defs><g clip-path="url(#clip75)" fill="none" opacity="0.75" stroke="#000000" stroke-linecap="butt" stroke-linejoin="miter" stroke-miterlimit="2" stroke-opacity="1" stroke-width="1" transform="matrix(0.129252,0,0,0.129252,198.813,36.3878)"><path d="M0,0 L55,0 L55,26 L0,26 L0,0 z" fill-rule="evenodd" vector-effect="none"/></g><defs><clipPath id="clip80"><path d="M-1298.18,-194.526 L2369.08,-194.526 L2369.08,1113 L-1298.18,1113 L-1298.18,-194.526 z"/></clipPath></defs><g clip-path="url(#clip80)" fill="none" opacity="0.75" stroke="#000000" stroke-linecap="butt" stroke-linejoin="miter" stroke-miterlimit="2" stroke-opacity="1" stroke-width="1" transform="matrix(0.129252,0,0,0.129252,167.793,25.1429)"><path d="M55,20 L78,20" fill-rule="evenodd" vector-effect="none"/></g><defs><clipPath id="clip84"><path d="M-1393.18,-194.526 L2274.08,-194.526 L2274.08,1113 L-1393.18,1113 L-1393.18,-194.526 z"/></clipPath></defs><g clip-path="url(#clip84)" fill="#000000" fill-opacity="1" opacity="0.75" stroke="none" stroke-opacity="0" transform="matrix(0.129252,0,0,0.129252,180.071,25.1429)"><path d="M0,0 L-8,-4 L-8,4 L0,0 z" fill-rule="nonzero" vector-effect="none"/></g><defs><clipPath id="clip86"><path d="M-1298.18,-194.526 L2369.08,-194.526 L2369.08,1113 L-1298.18,1113 L-1298.18,-194.526 z"/></clipPath></defs><g clip-path="url(#clip86)" fill="none" opacity="0.75" stroke="#000000" stroke-linecap="butt" stroke-linejoin="miter" stroke-miterlimit="2" stroke-opacity="1" stroke-width="1" transform="matrix(0.129252,0,0,0.129252,167.793,25.1429)"><path d="M78,20 L78,0 L87,0" fill-rule="evenodd" vector-effect="none"/></g><defs><clipPath id="clip89"><path d="M-1438.18,-334.526 L2229.08,-334.526 L2229.08,973 L-1438.18,973 L-1438.18,-334.526 z"/></clipPath></defs><g clip-path="url(#clip89)" fill="#000000" fill-opacity="1" opacity="0.75" stroke="none" stroke-opacity="0" transform="matrix(0.129252,0,0,0.129252,185.888,43.2381)"><path d="M0,0 L-8,-4 L-8,4 L0,0 z" fill-rule="nonzero" vector-effect="none"/></g><defs><clipPath id="clip91"><path d="M-1298.18,-194.526 L2369.08,-194.526 L2369.08,1113 L-1298.18,1113 L-1298.18,-194.526 z"/></clipPath></defs><g clip-path="url(#clip91)" fill="none" opacity="0.75" stroke="#000000" stroke-linecap="butt" stroke-linejoin="miter" stroke-miterlimit="2" stroke-opacity="1" stroke-width="1" transform="matrix(0.129252,0,0,0.129252,167.793,25.1429)"><path d="M78,20 L78,140 L132,140" fill-rule="evenodd" vector-effect="none"/></g><defs><clipPath id="clip93"><path d="M-1376.18,-214.526 L2291.08,-214.526 L2291.08,1093 L-1376.18,1093 L-1376.18,-214.526 z"/></clipPath></defs><g clip-path="url(#clip93)" fill="#000000" fill-opacity="1" opacity="0.75" stroke="none" stroke-opacity="0" transform="matrix(0.129252,0,0,0.129252,177.874,27.7279)"><path d="M2.5,0 C2.5,1.38071 1.38071,2.5 0,2.5 C-1.38071,2.5 -2.5,1.38071 -2.5,0 C-2.5,-1.38071 -1.38071,-2.5 0,-2.5 C1.38071,-2.5 2.5,-1.38071 2.5,0 z" fill-rule="evenodd" vector-effect="none"/></g><defs><clipPath id="clip98"><path d="M-1548.18,-234.526 L2119.08,-234.526 L2119.08,1073 L-1548.18,1073 L-1548.18,-234.526 z"/></clipPath></defs><g clip-path="url(#clip98)" fill="#000000" fill-opacity="1" opacity="0.75" stroke="none" stroke-opacity="0" transform="matrix(0.129252,0,0,0.129252,200.105,30.3129)"><path d="M0,0 L-8,-4 L-8,4 L0,0 z" fill-rule="nonzero" vector-effect="none"/></g><defs><clipPath id="clip100"><path d="M-1298.18,-194.526 L2369.08,-194.526 L2369.08,1113 L-1298.18,1113 L-1298.18,-194.526 z"/></clipPath></defs><g clip-path="url(#clip100)" fill="none" opacity="0.75" stroke="#000000" stroke-linecap="butt" stroke-linejoin="miter" stroke-miterlimit="2" stroke-opacity="1" stroke-width="1" transform="matrix(0.129252,0,0,0.129252,167.793,25.1429)"><path d="M225,0 L235,0 L235,40 L242,40" fill-rule="evenodd" vector-effect="none"/></g><defs><clipPath id="clip105"><path d="M-1548.18,-249.526 L2119.08,-249.526 L2119.08,1058 L-1548.18,1058 L-1548.18,-249.526 z"/></clipPath></defs><g clip-path="url(#clip105)" fill="#000000" fill-opacity="1" opacity="0.75" stroke="none" stroke-opacity="0" transform="matrix(0.129252,0,0,0.129252,200.105,32.2517)"><path d="M0,0 L-8,-4 L-8,4 L0,0 z" fill-rule="nonzero" vector-effect="none"/></g><defs><clipPath id="clip107"><path d="M-1298.18,-194.526 L2369.08,-194.526 L2369.08,1113 L-1298.18,1113 L-1298.18,-194.526 z"/></clipPath></defs><g clip-path="url(#clip107)" fill="none" opacity="0.75" stroke="#000000" stroke-linecap="butt" stroke-linejoin="miter" stroke-miterlimit="2" stroke-opacity="1" stroke-width="1" transform="matrix(0.129252,0,0,0.129252,167.793,25.1429)"><path d="M200,55 L242,55" fill-rule="evenodd" vector-effect="none"/></g><defs><clipPath id="clip111"><path d="M-1298.18,-194.526 L2369.08,-194.526 L2369.08,1113 L-1298.18,1113 L-1298.18,-194.526 z"/></clipPath></defs><g clip-path="url(#clip111)" fill="none" opacity="0.75" stroke="#000000" stroke-linecap="butt" stroke-linejoin="miter" stroke-miterlimit="2" stroke-opacity="1" stroke-width="1" transform="matrix(0.129252,0,0,0.129252,167.793,25.1429)"><path d="M55,55 L123,55" fill-rule="evenodd" vector-effect="none"/></g><defs><clipPath id="clip115"><path d="M-1498.18,-364.526 L2169.08,-364.526 L2169.08,943 L-1498.18,943 L-1498.18,-364.526 z"/></clipPath></defs><g clip-path="url(#clip115)" fill="#000000" fill-opacity="1" opacity="0.75" stroke="none" stroke-opacity="0" transform="matrix(0.129252,0,0,0.129252,193.643,47.1156)"><path d="M0,0 L-8,-4 L-8,4 L0,0 z" fill-rule="nonzero" vector-effect="none"/></g><defs><clipPath id="clip117"><path d="M-1298.18,-194.526 L2369.08,-194.526 L2369.08,1113 L-1298.18,1113 L-1298.18,-194.526 z"/></clipPath></defs><g clip-path="url(#clip117)" fill="none" opacity="0.75" stroke="#000000" stroke-linecap="butt" stroke-linejoin="miter" stroke-miterlimit="2" stroke-opacity="1" stroke-width="1" transform="matrix(0.129252,0,0,0.129252,167.793,25.1429)"><path d="M123,55 L123,170 L192,170" fill-rule="evenodd" vector-effect="none"/></g><defs><clipPath id="clip120"><path d="M-1438.18,-249.526 L2229.08,-249.526 L2229.08,1058 L-1438.18,1058 L-1438.18,-249.526 z"/></clipPath></defs><g clip-path="url(#clip120)" fill="#000000" fill-opacity="1" opacity="0.75" stroke="none" stroke-opacity="0" transform="matrix(0.129252,0,0,0.129252,185.888,32.2517)"><path d="M0,0 L-8,-4 L-8,4 L0,0 z" fill-rule="nonzero" vector-effect="none"/></g><defs><clipPath id="clip122"><path d="M-1298.18,-194.526 L2369.08,-194.526 L2369.08,1113 L-1298.18,1113 L-1298.18,-194.526 z"/></clipPath></defs><g clip-path="url(#clip122)" fill="none" opacity="0.75" stroke="#000000" stroke-linecap="butt" stroke-linejoin="miter" stroke-miterlimit="2" stroke-opacity="1" stroke-width="1" transform="matrix(0.129252,0,0,0.129252,167.793,25.1429)"><path d="M123,55 L132,55" fill-rule="evenodd" vector-effect="none"/></g><defs><clipPath id="clip124"><path d="M-1421.18,-249.526 L2246.08,-249.526 L2246.08,1058 L-1421.18,1058 L-1421.18,-249.526 z"/></clipPath></defs><g clip-path="url(#clip124)" fill="#000000" fill-opacity="1" opacity="0.75" stroke="none" stroke-opacity="0" transform="matrix(0.129252,0,0,0.129252,183.69,32.2517)"><path d="M2.5,0 C2.5,1.38071 1.38071,2.5 0,2.5 C-1.38071,2.5 -2.5,1.38071 -2.5,0 C-2.5,-1.38071 -1.38071,-2.5 0,-2.5 C1.38071,-2.5 2.5,-1.38071 2.5,0 z" fill-rule="evenodd" vector-effect="none"/></g><defs><clipPath id="clip129"><path d="M-1498.18,-334.526 L2169.08,-334.526 L2169.08,973 L-1498.18,973 L-1498.18,-334.526 z"/></clipPath></defs><g clip-path="url(#clip129)" fill="#000000" fill-opacity="1" opacity="0.75" stroke="none" stroke-opacity="0" transform="matrix(0.129252,0,0,0.129252,193.643,43.2381)"><path d="M0,0 L-8,-4 L-8,4 L0,0 z" fill-rule="nonzero" vector-effect="none"/></g><defs><clipPath id="clip131"><path d="M-1298.18,-194.526 L2369.08,-194.526 L2369.08,1113 L-1298.18,1113 L-1298.18,-194.526 z"/></clipPath></defs><g clip-path="url(#clip131)" fill="none" opacity="0.75" stroke="#000000" stroke-linecap="butt" stroke-linejoin="miter" stroke-miterlimit="2" stroke-opacity="1" stroke-width="1" transform="matrix(0.129252,0,0,0.129252,167.793,25.1429)"><path d="M170,140 L192,140" fill-rule="evenodd" vector-effect="none"/></g><defs><clipPath id="clip136"><path d="M-1578.18,-349.526 L2089.08,-349.526 L2089.08,958 L-1578.18,958 L-1578.18,-349.526 z"/></clipPath></defs><g clip-path="url(#clip136)" fill="#000000" fill-opacity="1" opacity="0.75" stroke="none" stroke-opacity="0" transform="matrix(0.129252,0,0,0.129252,203.983,45.1769)"><path d="M0,0 L-8,-4 L-8,4 L0,0 z" fill-rule="nonzero" vector-effect="none"/></g><defs><clipPath id="clip138"><path d="M-1298.18,-194.526 L2369.08,-194.526 L2369.08,1113 L-1298.18,1113 L-1298.18,-194.526 z"/></clipPath></defs><g clip-path="url(#clip138)" fill="none" opacity="0.75" stroke="#000000" stroke-linecap="butt" stroke-linejoin="miter" stroke-miterlimit="2" stroke-opacity="1" stroke-width="1" transform="matrix(0.129252,0,0,0.129252,167.793,25.1429)"><path d="M225,155 L272,155" fill-rule="evenodd" vector-effect="none"/></g><defs><clipPath id="clip143"><path d="M254.526,-1618.18 L254.526,2049.08 L-1053,2049.08 L-1053,-1618.18 L254.526,-1618.18 z"/></clipPath></defs><g clip-path="url(#clip143)" fill="#000000" fill-opacity="1" opacity="0.75" stroke="none" stroke-opacity="0" transform="matrix(7.91438e-18,-0.129252,0.129252,7.91438e-18,209.153,32.898)"><path d="M0,0 L-8,-4 L-8,4 L0,0 z" fill-rule="nonzero" vector-effect="none"/></g><defs><clipPath id="clip145"><path d="M-1298.18,-194.526 L2369.08,-194.526 L2369.08,1113 L-1298.18,1113 L-1298.18,-194.526 z"/></clipPath></defs><g clip-path="url(#clip145)" fill="none" opacity="0.75" stroke="#000000" stroke-linecap="butt" stroke-linejoin="miter" stroke-miterlimit="2" stroke-opacity="1" stroke-width="1" transform="matrix(0.129252,0,0,0.129252,167.793,25.1429)"><path d="M295,100 L320,100 L320,68" fill-rule="evenodd" vector-effect="none"/></g><defs><clipPath id="clip150"><path d="M-1728.18,-284.526 L1939.08,-284.526 L1939.08,1023 L-1728.18,1023 L-1728.18,-284.526 z"/></clipPath></defs><g clip-path="url(#clip150)" fill="#000000" fill-opacity="1" opacity="0.75" stroke="none" stroke-opacity="0" transform="matrix(0.129252,0,0,0.129252,223.371,36.7755)"><path d="M0,0 L-8,-4 L-8,4 L0,0 z" fill-rule="nonzero" vector-effect="none"/></g><defs><clipPath id="clip152"><path d="M-1298.18,-194.526 L2369.08,-194.526 L2369.08,1113 L-1298.18,1113 L-1298.18,-194.526 z"/></clipPath></defs><g clip-path="url(#clip152)" fill="none" opacity="0.75" stroke="#000000" stroke-linecap="butt" stroke-linejoin="miter" stroke-miterlimit="2" stroke-opacity="1" stroke-width="1" transform="matrix(0.129252,0,0,0.129252,167.793,25.1429)"><path d="M395,90 L422,90" fill-rule="evenodd" vector-effect="none"/></g><defs><clipPath id="clip156"><path d="M-1298.18,-194.526 L2369.08,-194.526 L2369.08,1113 L-1298.18,1113 L-1298.18,-194.526 z"/></clipPath></defs><g clip-path="url(#clip156)" fill="none" opacity="0.75" stroke="#000000" stroke-linecap="butt" stroke-linejoin="miter" stroke-miterlimit="2" stroke-opacity="1" stroke-width="1" transform="matrix(0.129252,0,0,0.129252,167.793,25.1429)"><path d="M440,40 L472,40 L472,66" fill-rule="evenodd" vector-effect="none"/></g><defs><clipPath id="clip160"><path d="M-1708.18,-344.526 L1959.08,-344.526 L1959.08,963 L-1708.18,963 L-1708.18,-344.526 z"/></clipPath></defs><g clip-path="url(#clip160)" fill="#000000" fill-opacity="1" opacity="0.75" stroke="none" stroke-opacity="0" transform="matrix(0.129252,0,0,0.129252,220.786,44.5306)"><path d="M0,0 L-8,-4 L-8,4 L0,0 z" fill-rule="nonzero" vector-effect="none"/></g><defs><clipPath id="clip162"><path d="M-1298.18,-194.526 L2369.08,-194.526 L2369.08,1113 L-1298.18,1113 L-1298.18,-194.526 z"/></clipPath></defs><g clip-path="url(#clip162)" fill="none" opacity="0.75" stroke="#000000" stroke-linecap="butt" stroke-linejoin="miter" stroke-miterlimit="2" stroke-opacity="1" stroke-width="1" transform="matrix(0.129252,0,0,0.129252,167.793,25.1429)"><path d="M472,66 L403,66 L403,150 L402,150" fill-rule="evenodd" vector-effect="none"/></g><defs><clipPath id="clip165"><path d="M-1783.18,-269.526 L1884.08,-269.526 L1884.08,1038 L-1783.18,1038 L-1783.18,-269.526 z"/></clipPath></defs><g clip-path="url(#clip165)" fill="#000000" fill-opacity="1" opacity="0.75" stroke="none" stroke-opacity="0" transform="matrix(0.129252,0,0,0.129252,230.48,34.8367)"><path d="M0,0 L-8,-4 L-8,4 L0,0 z" fill-rule="nonzero" vector-effect="none"/></g><defs><clipPath id="clip167"><path d="M-1298.18,-194.526 L2369.08,-194.526 L2369.08,1113 L-1298.18,1113 L-1298.18,-194.526 z"/></clipPath></defs><g clip-path="url(#clip167)" fill="none" opacity="0.75" stroke="#000000" stroke-linecap="butt" stroke-linejoin="miter" stroke-miterlimit="2" stroke-opacity="1" stroke-width="1" transform="matrix(0.129252,0,0,0.129252,167.793,25.1429)"><path d="M472,66 L472,75 L477,75" fill-rule="evenodd" vector-effect="none"/></g><defs><clipPath id="clip169"><path d="M-1770.18,-260.526 L1897.08,-260.526 L1897.08,1047 L-1770.18,1047 L-1770.18,-260.526 z"/></clipPath></defs><g clip-path="url(#clip169)" fill="#000000" fill-opacity="1" opacity="0.75" stroke="none" stroke-opacity="0" transform="matrix(0.129252,0,0,0.129252,228.799,33.6735)"><path d="M2.5,0 C2.5,1.38071 1.38071,2.5 0,2.5 C-1.38071,2.5 -2.5,1.38071 -2.5,0 C-2.5,-1.38071 -1.38071,-2.5 0,-2.5 C1.38071,-2.5 2.5,-1.38071 2.5,0 z" fill-rule="evenodd" vector-effect="none"/></g><defs><clipPath id="clip174"><path d="M-1783.18,-299.526 L1884.08,-299.526 L1884.08,1008 L-1783.18,1008 L-1783.18,-299.526 z"/></clipPath></defs><g clip-path="url(#clip174)" fill="#000000" fill-opacity="1" opacity="0.75" stroke="none" stroke-opacity="0" transform="matrix(0.129252,0,0,0.129252,230.48,38.7143)"><path d="M0,0 L-8,-4 L-8,4 L0,0 z" fill-rule="nonzero" vector-effect="none"/></g><defs><clipPath id="clip176"><path d="M-1298.18,-194.526 L2369.08,-194.526 L2369.08,1113 L-1298.18,1113 L-1298.18,-194.526 z"/></clipPath></defs><g clip-path="url(#clip176)" fill="none" opacity="0.75" stroke="#000000" stroke-linecap="butt" stroke-linejoin="miter" stroke-miterlimit="2" stroke-opacity="1" stroke-width="1" transform="matrix(0.129252,0,0,0.129252,167.793,25.1429)"><path d="M440,150 L470,150 L470,105 L477,105" fill-rule="evenodd" vector-effect="none"/></g><defs><clipPath id="clip181"><path d="M-1348.18,-234.526 L2319.08,-234.526 L2319.08,1073 L-1348.18,1073 L-1348.18,-234.526 z"/></clipPath></defs><g clip-path="url(#clip181)" fill="#000000" fill-opacity="1" opacity="0.75" stroke="none" stroke-opacity="0" transform="matrix(0.129252,0,0,0.129252,174.255,30.3129)"><path d="M0,0 L-8,-4 L-8,4 L0,0 z" fill-rule="nonzero" vector-effect="none"/></g><defs><clipPath id="clip183"><path d="M-1298.18,-194.526 L2369.08,-194.526 L2369.08,1113 L-1298.18,1113 L-1298.18,-194.526 z"/></clipPath></defs><g clip-path="url(#clip183)" fill="none" opacity="0.75" stroke="#000000" stroke-linecap="butt" stroke-linejoin="miter" stroke-miterlimit="2" stroke-opacity="1" stroke-width="1" transform="matrix(0.129252,0,0,0.129252,167.793,25.1429)"><path d="M20,40 L42,40" fill-rule="evenodd" vector-effect="none"/></g><defs><clipPath id="clip188"><path d="M-1783.18,-284.526 L1884.08,-284.526 L1884.08,1023 L-1783.18,1023 L-1783.18,-284.526 z"/></clipPath></defs><g clip-path="url(#clip188)" fill="#000000" fill-opacity="1" opacity="0.75" stroke="none" stroke-opacity="0" transform="matrix(0.129252,0,0,0.129252,230.48,36.7755)"><path d="M0,0 L-8,-4 L-8,4 L0,0 z" fill-rule="nonzero" vector-effect="none"/></g><defs><clipPath id="clip190"><path d="M-1298.18,-194.526 L2369.08,-194.526 L2369.08,1113 L-1298.18,1113 L-1298.18,-194.526 z"/></clipPath></defs><g clip-path="url(#clip190)" fill="none" opacity="0.75" stroke="#000000" stroke-linecap="butt" stroke-linejoin="miter" stroke-miterlimit="2" stroke-opacity="1" stroke-width="1" transform="matrix(0.129252,0,0,0.129252,167.793,25.1429)"><path d="M460,90 L477,90" fill-rule="evenodd" vector-effect="none"/></g><defs><clipPath id="clip195"><path d="M-1663.18,-274.526 L2004.08,-274.526 L2004.08,1033 L-1663.18,1033 L-1663.18,-274.526 z"/></clipPath></defs><g clip-path="url(#clip195)" fill="#000000" fill-opacity="1" opacity="0.75" stroke="none" stroke-opacity="0" transform="matrix(0.129252,0,0,0.129252,214.969,35.483)"><path d="M0,0 L-8,-4 L-8,4 L0,0 z" fill-rule="nonzero" vector-effect="none"/></g><defs><clipPath id="clip197"><path d="M-1298.18,-194.526 L2369.08,-194.526 L2369.08,1113 L-1298.18,1113 L-1298.18,-194.526 z"/></clipPath></defs><g clip-path="url(#clip197)" fill="none" opacity="0.75" stroke="#000000" stroke-linecap="butt" stroke-linejoin="miter" stroke-miterlimit="2" stroke-opacity="1" stroke-width="1" transform="matrix(0.129252,0,0,0.129252,167.793,25.1429)"><path d="M330,50 L348,50 L348,80 L357,80" fill-rule="evenodd" vector-effect="none"/></g><defs><clipPath id="clip202"><path d="M-1663.18,-289.526 L2004.08,-289.526 L2004.08,1018 L-1663.18,1018 L-1663.18,-289.526 z"/></clipPath></defs><g clip-path="url(#clip202)" fill="#000000" fill-opacity="1" opacity="0.75" stroke="none" stroke-opacity="0" transform="matrix(0.129252,0,0,0.129252,214.969,37.4218)"><path d="M0,0 L-8,-4 L-8,4 L0,0 z" fill-rule="nonzero" vector-effect="none"/></g><defs><clipPath id="clip204"><path d="M-1298.18,-194.526 L2369.08,-194.526 L2369.08,1113 L-1298.18,1113 L-1298.18,-194.526 z"/></clipPath></defs><g clip-path="url(#clip204)" fill="none" opacity="0.75" stroke="#000000" stroke-linecap="butt" stroke-linejoin="miter" stroke-miterlimit="2" stroke-opacity="1" stroke-width="1" transform="matrix(0.129252,0,0,0.129252,167.793,25.1429)"><path d="M310,155 L342,155 L342,95 L357,95" fill-rule="evenodd" vector-effect="none"/></g><defs><clipPath id="clip209"><path d="M1823.18,344.526 L-1844.08,344.526 L-1844.08,-963 L1823.18,-963 L1823.18,344.526 z"/></clipPath></defs><g clip-path="url(#clip209)" fill="#000000" fill-opacity="1" opacity="0.75" stroke="none" stroke-opacity="0" transform="matrix(-0.129252,0,0,-0.129252,235.65,44.5306)"><path d="M0,0 L-8,-4 L-8,4 L0,0 z" fill-rule="nonzero" vector-effect="none"/></g><defs><clipPath id="clip211"><path d="M-1298.18,-194.526 L2369.08,-194.526 L2369.08,1113 L-1298.18,1113 L-1298.18,-194.526 z"/></clipPath></defs><g clip-path="url(#clip211)" fill="none" opacity="0.75" stroke="#000000" stroke-linecap="butt" stroke-linejoin="miter" stroke-miterlimit="2" stroke-opacity="1" stroke-width="1" transform="matrix(0.129252,0,0,0.129252,167.793,25.1429)"><path d="M565,90 L578,90 L578,150 L533,150" fill-rule="evenodd" vector-effect="none"/></g><defs><clipPath id="clip216"><path d="M-1608.18,-244.526 L2059.08,-244.526 L2059.08,1063 L-1608.18,1063 L-1608.18,-244.526 z"/></clipPath></defs><g clip-path="url(#clip216)" fill="#000000" fill-opacity="1" opacity="0.75" stroke="none" stroke-opacity="0" transform="matrix(0.129252,0,0,0.129252,207.861,31.6054)"><path d="M0,0 L-8,-4 L-8,4 L0,0 z" fill-rule="nonzero" vector-effect="none"/></g><defs><clipPath id="clip218"><path d="M-1298.18,-194.526 L2369.08,-194.526 L2369.08,1113 L-1298.18,1113 L-1298.18,-194.526 z"/></clipPath></defs><g clip-path="url(#clip218)" fill="none" opacity="0.75" stroke="#000000" stroke-linecap="butt" stroke-linejoin="miter" stroke-miterlimit="2" stroke-opacity="1" stroke-width="1" transform="matrix(0.129252,0,0,0.129252,167.793,25.1429)"><path d="M285,50 L302,50" fill-rule="evenodd" vector-effect="none"/></g><defs><clipPath id="clip225"><path d="M-3,-15 L92,-15 L92,45 L-3,45 L-3,-15 z"/></clipPath></defs><g clip-path="url(#clip225)" fill="none" opacity="1" stroke="#000000" stroke-linecap="butt" stroke-linejoin="miter" stroke-miterlimit="2" stroke-opacity="1" stroke-width="1" transform="matrix(1,0,0,1,160,21)"><text fill="#000000" fill-opacity="1" font-family="Arial" font-size="9" font-style="normal" font-weight="400" stroke="none" textLength="21.9844" x="0" xml:space="preserve" y="3">alpha</text></g><defs><clipPath id="clip226"><path d="M-3,-45 L92,-45 L92,15 L-3,15 L-3,-45 z"/></clipPath></defs><g clip-path="url(#clip226)" fill="none" opacity="1" stroke="#000000" stroke-linecap="butt" stroke-linejoin="miter" stroke-miterlimit="2" stroke-opacity="1" stroke-width="1" transform="matrix(1,0,0,1,160,51)"><text fill="#000000" fill-opacity="1" font-family="Arial" font-size="9" font-style="normal" font-weight="400" stroke="none" textLength="23" x="0" xml:space="preserve" y="3">uMax</text></g><defs><clipPath id="clip227"><path d="M-92,-30 L3,-30 L3,30 L-92,30 L-92,-30 z"/></clipPath></defs><g clip-path="url(#clip227)" fill="none" opacity="1" stroke="#000000" stroke-linecap="butt" stroke-linejoin="miter" stroke-miterlimit="2" stroke-opacity="1" stroke-width="1" transform="matrix(1,0,0,1,249,36)"><text fill="#000000" fill-opacity="1" font-family="Arial" font-size="9" font-style="normal" font-weight="400" stroke="none" textLength="5" x="-5" xml:space="preserve" y="3">u</text></g><defs><clipPath id="clip232"><path d="M-157.5,-6.5 L316.5,-6.5 L316.5,162.5 L-157.5,162.5 L-157.5,-6.5 z"/></clipPath></defs><g clip-path="url(#clip232)" fill="none" opacity="1" stroke="#000000" stroke-linecap="butt" stroke-linejoin="miter" stroke-miterlimit="2" stroke-opacity="1" stroke-width="1" transform="matrix(1,0,0,1,157.5,6.5)"><path d="M0,0 L95,0 L95,60 L0,60 L0,0 z" fill-rule="evenodd" vector-effect="none"/></g><defs><clipPath id="clip238"><path d="M0,0 L99,0 L99,14 L0,14 L0,0 z"/></clipPath></defs><g clip-path="url(#clip238)" fill="none" opacity="1" stroke="#000000" stroke-linecap="square" stroke-linejoin="bevel" stroke-opacity="1" stroke-width="1" transform="matrix(1,0,0,1,155.242,68)"><text fill="#000000" fill-opacity="1" font-family="Arial" font-size="10" font-style="normal" font-weight="400" stroke="none" textLength="96.5156" x="1" xml:space="preserve" y="10">Energy based Control</text></g><defs><clipPath id="clip246"><path d="M-367,-11 L107,-11 L107,158 L-367,158 L-367,-11 z"/></clipPath></defs><g clip-path="url(#clip246)" fill="#ffffff" fill-opacity="1" opacity="1" stroke="none" stroke-opacity="0" transform="matrix(1,0,0,1,367,11)"><path d="M0,0 L90,25 L0,50 L0,0 z" fill-rule="nonzero" vector-effect="none"/></g><defs><clipPath id="clip250"><path d="M0,0 L90,0 L90,50 L0,50 L0,0 z"/></clipPath></defs><g clip-path="url(#clip250)" fill="none" opacity="1" stroke="none" stroke-opacity="0" transform="matrix(1,0,0,1,367,11)"><path d="M0,0 L90,25 L0,50 L0,0 z" fill-rule="nonzero" vector-effect="none"/></g><defs><clipPath id="clip260"><path d="M-16,-2 L48,-2 L48,32 L-16,32 L-16,-2 z"/></clipPath></defs><g clip-path="url(#clip260)" fill="#000000" fill-opacity="1" opacity="1" stroke="none" stroke-opacity="0" transform="matrix(1,0,0,1,387.086,21.9141)"><path d="M-14.1719,17.5781 L-14.1719,10.4219 L-11,10.4219 C-10.3542,10.4219 -9.86719,10.487 -9.53906,10.6172 C-9.21094,10.7474 -8.94531,10.974 -8.74219,11.2969 C-8.53906,11.6198 -8.4375,11.9792 -8.4375,12.375 C-8.4375,12.8854 -8.60417,13.3125 -8.9375,13.6562 C-9.27083,14 -9.77604,14.224 -10.4531,14.3281 C-10.2031,14.4427 -10.0156,14.5573 -9.89062,14.6719 C-9.60938,14.9323 -9.34896,15.25 -9.10938,15.625 L-7.85938,17.5781 L-9.04688,17.5781 L-10,16.0938 C-10.2708,15.6562 -10.4974,15.3255 -10.6797,15.1016 C-10.862,14.8776 -11.0234,14.7188 -11.1641,14.625 C-11.3047,14.5312 -11.4479,14.4688 -11.5938,14.4375 C-11.6979,14.4167 -11.875,14.4062 -12.125,14.4062 L-13.2188,14.4062 L-13.2188,17.5781 L-14.1719,17.5781 M-13.2188,13.5781 L-11.1875,13.5781 C-10.75,13.5781 -10.4089,13.5339 -10.1641,13.4453 C-9.91927,13.3568 -9.73438,13.2135 -9.60938,13.0156 C-9.48438,12.8177 -9.42188,12.6042 -9.42188,12.375 C-9.42188,12.0312 -9.54427,11.75 -9.78906,11.5312 C-10.0339,11.3125 -10.4219,11.2031 -10.9531,11.2031 L-13.2188,11.2031 L-13.2188,13.5781 M-7.07812,17.5781 L-7.07812,12.3906 L-6.28125,12.3906 L-6.28125,13.125 C-6.125,12.8646 -5.91146,12.6589 -5.64062,12.5078 C-5.36979,12.3568 -5.0625,12.2812 -4.71875,12.2812 C-4.33333,12.2812 -4.01823,12.3594 -3.77344,12.5156 C-3.52865,12.6719 -3.35417,12.8958 -3.25,13.1875 C-2.84375,12.5833 -2.3125,12.2812 -1.65625,12.2812 C-1.13542,12.2812 -0.736979,12.4219 -0.460938,12.7031 C-0.184896,12.9844 -0.046875,13.4219 -0.046875,14.0156 L-0.046875,17.5781 L-0.921875,17.5781 L-0.921875,14.3125 C-0.921875,13.9583 -0.950521,13.7031 -1.00781,13.5469 C-1.0651,13.3906 -1.16927,13.2656 -1.32031,13.1719 C-1.47135,13.0781 -1.64583,13.0312 -1.84375,13.0312 C-2.20833,13.0312 -2.51042,13.1536 -2.75,13.3984 C-2.98958,13.6432 -3.10938,14.0312 -3.10938,14.5625 L-3.10938,17.5781 L-4,17.5781 L-4,14.2031 C-4,13.8177 -4.07031,13.526 -4.21094,13.3281 C-4.35156,13.1302 -4.58333,13.0312 -4.90625,13.0312 C-5.15625,13.0312 -5.38542,13.0964 -5.59375,13.2266 C-5.80208,13.3568 -5.95573,13.5469 -6.05469,13.7969 C-6.15365,14.0469 -6.20312,14.4115 -6.20312,14.8906 L-6.20312,17.5781 L-7.07812,17.5781 M0.578125,17.7031 L2.65625,10.2969 L3.35938,10.2969 L1.28125,17.7031 L0.578125,17.7031 M5.6875,19.6875 C5.19792,19.0729 4.78646,18.3542 4.45312,17.5312 C4.11979,16.7083 3.95312,15.8594 3.95312,14.9844 C3.95312,14.2135 4.07812,13.474 4.32812,12.7656 C4.61979,11.9323 5.07292,11.1094 5.6875,10.2969 L6.3125,10.2969 C5.91667,10.974 5.65625,11.4583 5.53125,11.75 C5.33333,12.1979 5.17708,12.6667 5.0625,13.1562 C4.92708,13.7604 4.85938,14.3698 4.85938,14.9844 C4.85938,16.5573 5.34375,18.125 6.3125,19.6875 L5.6875,19.6875 M7.32812,17.5781 L7.32812,12.3906 L8.125,12.3906 L8.125,13.125 C8.5,12.5625 9.04688,12.2812 9.76562,12.2812 C10.0781,12.2812 10.3672,12.3359 10.6328,12.4453 C10.8984,12.5547 11.0964,12.7005 11.2266,12.8828 C11.3568,13.0651 11.4479,13.2812 11.5,13.5312 C11.5312,13.6979 11.5469,13.9844 11.5469,14.3906 L11.5469,17.5781 L10.6719,17.5781 L10.6719,14.4219 C10.6719,14.0677 10.638,13.8021 10.5703,13.625 C10.5026,13.4479 10.3802,13.3047 10.2031,13.1953 C10.026,13.0859 9.82292,13.0312 9.59375,13.0312 C9.21875,13.0312 8.89323,13.151 8.61719,13.3906 C8.34115,13.6302 8.20312,14.0833 8.20312,14.75 L8.20312,17.5781 L7.32812,17.5781 M12.5312,11.7344 L12.75,11.0469 C13.2708,11.224 13.651,11.3802 13.8906,11.5156 C13.8281,10.9219 13.7917,10.5156 13.7812,10.2969 L14.5,10.2969 C14.4896,10.6198 14.4479,11.026 14.375,11.5156 C14.7188,11.3385 15.1042,11.1823 15.5312,11.0469 L15.7656,11.7344 C15.349,11.8698 14.9427,11.9583 14.5469,12 C14.7448,12.1771 15.026,12.4844 15.3906,12.9219 L14.7969,13.3438 C14.6094,13.0833 14.3854,12.7344 14.125,12.2969 C13.8854,12.7552 13.6771,13.1042 13.5,13.3438 L12.9219,12.9219 C13.2969,12.4635 13.5677,12.1562 13.7344,12 C13.3073,11.9271 12.9062,11.8385 12.5312,11.7344 M16.8438,17.5781 L16.8438,10.4219 L17.7969,10.4219 L17.7969,13.9688 L21.3438,10.4219 L22.625,10.4219 L19.625,13.3125 L22.7656,17.5781 L21.5156,17.5781 L18.9688,13.9531 L17.7969,15.0938 L17.7969,17.5781 L16.8438,17.5781 M23.2656,18.0156 L24.125,18.1406 C24.1562,18.401 24.2552,18.5938 24.4219,18.7188 C24.6406,18.875 24.9375,18.9531 25.3125,18.9531 C25.7188,18.9531 26.0312,18.8724 26.25,18.7109 C26.4688,18.5495 26.6198,18.3229 26.7031,18.0312 C26.7448,17.8542 26.7656,17.4792 26.7656,16.9062 C26.3802,17.3542 25.901,17.5781 25.3281,17.5781 C24.6198,17.5781 24.0703,17.3203 23.6797,16.8047 C23.2891,16.2891 23.0938,15.6719 23.0938,14.9531 C23.0938,14.4635 23.1823,14.0078 23.3594,13.5859 C23.5365,13.1641 23.7943,12.8411 24.1328,12.6172 C24.4714,12.3932 24.8698,12.2812 25.3281,12.2812 C25.9427,12.2812 26.4479,12.526 26.8438,13.0156 L26.8438,12.3906 L27.6562,12.3906 L27.6562,16.875 C27.6562,17.6875 27.5755,18.2604 27.4141,18.5938 C27.2526,18.9271 26.9922,19.1927 26.6328,19.3906 C26.2734,19.5885 25.8333,19.6875 25.3125,19.6875 C24.6979,19.6875 24.2005,19.5469 23.8203,19.2656 C23.4401,18.9844 23.2552,18.5677 23.2656,18.0156 M23.9844,14.8906 C23.9844,15.5677 24.1198,16.0625 24.3906,16.375 C24.6615,16.6875 25,16.8438 25.4062,16.8438 C25.8125,16.8438 26.1536,16.6901 26.4297,16.3828 C26.7057,16.0755 26.8438,15.5885 26.8438,14.9219 C26.8438,14.2865 26.7031,13.8073 26.4219,13.4844 C26.1406,13.1615 25.7969,13 25.3906,13 C25.0052,13 24.6745,13.1589 24.3984,13.4766 C24.1224,13.7943 23.9844,14.2656 23.9844,14.8906 M28.625,11.7344 L28.8438,11.0469 C29.3646,11.224 29.7448,11.3802 29.9844,11.5156 C29.9219,10.9219 29.8854,10.5156 29.875,10.2969 L30.5938,10.2969 C30.5833,10.6198 30.5417,11.026 30.4688,11.5156 C30.8125,11.3385 31.1979,11.1823 31.625,11.0469 L31.8594,11.7344 C31.4427,11.8698 31.0365,11.9583 30.6406,12 C30.8385,12.1771 31.1198,12.4844 31.4844,12.9219 L30.8906,13.3438 C30.7031,13.0833 30.4792,12.7344 30.2188,12.2969 C29.9792,12.7552 29.7708,13.1042 29.5938,13.3438 L29.0156,12.9219 C29.3906,12.4635 29.6615,12.1562 29.8281,12 C29.401,11.9271 29,11.8385 28.625,11.7344 M32.9375,17.5781 L32.9375,10.4219 L33.8906,10.4219 L33.8906,13.9688 L37.4375,10.4219 L38.7188,10.4219 L35.7188,13.3125 L38.8594,17.5781 L37.6094,17.5781 L35.0625,13.9531 L33.8906,15.0938 L33.8906,17.5781 L32.9375,17.5781 M41.4375,16.7969 L41.5625,17.5625 C41.3125,17.6146 41.0938,17.6406 40.9062,17.6406 C40.5833,17.6406 40.3333,17.5911 40.1562,17.4922 C39.9792,17.3932 39.8568,17.2604 39.7891,17.0938 C39.7214,16.9271 39.6875,16.5833 39.6875,16.0625 L39.6875,13.0781 L39.0312,13.0781 L39.0312,12.3906 L39.6875,12.3906 L39.6875,11.1094 L40.5469,10.5781 L40.5469,12.3906 L41.4375,12.3906 L41.4375,13.0781 L40.5469,13.0781 L40.5469,16.1094 C40.5469,16.3594 40.5625,16.5208 40.5938,16.5938 C40.625,16.6667 40.6771,16.724 40.75,16.7656 C40.8229,16.8073 40.9219,16.8281 41.0469,16.8281 C41.151,16.8281 41.2812,16.8177 41.4375,16.7969 M42.8594,19.6875 L42.2344,19.6875 C43.2031,18.125 43.6875,16.5573 43.6875,14.9844 C43.6875,14.3802 43.6198,13.776 43.4844,13.1719 C43.3698,12.6823 43.2135,12.2135 43.0156,11.7656 C42.8906,11.474 42.6302,10.9844 42.2344,10.2969 L42.8594,10.2969 C43.474,11.1094 43.9271,11.9323 44.2188,12.7656 C44.4688,13.474 44.5938,14.2135 44.5938,14.9844 C44.5938,15.8594 44.4245,16.7083 44.0859,17.5312 C43.7474,18.3542 43.3385,19.0729 42.8594,19.6875" fill-rule="nonzero" vector-effect="none"/></g><defs><clipPath id="clip280"><path d="M-367.5,-11.5 L106.5,-11.5 L106.5,157.5 L-367.5,157.5 L-367.5,-11.5 z"/></clipPath></defs><g clip-path="url(#clip280)" fill="none" opacity="1" stroke="#000000" stroke-linecap="butt" stroke-linejoin="miter" stroke-miterlimit="2" stroke-opacity="1" stroke-width="1" transform="matrix(1,0,0,1,367.5,11.5)"><path d="M0,0 L90,25 L0,50 L0,0 z" fill-rule="nonzero" vector-effect="none"/></g><defs><clipPath id="clip283"><path d="M-87,-2 L387,-2 L387,167 L-87,167 L-87,-2 z"/></clipPath></defs><g clip-path="url(#clip283)" fill="#ffffff" fill-opacity="1" opacity="1" stroke="none" stroke-opacity="0" transform="matrix(1,0,0,1,87,2)"><path d="M0,0 L40,0 L40,38 L0,38 L0,0 z" fill-rule="evenodd" vector-effect="none"/></g><defs><clipPath id="clip287"><path d="M135,21 L175,21 L175,59 L135,59 L135,21 z"/></clipPath></defs><g clip-path="url(#clip287)" fill="none" opacity="1" stroke="#000000" stroke-linecap="butt" stroke-linejoin="miter" stroke-miterlimit="2" stroke-opacity="1" stroke-width="1" transform="matrix(1,0,0,1,-47.5,-18.5)"><path d="M139,25 L143,25 L143,29 L139,29 L139,25 z" fill-rule="evenodd" vector-effect="none"/></g><defs><clipPath id="clip288"><path d="M135,21 L175,21 L175,59 L135,59 L135,21 z"/></clipPath></defs><g clip-path="url(#clip288)" fill="none" opacity="1" stroke="#000000" stroke-linecap="butt" stroke-linejoin="miter" stroke-miterlimit="2" stroke-opacity="1" stroke-width="1" transform="matrix(1,0,0,1,-47.5,-18.5)"><path d="M139,33 L143,33 L143,37 L139,37 L139,33 z" fill-rule="evenodd" vector-effect="none"/></g><defs><clipPath id="clip289"><path d="M135,21 L175,21 L175,59 L135,59 L135,21 z"/></clipPath></defs><g clip-path="url(#clip289)" fill="none" opacity="1" stroke="#000000" stroke-linecap="butt" stroke-linejoin="miter" stroke-miterlimit="2" stroke-opacity="1" stroke-width="1" transform="matrix(1,0,0,1,-47.5,-18.5)"><path d="M139,42 L143,42 L143,46 L139,46 L139,42 z" fill-rule="evenodd" vector-effect="none"/></g><defs><clipPath id="clip290"><path d="M135,21 L175,21 L175,59 L135,59 L135,21 z"/></clipPath></defs><g clip-path="url(#clip290)" fill="none" opacity="1" stroke="#000000" stroke-linecap="butt" stroke-linejoin="miter" stroke-miterlimit="2" stroke-opacity="1" stroke-width="1" transform="matrix(1,0,0,1,-47.5,-18.5)"><path d="M139,50 L143,50 L143,54 L139,54 L139,50 z" fill-rule="evenodd" vector-effect="none"/></g><defs><clipPath id="clip291"><path d="M135,21 L175,21 L175,59 L135,59 L135,21 z"/></clipPath></defs><g clip-path="url(#clip291)" fill="#000000" fill-opacity="1" opacity="1" stroke="none" stroke-opacity="0" transform="matrix(1,0,0,1,-48,-19)"><path d="M139,33 L143,33 L143,37 L139,37 L139,33 z" fill-rule="evenodd" vector-effect="none"/></g><defs><clipPath id="clip292"><path d="M135,21 L175,21 L175,59 L135,59 L135,21 z"/></clipPath></defs><g clip-path="url(#clip292)" fill="#000000" fill-opacity="1" opacity="1" stroke="#000000" stroke-linecap="square" stroke-linejoin="bevel" stroke-opacity="1" stroke-width="1" transform="matrix(1,0,0,1,-47.5,-18.5)"><path d="M139,33 L143,33 L143,37 L139,37 L139,33 z" fill-rule="evenodd" vector-effect="none"/></g><defs><clipPath id="clip293"><path d="M135,21 L175,21 L175,59 L135,59 L135,21 z"/></clipPath></defs><g clip-path="url(#clip293)" fill="#000000" fill-opacity="1" opacity="1" stroke="none" stroke-opacity="0" transform="matrix(1,0,0,1,-48,-19)"><path d="M139,50 L143,50 L143,54 L139,54 L139,50 z" fill-rule="evenodd" vector-effect="none"/></g><defs><clipPath id="clip294"><path d="M135,21 L175,21 L175,59 L135,59 L135,21 z"/></clipPath></defs><g clip-path="url(#clip294)" fill="#000000" fill-opacity="1" opacity="1" stroke="#000000" stroke-linecap="square" stroke-linejoin="bevel" stroke-opacity="1" stroke-width="1" transform="matrix(1,0,0,1,-47.5,-18.5)"><path d="M139,50 L143,50 L143,54 L139,54 L139,50 z" fill-rule="evenodd" vector-effect="none"/></g><defs><clipPath id="clip295"><path d="M135,21 L175,21 L175,59 L135,59 L135,21 z"/></clipPath></defs><g clip-path="url(#clip295)" fill="#000000" fill-opacity="1" opacity="1" stroke="none" stroke-opacity="0" transform="matrix(1,0,0,1,-48,-19)"><path d="M167,30 L171,30 L171,35 L167,35 L167,30 z" fill-rule="evenodd" vector-effect="none"/></g><defs><clipPath id="clip296"><path d="M135,21 L175,21 L175,59 L135,59 L135,21 z"/></clipPath></defs><g clip-path="url(#clip296)" fill="#000000" fill-opacity="1" opacity="1" stroke="#000000" stroke-linecap="square" stroke-linejoin="bevel" stroke-opacity="1" stroke-width="1" transform="matrix(1,0,0,1,-47.5,-18.5)"><path d="M167,30 L171,30 L171,35 L167,35 L167,30 z" fill-rule="evenodd" vector-effect="none"/></g><defs><clipPath id="clip297"><path d="M135,21 L175,21 L175,59 L135,59 L135,21 z"/></clipPath></defs><g clip-path="url(#clip297)" fill="#000000" fill-opacity="1" opacity="1" stroke="none" stroke-opacity="0" transform="matrix(1,0,0,1,-48,-19)"><path d="M167,44 L171,44 L171,49 L167,49 L167,44 z" fill-rule="evenodd" vector-effect="none"/></g><defs><clipPath id="clip298"><path d="M135,21 L175,21 L175,59 L135,59 L135,21 z"/></clipPath></defs><g clip-path="url(#clip298)" fill="#000000" fill-opacity="1" opacity="1" stroke="#000000" stroke-linecap="square" stroke-linejoin="bevel" stroke-opacity="1" stroke-width="1" transform="matrix(1,0,0,1,-47.5,-18.5)"><path d="M167,44 L171,44 L171,49 L167,49 L167,44 z" fill-rule="evenodd" vector-effect="none"/></g><defs><clipPath id="clip299"><path d="M135,21 L175,21 L175,59 L135,59 L135,21 z"/></clipPath></defs><g clip-path="url(#clip299)" fill="#000000" fill-opacity="1" opacity="1" stroke="#000000" stroke-linecap="square" stroke-linejoin="bevel" stroke-opacity="1" stroke-width="1" transform="matrix(1,0,0,1,-47.5,-18.5)"><polyline fill="none" points="143,35 167,32" vector-effect="none"/></g><defs><clipPath id="clip300"><path d="M135,21 L175,21 L175,59 L135,59 L135,21 z"/></clipPath></defs><g clip-path="url(#clip300)" fill="#000000" fill-opacity="1" opacity="1" stroke="#000000" stroke-linecap="square" stroke-linejoin="bevel" stroke-opacity="1" stroke-width="1" transform="matrix(1,0,0,1,-47.5,-18.5)"><polyline fill="none" points="143,52 167,47" vector-effect="none"/></g><defs><clipPath id="clip305"><path d="M-87.5,-2.5 L386.5,-2.5 L386.5,166.5 L-87.5,166.5 L-87.5,-2.5 z"/></clipPath></defs><g clip-path="url(#clip305)" fill="none" opacity="1" stroke="#000000" stroke-linecap="butt" stroke-linejoin="miter" stroke-miterlimit="2" stroke-opacity="1" stroke-width="1" transform="matrix(1,0,0,1,87.5,2.5)"><path d="M0,0 L40,0 L40,38 L0,38 L0,0 z" fill-rule="evenodd" vector-effect="none"/></g><defs><clipPath id="clip308"><path d="M-127,-87 L347,-87 L347,82 L-127,82 L-127,-87 z"/></clipPath></defs><g clip-path="url(#clip308)" fill="#ffffff" fill-opacity="1" opacity="1" stroke="none" stroke-opacity="0" transform="matrix(1,0,0,1,127,87)"><path d="M0,0 L40,0 L40,38 L0,38 L0,0 z" fill-rule="evenodd" vector-effect="none"/></g><defs><clipPath id="clip312"><path d="M175,106 L215,106 L215,144 L175,144 L175,106 z"/></clipPath></defs><g clip-path="url(#clip312)" fill="none" opacity="1" stroke="#000000" stroke-linecap="butt" stroke-linejoin="miter" stroke-miterlimit="2" stroke-opacity="1" stroke-width="1" transform="matrix(1,0,0,1,-47.5,-18.5)"><path d="M179,110 L183,110 L183,114 L179,114 L179,110 z" fill-rule="evenodd" vector-effect="none"/></g><defs><clipPath id="clip313"><path d="M175,106 L215,106 L215,144 L175,144 L175,106 z"/></clipPath></defs><g clip-path="url(#clip313)" fill="none" opacity="1" stroke="#000000" stroke-linecap="butt" stroke-linejoin="miter" stroke-miterlimit="2" stroke-opacity="1" stroke-width="1" transform="matrix(1,0,0,1,-47.5,-18.5)"><path d="M179,118 L183,118 L183,122 L179,122 L179,118 z" fill-rule="evenodd" vector-effect="none"/></g><defs><clipPath id="clip314"><path d="M175,106 L215,106 L215,144 L175,144 L175,106 z"/></clipPath></defs><g clip-path="url(#clip314)" fill="none" opacity="1" stroke="#000000" stroke-linecap="butt" stroke-linejoin="miter" stroke-miterlimit="2" stroke-opacity="1" stroke-width="1" transform="matrix(1,0,0,1,-47.5,-18.5)"><path d="M179,127 L183,127 L183,131 L179,131 L179,127 z" fill-rule="evenodd" vector-effect="none"/></g><defs><clipPath id="clip315"><path d="M175,106 L215,106 L215,144 L175,144 L175,106 z"/></clipPath></defs><g clip-path="url(#clip315)" fill="none" opacity="1" stroke="#000000" stroke-linecap="butt" stroke-linejoin="miter" stroke-miterlimit="2" stroke-opacity="1" stroke-width="1" transform="matrix(1,0,0,1,-47.5,-18.5)"><path d="M179,135 L183,135 L183,139 L179,139 L179,135 z" fill-rule="evenodd" vector-effect="none"/></g><defs><clipPath id="clip316"><path d="M175,106 L215,106 L215,144 L175,144 L175,106 z"/></clipPath></defs><g clip-path="url(#clip316)" fill="#000000" fill-opacity="1" opacity="1" stroke="none" stroke-opacity="0" transform="matrix(1,0,0,1,-48,-19)"><path d="M179,127 L183,127 L183,131 L179,131 L179,127 z" fill-rule="evenodd" vector-effect="none"/></g><defs><clipPath id="clip317"><path d="M175,106 L215,106 L215,144 L175,144 L175,106 z"/></clipPath></defs><g clip-path="url(#clip317)" fill="#000000" fill-opacity="1" opacity="1" stroke="#000000" stroke-linecap="square" stroke-linejoin="bevel" stroke-opacity="1" stroke-width="1" transform="matrix(1,0,0,1,-47.5,-18.5)"><path d="M179,127 L183,127 L183,131 L179,131 L179,127 z" fill-rule="evenodd" vector-effect="none"/></g><defs><clipPath id="clip318"><path d="M175,106 L215,106 L215,144 L175,144 L175,106 z"/></clipPath></defs><g clip-path="url(#clip318)" fill="#000000" fill-opacity="1" opacity="1" stroke="none" stroke-opacity="0" transform="matrix(1,0,0,1,-48,-19)"><path d="M207,122 L211,122 L211,127 L207,127 L207,122 z" fill-rule="evenodd" vector-effect="none"/></g><defs><clipPath id="clip319"><path d="M175,106 L215,106 L215,144 L175,144 L175,106 z"/></clipPath></defs><g clip-path="url(#clip319)" fill="#000000" fill-opacity="1" opacity="1" stroke="#000000" stroke-linecap="square" stroke-linejoin="bevel" stroke-opacity="1" stroke-width="1" transform="matrix(1,0,0,1,-47.5,-18.5)"><path d="M207,122 L211,122 L211,127 L207,127 L207,122 z" fill-rule="evenodd" vector-effect="none"/></g><defs><clipPath id="clip320"><path d="M175,106 L215,106 L215,144 L175,144 L175,106 z"/></clipPath></defs><g clip-path="url(#clip320)" fill="#000000" fill-opacity="1" opacity="1" stroke="#000000" stroke-linecap="square" stroke-linejoin="bevel" stroke-opacity="1" stroke-width="1" transform="matrix(1,0,0,1,-47.5,-18.5)"><polyline fill="none" points="183,129 207,125" vector-effect="none"/></g><defs><clipPath id="clip325"><path d="M-127.5,-87.5 L346.5,-87.5 L346.5,81.5 L-127.5,81.5 L-127.5,-87.5 z"/></clipPath></defs><g clip-path="url(#clip325)" fill="none" opacity="1" stroke="#000000" stroke-linecap="butt" stroke-linejoin="miter" stroke-miterlimit="2" stroke-opacity="1" stroke-width="1" transform="matrix(1,0,0,1,127.5,87.5)"><path d="M0,0 L40,0 L40,38 L0,38 L0,0 z" fill-rule="evenodd" vector-effect="none"/></g><defs><clipPath id="clip331"><path d="M0,0 L74,0 L74,14 L0,14 L0,0 z"/></clipPath></defs><g clip-path="url(#clip331)" fill="none" opacity="1" stroke="#000000" stroke-linecap="square" stroke-linejoin="bevel" stroke-opacity="1" stroke-width="1" transform="matrix(1,0,0,1,109.961,127)"><text fill="#000000" fill-opacity="1" font-family="Arial" font-size="10" font-style="normal" font-weight="400" stroke="none" textLength="72.0781" x="1" xml:space="preserve" y="10">Select theta_dot</text></g><defs><clipPath id="clip339"><path d="M-207,-86 L267,-86 L267,83 L-207,83 L-207,-86 z"/></clipPath></defs><g clip-path="url(#clip339)" fill="#ffffff" fill-opacity="1" opacity="1" stroke="none" stroke-opacity="0" transform="matrix(1,0,0,1,207,86)"><path d="M0,0 L55,20 L0,40 L0,0 z" fill-rule="nonzero" vector-effect="none"/></g><defs><clipPath id="clip343"><path d="M0,0 L55,0 L55,40 L0,40 L0,0 z"/></clipPath></defs><g clip-path="url(#clip343)" fill="none" opacity="1" stroke="none" stroke-opacity="0" transform="matrix(1,0,0,1,207,86)"><path d="M0,0 L55,20 L0,40 L0,0 z" fill-rule="nonzero" vector-effect="none"/></g><defs><clipPath id="clip353"><path d="M-1,-2 L40,-2 L40,32 L-1,32 L-1,-2 z"/></clipPath></defs><g clip-path="url(#clip353)" fill="#000000" fill-opacity="1" opacity="1" stroke="none" stroke-opacity="0" transform="matrix(1,0,0,1,211.927,91.9141)"><path d="M1.01562,17.5781 L1.01562,10.4219 L1.96875,10.4219 L1.96875,13.9688 L5.51562,10.4219 L6.79688,10.4219 L3.79688,13.3125 L6.9375,17.5781 L5.6875,17.5781 L3.14062,13.9531 L1.96875,15.0938 L1.96875,17.5781 L1.01562,17.5781 M7.4375,18.0156 L8.29688,18.1406 C8.32812,18.401 8.42708,18.5938 8.59375,18.7188 C8.8125,18.875 9.10938,18.9531 9.48438,18.9531 C9.89062,18.9531 10.2031,18.8724 10.4219,18.7109 C10.6406,18.5495 10.7917,18.3229 10.875,18.0312 C10.9167,17.8542 10.9375,17.4792 10.9375,16.9062 C10.5521,17.3542 10.0729,17.5781 9.5,17.5781 C8.79167,17.5781 8.24219,17.3203 7.85156,16.8047 C7.46094,16.2891 7.26562,15.6719 7.26562,14.9531 C7.26562,14.4635 7.35417,14.0078 7.53125,13.5859 C7.70833,13.1641 7.96615,12.8411 8.30469,12.6172 C8.64323,12.3932 9.04167,12.2812 9.5,12.2812 C10.1146,12.2812 10.6198,12.526 11.0156,13.0156 L11.0156,12.3906 L11.8281,12.3906 L11.8281,16.875 C11.8281,17.6875 11.7474,18.2604 11.5859,18.5938 C11.4245,18.9271 11.1641,19.1927 10.8047,19.3906 C10.4453,19.5885 10.0052,19.6875 9.48438,19.6875 C8.86979,19.6875 8.3724,19.5469 7.99219,19.2656 C7.61198,18.9844 7.42708,18.5677 7.4375,18.0156 M8.15625,14.8906 C8.15625,15.5677 8.29167,16.0625 8.5625,16.375 C8.83333,16.6875 9.17188,16.8438 9.57812,16.8438 C9.98438,16.8438 10.3255,16.6901 10.6016,16.3828 C10.8776,16.0755 11.0156,15.5885 11.0156,14.9219 C11.0156,14.2865 10.875,13.8073 10.5938,13.4844 C10.3125,13.1615 9.96875,13 9.5625,13 C9.17708,13 8.84635,13.1589 8.57031,13.4766 C8.29427,13.7943 8.15625,14.2656 8.15625,14.8906 M12.7969,11.7344 L13.0156,11.0469 C13.5365,11.224 13.9167,11.3802 14.1562,11.5156 C14.0938,10.9219 14.0573,10.5156 14.0469,10.2969 L14.7656,10.2969 C14.7552,10.6198 14.7135,11.026 14.6406,11.5156 C14.9844,11.3385 15.3698,11.1823 15.7969,11.0469 L16.0312,11.7344 C15.6146,11.8698 15.2083,11.9583 14.8125,12 C15.0104,12.1771 15.2917,12.4844 15.6562,12.9219 L15.0625,13.3438 C14.875,13.0833 14.651,12.7344 14.3906,12.2969 C14.151,12.7552 13.9427,13.1042 13.7656,13.3438 L13.1875,12.9219 C13.5625,12.4635 13.8333,12.1562 14,12 C13.5729,11.9271 13.1719,11.8385 12.7969,11.7344 M17.0469,17.5781 L17.0469,10.4219 L17.9219,10.4219 L17.9219,14.5 L20,12.3906 L21.1406,12.3906 L19.1562,14.3125 L21.3438,17.5781 L20.25,17.5781 L18.5312,14.9219 L17.9219,15.5156 L17.9219,17.5781 L17.0469,17.5781 M22.0312,17.5781 L22.0312,12.3906 L22.8281,12.3906 L22.8281,13.125 C22.9844,12.8646 23.1979,12.6589 23.4688,12.5078 C23.7396,12.3568 24.0469,12.2812 24.3906,12.2812 C24.776,12.2812 25.0911,12.3594 25.3359,12.5156 C25.5807,12.6719 25.7552,12.8958 25.8594,13.1875 C26.2656,12.5833 26.7969,12.2812 27.4531,12.2812 C27.974,12.2812 28.3724,12.4219 28.6484,12.7031 C28.9245,12.9844 29.0625,13.4219 29.0625,14.0156 L29.0625,17.5781 L28.1875,17.5781 L28.1875,14.3125 C28.1875,13.9583 28.1589,13.7031 28.1016,13.5469 C28.0443,13.3906 27.9401,13.2656 27.7891,13.1719 C27.638,13.0781 27.4635,13.0312 27.2656,13.0312 C26.901,13.0312 26.599,13.1536 26.3594,13.3984 C26.1198,13.6432 26,14.0312 26,14.5625 L26,17.5781 L25.1094,17.5781 L25.1094,14.2031 C25.1094,13.8177 25.0391,13.526 24.8984,13.3281 C24.7578,13.1302 24.526,13.0312 24.2031,13.0312 C23.9531,13.0312 23.724,13.0964 23.5156,13.2266 C23.3073,13.3568 23.1536,13.5469 23.0547,13.7969 C22.9557,14.0469 22.9062,14.4115 22.9062,14.8906 L22.9062,17.5781 L22.0312,17.5781" fill-rule="nonzero" vector-effect="none"/></g><defs><clipPath id="clip373"><path d="M-207.5,-86.5 L266.5,-86.5 L266.5,82.5 L-207.5,82.5 L-207.5,-86.5 z"/></clipPath></defs><g clip-path="url(#clip373)" fill="none" opacity="1" stroke="#000000" stroke-linecap="butt" stroke-linejoin="miter" stroke-miterlimit="2" stroke-opacity="1" stroke-width="1" transform="matrix(1,0,0,1,207.5,86.5)"><path d="M0,0 L55,20 L0,40 L0,0 z" fill-rule="nonzero" vector-effect="none"/></g><defs><clipPath id="clip376"><path d="M-2,-14 L472,-14 L472,155 L-2,155 L-2,-14 z"/></clipPath></defs><g clip-path="url(#clip376)" fill="#ffffff" fill-opacity="1" opacity="1" stroke="none" stroke-opacity="0" transform="matrix(1,0,0,1,2,14)"><path d="M7,0 L23,0 C26.866,0 30,3.13401 30,7 C30,10.866 26.866,14 23,14 L7,14 C3.13401,14 0,10.866 0,7 C0,3.13401 3.13401,0 7,0 z" fill-rule="nonzero" vector-effect="none"/></g><defs><clipPath id="clip380"><path d="M-15,-7 L15,-7 L15,7 L-15,7 L-15,-7 z"/></clipPath></defs><g clip-path="url(#clip380)" fill="none" opacity="1" stroke="#000000" stroke-linecap="butt" stroke-linejoin="miter" stroke-miterlimit="2" stroke-opacity="1" stroke-width="1" transform="matrix(1,0,0,1,17,21)"><text fill="#000000" fill-opacity="1" font-family="Arial" font-size="10" font-style="normal" font-weight="400" stroke="none" textLength="5.54688" x="-2.76562" xml:space="preserve" y="3.5">1</text></g><defs><clipPath id="clip385"><path d="M-2.5,-14.5 L471.5,-14.5 L471.5,154.5 L-2.5,154.5 L-2.5,-14.5 z"/></clipPath></defs><g clip-path="url(#clip385)" fill="none" opacity="1" stroke="#000000" stroke-linecap="butt" stroke-linejoin="miter" stroke-miterlimit="2" stroke-opacity="1" stroke-width="1" transform="matrix(1,0,0,1,2.5,14.5)"><path d="M7,0 L23,0 C26.866,0 30,3.13401 30,7 C30,10.866 26.866,14 23,14 L7,14 C3.13401,14 0,10.866 0,7 C0,3.13401 3.13401,0 7,0 z" fill-rule="nonzero" vector-effect="none"/></g><defs><clipPath id="clip391"><path d="M0,0 L7,0 L7,14 L0,14 L0,0 z"/></clipPath></defs><g clip-path="url(#clip391)" fill="none" opacity="1" stroke="#000000" stroke-linecap="square" stroke-linejoin="bevel" stroke-opacity="1" stroke-width="1" transform="matrix(1,0,0,1,13.5,30)"><text fill="#000000" fill-opacity="1" font-family="Arial" font-size="10" font-style="normal" font-weight="400" stroke="none" textLength="5" x="1" xml:space="preserve" y="10">x</text></g><defs><clipPath id="clip399"><path d="M-2,-44 L472,-44 L472,125 L-2,125 L-2,-44 z"/></clipPath></defs><g clip-path="url(#clip399)" fill="#ffffff" fill-opacity="1" opacity="1" stroke="none" stroke-opacity="0" transform="matrix(1,0,0,1,2,44)"><path d="M7,0 L23,0 C26.866,0 30,3.13401 30,7 C30,10.866 26.866,14 23,14 L7,14 C3.13401,14 0,10.866 0,7 C0,3.13401 3.13401,0 7,0 z" fill-rule="nonzero" vector-effect="none"/></g><defs><clipPath id="clip403"><path d="M-15,-7 L15,-7 L15,7 L-15,7 L-15,-7 z"/></clipPath></defs><g clip-path="url(#clip403)" fill="none" opacity="1" stroke="#000000" stroke-linecap="butt" stroke-linejoin="miter" stroke-miterlimit="2" stroke-opacity="1" stroke-width="1" transform="matrix(1,0,0,1,17,51)"><text fill="#000000" fill-opacity="1" font-family="Arial" font-size="10" font-style="normal" font-weight="400" stroke="none" textLength="5.54688" x="-2.76562" xml:space="preserve" y="3.5">2</text></g><defs><clipPath id="clip408"><path d="M-2.5,-44.5 L471.5,-44.5 L471.5,124.5 L-2.5,124.5 L-2.5,-44.5 z"/></clipPath></defs><g clip-path="url(#clip408)" fill="none" opacity="1" stroke="#000000" stroke-linecap="butt" stroke-linejoin="miter" stroke-miterlimit="2" stroke-opacity="1" stroke-width="1" transform="matrix(1,0,0,1,2.5,44.5)"><path d="M7,0 L23,0 C26.866,0 30,3.13401 30,7 C30,10.866 26.866,14 23,14 L7,14 C3.13401,14 0,10.866 0,7 C0,3.13401 3.13401,0 7,0 z" fill-rule="nonzero" vector-effect="none"/></g><defs><clipPath id="clip414"><path d="M0,0 L26,0 L26,14 L0,14 L0,0 z"/></clipPath></defs><g clip-path="url(#clip414)" fill="none" opacity="1" stroke="#000000" stroke-linecap="square" stroke-linejoin="bevel" stroke-opacity="1" stroke-width="1" transform="matrix(1,0,0,1,3.78906,60)"><text fill="#000000" fill-opacity="1" font-family="Arial" font-size="10" font-style="normal" font-weight="400" stroke="none" textLength="24.4219" x="1" xml:space="preserve" y="10">uMax</text></g><defs><clipPath id="clip422"><path d="M-272,-144 L202,-144 L202,25 L-272,25 L-272,-144 z"/></clipPath></defs><g clip-path="url(#clip422)" fill="#ffffff" fill-opacity="1" opacity="1" stroke="none" stroke-opacity="0" transform="matrix(1,0,0,1,272,144)"><path d="M23,14 L7,14 C3.13401,14 0,10.866 0,7 C0,3.13401 3.13401,0 7,0 L23,0 C26.866,0 30,3.13401 30,7 C30,10.866 26.866,14 23,14 z" fill-rule="nonzero" vector-effect="none"/></g><defs><clipPath id="clip426"><path d="M-15,-7 L15,-7 L15,7 L-15,7 L-15,-7 z"/></clipPath></defs><g clip-path="url(#clip426)" fill="none" opacity="1" stroke="#000000" stroke-linecap="butt" stroke-linejoin="miter" stroke-miterlimit="2" stroke-opacity="1" stroke-width="1" transform="matrix(1,0,0,1,287,151)"><text fill="#000000" fill-opacity="1" font-family="Arial" font-size="10" font-style="normal" font-weight="400" stroke="none" textLength="5.54688" x="-2.76562" xml:space="preserve" y="3.5">1</text></g><defs><clipPath id="clip431"><path d="M-272.5,-144.5 L201.5,-144.5 L201.5,24.5 L-272.5,24.5 L-272.5,-144.5 z"/></clipPath></defs><g clip-path="url(#clip431)" fill="none" opacity="1" stroke="#000000" stroke-linecap="butt" stroke-linejoin="miter" stroke-miterlimit="2" stroke-opacity="1" stroke-width="1" transform="matrix(1,0,0,1,272.5,144.5)"><path d="M23,14 L7,14 C3.13401,14 0,10.866 0,7 C0,3.13401 3.13401,0 7,0 L23,0 C26.866,0 30,3.13401 30,7 C30,10.866 26.866,14 23,14 z" fill-rule="nonzero" vector-effect="none"/></g><defs><clipPath id="clip437"><path d="M0,0 L8,0 L8,14 L0,14 L0,0 z"/></clipPath></defs><g clip-path="url(#clip437)" fill="none" opacity="1" stroke="#000000" stroke-linecap="square" stroke-linejoin="bevel" stroke-opacity="1" stroke-width="1" transform="matrix(1,0,0,1,283.227,128)"><text fill="#000000" fill-opacity="1" font-family="Arial" font-size="10" font-style="normal" font-weight="400" stroke="none" textLength="5.54688" x="1" xml:space="preserve" y="10">u</text></g><defs><clipPath id="clip445"><path d="M-282,-21 L192,-21 L192,148 L-282,148 L-282,-21 z"/></clipPath></defs><g clip-path="url(#clip445)" fill="#ffffff" fill-opacity="1" opacity="1" stroke="none" stroke-opacity="0" transform="matrix(1,0,0,1,282,21)"><path d="M0,0 L55,15 L0,30 L0,0 z" fill-rule="nonzero" vector-effect="none"/></g><defs><clipPath id="clip449"><path d="M0,0 L55,0 L55,30 L0,30 L0,0 z"/></clipPath></defs><g clip-path="url(#clip449)" fill="none" opacity="1" stroke="none" stroke-opacity="0" transform="matrix(1,0,0,1,282,21)"><path d="M0,0 L55,15 L0,30 L0,0 z" fill-rule="nonzero" vector-effect="none"/></g><defs><clipPath id="clip459"><path d="M4,-1 L43,-1 L43,29 L4,29 L4,-1 z"/></clipPath></defs><g clip-path="url(#clip459)" fill="#000000" fill-opacity="1" opacity="1" stroke="none" stroke-opacity="0" transform="matrix(1,0,0,1,284.402,21.9141)"><path d="M5.29688,15.5469 L6.15625,15.4219 C6.17708,15.974 6.27865,16.3516 6.46094,16.5547 C6.64323,16.7578 6.89583,16.8594 7.21875,16.8594 C7.45833,16.8594 7.66406,16.8047 7.83594,16.6953 C8.00781,16.5859 8.1276,16.4375 8.19531,16.25 C8.26302,16.0625 8.29688,15.7604 8.29688,15.3438 L8.29688,10.4219 L9.23438,10.4219 L9.23438,15.2969 C9.23438,15.901 9.16406,16.3672 9.02344,16.6953 C8.88281,17.0234 8.65365,17.2734 8.33594,17.4453 C8.01823,17.6172 7.65104,17.7031 7.23438,17.7031 C6.59896,17.7031 6.11458,17.5208 5.78125,17.1562 C5.44792,16.7917 5.28646,16.2552 5.29688,15.5469 M10.6719,17.5781 L10.6719,12.3906 L11.4531,12.3906 L11.4531,13.1719 C11.6615,12.8073 11.849,12.5677 12.0156,12.4531 C12.1823,12.3385 12.3698,12.2812 12.5781,12.2812 C12.8802,12.2812 13.1823,12.375 13.4844,12.5625 L13.1875,13.375 C12.9688,13.25 12.75,13.1875 12.5312,13.1875 C12.3438,13.1875 12.1719,13.2448 12.0156,13.3594 C11.8594,13.474 11.75,13.6354 11.6875,13.8438 C11.5938,14.1562 11.5469,14.4948 11.5469,14.8594 L11.5469,17.5781 L10.6719,17.5781 M13.3438,17.7031 L15.4219,10.2969 L16.125,10.2969 L14.0469,17.7031 L13.3438,17.7031 M16.8438,17.5781 L16.8438,10.4219 L17.7969,10.4219 L17.7969,16.7344 L21.3125,16.7344 L21.3125,17.5781 L16.8438,17.5781 M22.3125,17.5781 L22.3125,12.3906 L23.0938,12.3906 L23.0938,13.1719 C23.3021,12.8073 23.4896,12.5677 23.6562,12.4531 C23.8229,12.3385 24.0104,12.2812 24.2188,12.2812 C24.5208,12.2812 24.8229,12.375 25.125,12.5625 L24.8281,13.375 C24.6094,13.25 24.3906,13.1875 24.1719,13.1875 C23.9844,13.1875 23.8125,13.2448 23.6562,13.3594 C23.5,13.474 23.3906,13.6354 23.3281,13.8438 C23.2344,14.1562 23.1875,14.4948 23.1875,14.8594 L23.1875,17.5781 L22.3125,17.5781" fill-rule="nonzero" vector-effect="none"/></g><defs><clipPath id="clip479"><path d="M-282.5,-21.5 L191.5,-21.5 L191.5,147.5 L-282.5,147.5 L-282.5,-21.5 z"/></clipPath></defs><g clip-path="url(#clip479)" fill="none" opacity="1" stroke="#000000" stroke-linecap="butt" stroke-linejoin="miter" stroke-miterlimit="2" stroke-opacity="1" stroke-width="1" transform="matrix(1,0,0,1,282.5,21.5)"><path d="M0,0 L55,15 L0,30 L0,0 z" fill-rule="nonzero" vector-effect="none"/></g><defs><clipPath id="clip482"><path d="M-352,-136 L122,-136 L122,33 L-352,33 L-352,-136 z"/></clipPath></defs><g clip-path="url(#clip482)" fill="#ffffff" fill-opacity="1" opacity="1" stroke="none" stroke-opacity="0" transform="matrix(1,0,0,1,352,136)"><path d="M0,0 L30,0 L30,30 L0,30 L0,0 z" fill-rule="evenodd" vector-effect="none"/></g><defs><clipPath id="clip486"><path d="M0,0 L31,0 L31,31 L0,31 L0,0 z"/></clipPath></defs><g clip-path="url(#clip486)" fill="none" opacity="1" stroke="none" stroke-opacity="0" transform="matrix(1,0,0,1,352,136)"><path d="M0,0 L31,0 L31,31 L0,31 L0,0 z" fill-rule="evenodd" vector-effect="none"/></g><defs><clipPath id="clip496"><path d="M1,1 L31,1 L31,31 L1,31 L1,1 z"/></clipPath></defs><g clip-path="url(#clip496)" fill="none" opacity="1" stroke="#ababab" stroke-linecap="round" stroke-linejoin="round" stroke-opacity="1" stroke-width="1" transform="matrix(1,0,0,1,351,135)"><path d="M3.5,16.5 L29.5,16.5" fill-rule="nonzero" vector-effect="none"/></g><defs><clipPath id="clip497"><path d="M1,1 L31,1 L31,31 L1,31 L1,1 z"/></clipPath></defs><g clip-path="url(#clip497)" fill="none" opacity="1" stroke="#ababab" stroke-linecap="round" stroke-linejoin="round" stroke-opacity="1" stroke-width="1" transform="matrix(1,0,0,1,351,135)"><path d="M16.5,3.5 L16.5,29.5" fill-rule="nonzero" vector-effect="none"/></g><defs><clipPath id="clip498"><path d="M1,1 L31,1 L31,31 L1,31 L1,1 z"/></clipPath></defs><g clip-path="url(#clip498)" fill="none" opacity="1" stroke="#000000" stroke-linecap="round" stroke-linejoin="round" stroke-opacity="1" stroke-width="1" transform="matrix(1,0,0,1,351,135)"><path d="M4.5,25.5 L11.5,25.5 L21.5,6.5 L28.5,6.5" fill-rule="nonzero" vector-effect="none"/></g><defs><clipPath id="clip518"><path d="M-352.5,-136.5 L121.5,-136.5 L121.5,32.5 L-352.5,32.5 L-352.5,-136.5 z"/></clipPath></defs><g clip-path="url(#clip518)" fill="none" opacity="1" stroke="#000000" stroke-linecap="butt" stroke-linejoin="miter" stroke-miterlimit="2" stroke-opacity="1" stroke-width="1" transform="matrix(1,0,0,1,352.5,136.5)"><path d="M0,0 L30,0 L30,30 L0,30 L0,0 z" fill-rule="evenodd" vector-effect="none"/></g><defs><clipPath id="clip524"><path d="M0,0 L61,0 L61,14 L0,14 L0,0 z"/></clipPath></defs><g clip-path="url(#clip524)" fill="none" opacity="1" stroke="#000000" stroke-linecap="square" stroke-linejoin="bevel" stroke-opacity="1" stroke-width="1" transform="matrix(1,0,0,1,336.602,120)"><text fill="#000000" fill-opacity="1" font-family="Arial" font-size="10" font-style="normal" font-weight="400" stroke="none" textLength="58.7969" x="1" xml:space="preserve" y="10">Voltage limits</text></g><defs><clipPath id="clip532"><path d="M-452,-96 L22,-96 L22,73 L-452,73 L-452,-96 z"/></clipPath></defs><g clip-path="url(#clip532)" fill="#ffffff" fill-opacity="1" opacity="1" stroke="none" stroke-opacity="0" transform="matrix(1,0,0,1,452,96)"><path d="M10,20 C4.47715,20 0,15.5228 0,10 C0,4.47715 4.47715,9.505e-16 10,6.12323e-16 C15.5228,2.74147e-16 20,4.47715 20,10 C20,15.5228 15.5228,20 10,20 z" fill-rule="nonzero" vector-effect="none"/></g><defs><clipPath id="clip536"><path d="M500,115 L520,115 L520,135 L500,135 L500,115 z"/></clipPath></defs><g clip-path="url(#clip536)" fill="none" opacity="1" stroke="#000000" stroke-linecap="butt" stroke-linejoin="miter" stroke-miterlimit="2" stroke-opacity="1" stroke-width="1" transform="matrix(1,0,0,1,-47.5,-18.5)"><polyline fill="none" points="503,125 507,125" vector-effect="none"/></g><defs><clipPath id="clip537"><path d="M500,115 L520,115 L520,135 L500,135 L500,115 z"/></clipPath></defs><g clip-path="url(#clip537)" fill="none" opacity="1" stroke="#000000" stroke-linecap="butt" stroke-linejoin="miter" stroke-miterlimit="2" stroke-opacity="1" stroke-width="1" transform="matrix(1,0,0,1,-47.5,-18.5)"><polyline fill="none" points="505,123 505,127" vector-effect="none"/></g><defs><clipPath id="clip538"><path d="M500,115 L520,115 L520,135 L500,135 L500,115 z"/></clipPath></defs><g clip-path="url(#clip538)" fill="none" opacity="1" stroke="#000000" stroke-linecap="butt" stroke-linejoin="miter" stroke-miterlimit="2" stroke-opacity="1" stroke-width="1" transform="matrix(1,0,0,1,-47.5,-18.5)"><polyline fill="none" points="508,120 512,120" vector-effect="none"/></g><defs><clipPath id="clip539"><path d="M500,115 L520,115 L520,135 L500,135 L500,115 z"/></clipPath></defs><g clip-path="url(#clip539)" fill="none" opacity="1" stroke="#000000" stroke-linecap="butt" stroke-linejoin="miter" stroke-miterlimit="2" stroke-opacity="1" stroke-width="1" transform="matrix(1,0,0,1,-47.5,-18.5)"><polyline fill="none" points="510,118 510,122" vector-effect="none"/></g><defs><clipPath id="clip544"><path d="M-452.5,-96.5 L21.5,-96.5 L21.5,72.5 L-452.5,72.5 L-452.5,-96.5 z"/></clipPath></defs><g clip-path="url(#clip544)" fill="none" opacity="1" stroke="#000000" stroke-linecap="butt" stroke-linejoin="miter" stroke-miterlimit="2" stroke-opacity="1" stroke-width="1" transform="matrix(1,0,0,1,452.5,96.5)"><path d="M10,20 C4.47715,20 0,15.5228 0,10 C0,4.47715 4.47715,9.505e-16 10,6.12323e-16 C15.5228,2.74147e-16 20,4.47715 20,10 C20,15.5228 15.5228,20 10,20 z" fill-rule="nonzero" vector-effect="none"/></g><defs><clipPath id="clip547"><path d="M-282,-36 L192,-36 L192,133 L-282,133 L-282,-36 z"/></clipPath></defs><g clip-path="url(#clip547)" fill="#000000" fill-opacity="1" opacity="1" stroke="none" stroke-opacity="0" transform="matrix(1,0,0,1,282,36)"><path d="M0,0 L-8,-4 L-8,4 L0,0 z" fill-rule="nonzero" vector-effect="none"/></g><defs><clipPath id="clip550"><path d="M48,19 L522,19 L522,188 L48,188 L48,19 z"/></clipPath></defs><g clip-path="url(#clip550)" fill="none" opacity="1" stroke="#000000" stroke-linecap="butt" stroke-linejoin="miter" stroke-miterlimit="2" stroke-opacity="1" stroke-width="1" transform="matrix(1,0,0,1,-48,-19)"><path d="M300.5,55.5 L322.5,55.5" fill-rule="evenodd" vector-effect="none"/></g><defs><clipPath id="clip553"><path d="M-157,-21 L317,-21 L317,148 L-157,148 L-157,-21 z"/></clipPath></defs><g clip-path="url(#clip553)" fill="#000000" fill-opacity="1" opacity="1" stroke="none" stroke-opacity="0" transform="matrix(1,0,0,1,157,21)"><path d="M0,0 L-8,-4 L-8,4 L0,0 z" fill-rule="nonzero" vector-effect="none"/></g><defs><clipPath id="clip556"><path d="M48,19 L522,19 L522,188 L48,188 L48,19 z"/></clipPath></defs><g clip-path="url(#clip556)" fill="none" opacity="1" stroke="#000000" stroke-linecap="butt" stroke-linejoin="miter" stroke-miterlimit="2" stroke-opacity="1" stroke-width="1" transform="matrix(1,0,0,1,-48,-19)"><path d="M175.5,40.5 L197.5,40.5" fill-rule="evenodd" vector-effect="none"/></g><defs><clipPath id="clip559"><path d="M48,19 L522,19 L522,188 L48,188 L48,19 z"/></clipPath></defs><g clip-path="url(#clip559)" fill="none" opacity="1" stroke="#000000" stroke-linecap="butt" stroke-linejoin="miter" stroke-miterlimit="2" stroke-opacity="1" stroke-width="1" transform="matrix(1,0,0,1,-48,-19)"><path d="M80.5,40.5 L113.5,40.5" fill-rule="evenodd" vector-effect="none"/></g><defs><clipPath id="clip564"><path d="M-127,-106 L347,-106 L347,63 L-127,63 L-127,-106 z"/></clipPath></defs><g clip-path="url(#clip564)" fill="#000000" fill-opacity="1" opacity="1" stroke="none" stroke-opacity="0" transform="matrix(1,0,0,1,127,106)"><path d="M0,0 L-8,-4 L-8,4 L0,0 z" fill-rule="nonzero" vector-effect="none"/></g><defs><clipPath id="clip567"><path d="M48,19 L522,19 L522,188 L48,188 L48,19 z"/></clipPath></defs><g clip-path="url(#clip567)" fill="none" opacity="1" stroke="#000000" stroke-linecap="butt" stroke-linejoin="miter" stroke-miterlimit="2" stroke-opacity="1" stroke-width="1" transform="matrix(1,0,0,1,-48,-19)"><path d="M113.5,40.5 L113.5,70 M113.5,71 L113.5,125.5 L167.5,125.5" fill-rule="evenodd" vector-effect="none"/><polyline fill="none" points="113.5,65 113.5,66" vector-effect="none"/></g><defs><clipPath id="clip568"><path d="M48,19 L522,19 L522,188 L48,188 L48,19 z"/></clipPath></defs><g clip-path="url(#clip568)" fill="none" opacity="1" stroke="#2e2e2e" stroke-linecap="butt" stroke-linejoin="miter" stroke-miterlimit="2" stroke-opacity="1" stroke-width="1" transform="matrix(1,0,0,1,-48,-19)"><polyline fill="none" points="113.5,66 113.5,67" vector-effect="none"/></g><defs><clipPath id="clip569"><path d="M48,19 L522,19 L522,188 L48,188 L48,19 z"/></clipPath></defs><g clip-path="url(#clip569)" fill="none" opacity="1" stroke="#5d5d5d" stroke-linecap="butt" stroke-linejoin="miter" stroke-miterlimit="2" stroke-opacity="1" stroke-width="1" transform="matrix(1,0,0,1,-48,-19)"><polyline fill="none" points="113.5,67 113.5,68" vector-effect="none"/></g><defs><clipPath id="clip570"><path d="M48,19 L522,19 L522,188 L48,188 L48,19 z"/></clipPath></defs><g clip-path="url(#clip570)" fill="none" opacity="1" stroke="#8b8b8b" stroke-linecap="butt" stroke-linejoin="miter" stroke-miterlimit="2" stroke-opacity="1" stroke-width="1" transform="matrix(1,0,0,1,-48,-19)"><polyline fill="none" points="113.5,68 113.5,69" vector-effect="none"/></g><defs><clipPath id="clip571"><path d="M48,19 L522,19 L522,188 L48,188 L48,19 z"/></clipPath></defs><g clip-path="url(#clip571)" fill="none" opacity="1" stroke="#b9b9b9" stroke-linecap="butt" stroke-linejoin="miter" stroke-miterlimit="2" stroke-opacity="1" stroke-width="1" transform="matrix(1,0,0,1,-48,-19)"><polyline fill="none" points="113.5,69 113.5,70" vector-effect="none"/></g><defs><clipPath id="clip572"><path d="M48,19 L522,19 L522,188 L48,188 L48,19 z"/></clipPath></defs><g clip-path="url(#clip572)" fill="none" opacity="1" stroke="#000000" stroke-linecap="butt" stroke-linejoin="miter" stroke-miterlimit="2" stroke-opacity="1" stroke-width="1" transform="matrix(1,0,0,1,-48,-19)"><polyline fill="none" points="113.5,76 113.5,75" vector-effect="none"/></g><defs><clipPath id="clip573"><path d="M48,19 L522,19 L522,188 L48,188 L48,19 z"/></clipPath></defs><g clip-path="url(#clip573)" fill="none" opacity="1" stroke="#2e2e2e" stroke-linecap="butt" stroke-linejoin="miter" stroke-miterlimit="2" stroke-opacity="1" stroke-width="1" transform="matrix(1,0,0,1,-48,-19)"><polyline fill="none" points="113.5,75 113.5,74" vector-effect="none"/></g><defs><clipPath id="clip574"><path d="M48,19 L522,19 L522,188 L48,188 L48,19 z"/></clipPath></defs><g clip-path="url(#clip574)" fill="none" opacity="1" stroke="#5d5d5d" stroke-linecap="butt" stroke-linejoin="miter" stroke-miterlimit="2" stroke-opacity="1" stroke-width="1" transform="matrix(1,0,0,1,-48,-19)"><polyline fill="none" points="113.5,74 113.5,73" vector-effect="none"/></g><defs><clipPath id="clip575"><path d="M48,19 L522,19 L522,188 L48,188 L48,19 z"/></clipPath></defs><g clip-path="url(#clip575)" fill="none" opacity="1" stroke="#8b8b8b" stroke-linecap="butt" stroke-linejoin="miter" stroke-miterlimit="2" stroke-opacity="1" stroke-width="1" transform="matrix(1,0,0,1,-48,-19)"><polyline fill="none" points="113.5,73 113.5,72" vector-effect="none"/></g><defs><clipPath id="clip576"><path d="M48,19 L522,19 L522,188 L48,188 L48,19 z"/></clipPath></defs><g clip-path="url(#clip576)" fill="none" opacity="1" stroke="#b9b9b9" stroke-linecap="butt" stroke-linejoin="miter" stroke-miterlimit="2" stroke-opacity="1" stroke-width="1" transform="matrix(1,0,0,1,-48,-19)"><polyline fill="none" points="113.5,72 113.5,71" vector-effect="none"/></g><defs><clipPath id="clip579"><path d="M-87,-21 L387,-21 L387,148 L-87,148 L-87,-21 z"/></clipPath></defs><g clip-path="url(#clip579)" fill="#000000" fill-opacity="1" opacity="1" stroke="none" stroke-opacity="0" transform="matrix(1,0,0,1,87,21)"><path d="M0,0 L-8,-4 L-8,4 L0,0 z" fill-rule="nonzero" vector-effect="none"/></g><defs><clipPath id="clip582"><path d="M48,19 L522,19 L522,188 L48,188 L48,19 z"/></clipPath></defs><g clip-path="url(#clip582)" fill="none" opacity="1" stroke="#000000" stroke-linecap="butt" stroke-linejoin="miter" stroke-miterlimit="2" stroke-opacity="1" stroke-width="1" transform="matrix(1,0,0,1,-48,-19)"><path d="M113.5,40.5 L127.5,40.5" fill-rule="evenodd" vector-effect="none"/></g><defs><clipPath id="clip585"><path d="M-65,-21 L409,-21 L409,148 L-65,148 L-65,-21 z"/></clipPath></defs><g clip-path="url(#clip585)" fill="#000000" fill-opacity="1" opacity="1" stroke="none" stroke-opacity="0" transform="matrix(1,0,0,1,65,21)"><path d="M3,0.5 C3,1.88071 1.88071,3 0.5,3 C-0.880712,3 -2,1.88071 -2,0.5 C-2,-0.880712 -0.880712,-2 0.5,-2 C1.88071,-2 3,-0.880712 3,0.5 z" fill-rule="evenodd" vector-effect="none"/></g><defs><clipPath id="clip588"><path d="M-367,-36 L107,-36 L107,133 L-367,133 L-367,-36 z"/></clipPath></defs><g clip-path="url(#clip588)" fill="#000000" fill-opacity="1" opacity="1" stroke="none" stroke-opacity="0" transform="matrix(1,0,0,1,367,36)"><path d="M0,0 L-8,-4 L-8,4 L0,0 z" fill-rule="nonzero" vector-effect="none"/></g><defs><clipPath id="clip591"><path d="M48,19 L522,19 L522,188 L48,188 L48,19 z"/></clipPath></defs><g clip-path="url(#clip591)" fill="none" opacity="1" stroke="#000000" stroke-linecap="butt" stroke-linejoin="miter" stroke-miterlimit="2" stroke-opacity="1" stroke-width="1" transform="matrix(1,0,0,1,-48,-19)"><path d="M385.5,55.5 L407.5,55.5" fill-rule="evenodd" vector-effect="none"/></g><defs><clipPath id="clip594"><path d="M-157,-51 L317,-51 L317,118 L-157,118 L-157,-51 z"/></clipPath></defs><g clip-path="url(#clip594)" fill="#000000" fill-opacity="1" opacity="1" stroke="none" stroke-opacity="0" transform="matrix(1,0,0,1,157,51)"><path d="M0,0 L-8,-4 L-8,4 L0,0 z" fill-rule="nonzero" vector-effect="none"/></g><defs><clipPath id="clip597"><path d="M48,19 L522,19 L522,188 L48,188 L48,19 z"/></clipPath></defs><g clip-path="url(#clip597)" fill="none" opacity="1" stroke="#000000" stroke-linecap="butt" stroke-linejoin="miter" stroke-miterlimit="2" stroke-opacity="1" stroke-width="1" transform="matrix(1,0,0,1,-48,-19)"><path d="M80.5,70.5 L197.5,70.5" fill-rule="evenodd" vector-effect="none"/></g><defs><clipPath id="clip600"><path d="M-207,-106 L267,-106 L267,63 L-207,63 L-207,-106 z"/></clipPath></defs><g clip-path="url(#clip600)" fill="#000000" fill-opacity="1" opacity="1" stroke="none" stroke-opacity="0" transform="matrix(1,0,0,1,207,106)"><path d="M0,0 L-8,-4 L-8,4 L0,0 z" fill-rule="nonzero" vector-effect="none"/></g><defs><clipPath id="clip603"><path d="M48,19 L522,19 L522,188 L48,188 L48,19 z"/></clipPath></defs><g clip-path="url(#clip603)" fill="none" opacity="1" stroke="#000000" stroke-linecap="butt" stroke-linejoin="miter" stroke-miterlimit="2" stroke-opacity="1" stroke-width="1" transform="matrix(1,0,0,1,-48,-19)"><path d="M215.5,125.5 L247.5,125.5" fill-rule="evenodd" vector-effect="none"/></g><defs><clipPath id="clip606"><path d="M302,151 L-172,151 L-172,-18 L302,-18 L302,151 z"/></clipPath></defs><g clip-path="url(#clip606)" fill="#000000" fill-opacity="1" opacity="1" stroke="none" stroke-opacity="0" transform="matrix(-1,1.22465e-16,-1.22465e-16,-1,302,151)"><path d="M0,0 L-8,-4 L-8,4 L0,0 z" fill-rule="nonzero" vector-effect="none"/></g><defs><clipPath id="clip609"><path d="M48,19 L522,19 L522,188 L48,188 L48,19 z"/></clipPath></defs><g clip-path="url(#clip609)" fill="none" opacity="1" stroke="#000000" stroke-linecap="butt" stroke-linejoin="miter" stroke-miterlimit="2" stroke-opacity="1" stroke-width="1" transform="matrix(1,0,0,1,-48,-19)"><path d="M400.5,170.5 L358.5,170.5" fill-rule="evenodd" vector-effect="none"/></g><defs><clipPath id="clip612"><path d="M-452,-106 L22,-106 L22,63 L-452,63 L-452,-106 z"/></clipPath></defs><g clip-path="url(#clip612)" fill="#000000" fill-opacity="1" opacity="1" stroke="none" stroke-opacity="0" transform="matrix(1,0,0,1,452,106)"><path d="M0,0 L-8,-4 L-8,4 L0,0 z" fill-rule="nonzero" vector-effect="none"/></g><defs><clipPath id="clip615"><path d="M48,19 L522,19 L522,188 L48,188 L48,19 z"/></clipPath></defs><g clip-path="url(#clip615)" fill="none" opacity="1" stroke="#000000" stroke-linecap="butt" stroke-linejoin="miter" stroke-miterlimit="2" stroke-opacity="1" stroke-width="1" transform="matrix(1,0,0,1,-48,-19)"><path d="M310.5,125.5 L492.5,125.5" fill-rule="evenodd" vector-effect="none"/></g><defs><clipPath id="clip618"><path d="M-96,462 L-96,-12 L73,-12 L73,462 L-96,462 z"/></clipPath></defs><g clip-path="url(#clip618)" fill="#000000" fill-opacity="1" opacity="1" stroke="none" stroke-opacity="0" transform="matrix(6.12323e-17,1,-1,6.12323e-17,462,96)"><path d="M0,0 L-8,-4 L-8,4 L0,0 z" fill-rule="nonzero" vector-effect="none"/></g><defs><clipPath id="clip621"><path d="M48,19 L522,19 L522,188 L48,188 L48,19 z"/></clipPath></defs><g clip-path="url(#clip621)" fill="none" opacity="1" stroke="#000000" stroke-linecap="butt" stroke-linejoin="miter" stroke-miterlimit="2" stroke-opacity="1" stroke-width="1" transform="matrix(1,0,0,1,-48,-19)"><path d="M505.5,55.5 L510.5,55.5 L510.5,107.5" fill-rule="evenodd" vector-effect="none"/></g><defs><clipPath id="clip624"><path d="M382,151 L-92,151 L-92,-18 L382,-18 L382,151 z"/></clipPath></defs><g clip-path="url(#clip624)" fill="#000000" fill-opacity="1" opacity="1" stroke="none" stroke-opacity="0" transform="matrix(-1,1.22465e-16,-1.22465e-16,-1,382,151)"><path d="M0,0 L-8,-4 L-8,4 L0,0 z" fill-rule="nonzero" vector-effect="none"/></g><defs><clipPath id="clip627"><path d="M48,19 L522,19 L522,188 L48,188 L48,19 z"/></clipPath></defs><g clip-path="url(#clip627)" fill="none" opacity="1" stroke="#000000" stroke-linecap="butt" stroke-linejoin="miter" stroke-miterlimit="2" stroke-opacity="1" stroke-width="1" transform="matrix(1,0,0,1,-48,-19)"><path d="M510.5,135.5 L510.5,170.5 L438.5,170.5" fill-rule="evenodd" vector-effect="none"/></g></g><!--generated on windows @ 2020-06-01 16:23:49 AUS Eastern Standard Time--></svg>
