<?xml version="1.0" encoding="UTF-8"?><svg width="137.054mm" height="59.2667mm" viewBox="0 0 518 224" xmlns="http://www.w3.org/2000/svg" xmlns:xlink="http://www.w3.org/1999/xlink"><g fill="none" stroke="black" stroke-width="1" fill-rule="evenodd" stroke-linecap="square" stroke-linejoin="bevel"><g clip-path="none" fill="#ffffff" fill-opacity="1" opacity="1" stroke="none" stroke-opacity="0" transform="matrix(1,0,0,1,0,0)"><path d="M0,0 L517.5,0 L517.5,224 L0,224 L0,0 z" fill-rule="evenodd" vector-effect="none"/></g><defs><clipPath id="clip3"><path d="M-426,-67 L91.5,-67 L91.5,157 L-426,157 L-426,-67 z"/></clipPath></defs><g clip-path="url(#clip3)" fill="#ffffff" fill-opacity="1" opacity="1" stroke="none" stroke-opacity="0" transform="matrix(1,0,0,1,426,67)"><path d="M0,0 L30,15 L0,30 L0,0 z" fill-rule="nonzero" vector-effect="none"/></g><defs><clipPath id="clip7"><path d="M0,0 L30,0 L30,30 L0,30 L0,0 z"/></clipPath></defs><g clip-path="url(#clip7)" fill="none" opacity="1" stroke="none" stroke-opacity="0" transform="matrix(1,0,0,1,426,67)"><path d="M0,0 L30,15 L0,30 L0,0 z" fill-rule="nonzero" vector-effect="none"/></g><defs><clipPath id="clip17"><path d="M6,-1 L36,-1 L36,29 L6,29 L6,-1 z"/></clipPath></defs><g clip-path="url(#clip17)" fill="#000000" fill-opacity="1" opacity="1" stroke="none" stroke-opacity="0" transform="matrix(1,0,0,1,420.492,67.9141)"><path d="M12.5469,15.0625 L13.5,15.3125 C13.3021,16.0833 12.9453,16.6745 12.4297,17.0859 C11.9141,17.4974 11.2812,17.7031 10.5312,17.7031 C9.76042,17.7031 9.13281,17.5443 8.64844,17.2266 C8.16406,16.9089 7.79688,16.4531 7.54688,15.8594 C7.29688,15.2656 7.17188,14.625 7.17188,13.9375 C7.17188,13.1979 7.3151,12.5495 7.60156,11.9922 C7.88802,11.4349 8.29427,11.013 8.82031,10.7266 C9.34635,10.4401 9.92188,10.2969 10.5469,10.2969 C11.2656,10.2969 11.8698,10.4792 12.3594,10.8438 C12.849,11.2083 13.1875,11.7188 13.375,12.375 L12.4375,12.6094 C12.2708,12.0885 12.0312,11.7083 11.7188,11.4688 C11.4062,11.2292 11.0104,11.1094 10.5312,11.1094 C9.97917,11.1094 9.51823,11.2422 9.14844,11.5078 C8.77865,11.7734 8.51823,12.1276 8.36719,12.5703 C8.21615,13.013 8.14062,13.4688 8.14062,13.9375 C8.14062,14.5521 8.22917,15.0859 8.40625,15.5391 C8.58333,15.9922 8.85938,16.3307 9.23438,16.5547 C9.60938,16.7786 10.0156,16.8906 10.4531,16.8906 C10.9844,16.8906 11.4349,16.737 11.8047,16.4297 C12.1745,16.1224 12.4219,15.6667 12.5469,15.0625 M14.2031,11.7344 L14.4219,11.0469 C14.9427,11.224 15.3229,11.3802 15.5625,11.5156 C15.5,10.9219 15.4635,10.5156 15.4531,10.2969 L16.1719,10.2969 C16.1615,10.6198 16.1198,11.026 16.0469,11.5156 C16.3906,11.3385 16.776,11.1823 17.2031,11.0469 L17.4375,11.7344 C17.0208,11.8698 16.6146,11.9583 16.2188,12 C16.4167,12.1771 16.6979,12.4844 17.0625,12.9219 L16.4688,13.3438 C16.2812,13.0833 16.0573,12.7344 15.7969,12.2969 C15.5573,12.7552 15.349,13.1042 15.1719,13.3438 L14.5938,12.9219 C14.9688,12.4635 15.2396,12.1562 15.4062,12 C14.9792,11.9271 14.5781,11.8385 14.2031,11.7344 M21.8438,17.5781 L21.8438,16.8125 C21.4375,17.4062 20.8854,17.7031 20.1875,17.7031 C19.8854,17.7031 19.6016,17.6432 19.3359,17.5234 C19.0703,17.4036 18.8724,17.2552 18.7422,17.0781 C18.612,16.901 18.5208,16.6823 18.4688,16.4219 C18.4375,16.2552 18.4219,15.9844 18.4219,15.6094 L18.4219,12.3906 L19.2969,12.3906 L19.2969,15.2656 C19.2969,15.724 19.3177,16.0365 19.3594,16.2031 C19.4115,16.4323 19.526,16.612 19.7031,16.7422 C19.8802,16.8724 20.1042,16.9375 20.375,16.9375 C20.6354,16.9375 20.8802,16.8698 21.1094,16.7344 C21.3385,16.599 21.5026,16.4141 21.6016,16.1797 C21.7005,15.9453 21.75,15.6094 21.75,15.1719 L21.75,12.3906 L22.625,12.3906 L22.625,17.5781 L21.8438,17.5781" fill-rule="nonzero" vector-effect="none"/></g><defs><clipPath id="clip37"><path d="M-426.5,-67.5 L91,-67.5 L91,156.5 L-426.5,156.5 L-426.5,-67.5 z"/></clipPath></defs><g clip-path="url(#clip37)" fill="none" opacity="1" stroke="#000000" stroke-linecap="butt" stroke-linejoin="miter" stroke-miterlimit="2" stroke-opacity="1" stroke-width="1" transform="matrix(1,0,0,1,426.5,67.5)"><path d="M0,0 L30,15 L0,30 L0,0 z" fill-rule="nonzero" vector-effect="none"/></g><defs><clipPath id="clip40"><path d="M-26,-52 L491.5,-52 L491.5,172 L-26,172 L-26,-52 z"/></clipPath></defs><g clip-path="url(#clip40)" fill="#ffffff" fill-opacity="1" opacity="1" stroke="none" stroke-opacity="0" transform="matrix(1,0,0,1,26,52)"><path d="M0,0 L65,0 L65,60 L0,60 L0,0 z" fill-rule="evenodd" vector-effect="none"/></g><defs><clipPath id="clip45"><path d="M-716.25,-828.346 L4956.35,-828.346 L4956.35,1627.04 L-716.25,1627.04 L-716.25,-828.346 z"/></clipPath></defs><g clip-path="url(#clip45)" fill="#ffffff" fill-opacity="1" opacity="0.75" stroke="none" stroke-opacity="0" transform="matrix(0.0912281,0,0,0.0912281,65.3421,75.5684)"><path d="M0,0 L60,0 L60,36 L0,36 L0,0 z" fill-rule="evenodd" vector-effect="none"/></g><defs><clipPath id="clip46"><path d="M-716.25,-828.346 L4956.35,-828.346 L4956.35,1627.04 L-716.25,1627.04 L-716.25,-828.346 z"/></clipPath></defs><g clip-path="url(#clip46)" fill="none" opacity="0.75" stroke="#000000" stroke-linecap="butt" stroke-linejoin="miter" stroke-miterlimit="2" stroke-opacity="1" stroke-width="1" transform="matrix(0.0912281,0,0,0.0912281,65.3421,75.5684)"><path d="M0,0 L60,0 L60,36 L0,36 L0,0 z" fill-rule="evenodd" vector-effect="none"/></g><defs><clipPath id="clip49"><path d="M-681.25,-842.346 L4991.35,-842.346 L4991.35,1613.04 L-681.25,1613.04 L-681.25,-842.346 z"/></clipPath></defs><g clip-path="url(#clip49)" fill="#ffffff" fill-opacity="1" opacity="0.75" stroke="none" stroke-opacity="0" transform="matrix(0.0912281,0,0,0.0912281,62.1491,76.8456)"><path d="M0,0 L5,0 L5,38 L0,38 L0,0 z" fill-rule="evenodd" vector-effect="none"/></g><defs><clipPath id="clip50"><path d="M-681.25,-842.346 L4991.35,-842.346 L4991.35,1613.04 L-681.25,1613.04 L-681.25,-842.346 z"/></clipPath></defs><g clip-path="url(#clip50)" fill="none" opacity="0.75" stroke="#000000" stroke-linecap="butt" stroke-linejoin="miter" stroke-miterlimit="2" stroke-opacity="1" stroke-width="1" transform="matrix(0.0912281,0,0,0.0912281,62.1491,76.8456)"><path d="M0,0 L5,0 L5,38 L0,38 L0,0 z" fill-rule="evenodd" vector-effect="none"/></g><defs><clipPath id="clip53"><path d="M-806.25,-842.346 L4866.35,-842.346 L4866.35,1613.04 L-806.25,1613.04 L-806.25,-842.346 z"/></clipPath></defs><g clip-path="url(#clip53)" fill="#ffffff" fill-opacity="1" opacity="0.75" stroke="none" stroke-opacity="0" transform="matrix(0.0912281,0,0,0.0912281,73.5526,76.8456)"><path d="M0,0 L5,0 L5,38 L0,38 L0,0 z" fill-rule="evenodd" vector-effect="none"/></g><defs><clipPath id="clip54"><path d="M-806.25,-842.346 L4866.35,-842.346 L4866.35,1613.04 L-806.25,1613.04 L-806.25,-842.346 z"/></clipPath></defs><g clip-path="url(#clip54)" fill="none" opacity="0.75" stroke="#000000" stroke-linecap="butt" stroke-linejoin="miter" stroke-miterlimit="2" stroke-opacity="1" stroke-width="1" transform="matrix(0.0912281,0,0,0.0912281,73.5526,76.8456)"><path d="M0,0 L5,0 L5,38 L0,38 L0,0 z" fill-rule="evenodd" vector-effect="none"/></g><defs><clipPath id="clip57"><path d="M-896.25,-854.346 L4776.35,-854.346 L4776.35,1601.04 L-896.25,1601.04 L-896.25,-854.346 z"/></clipPath></defs><g clip-path="url(#clip57)" fill="#ffffff" fill-opacity="1" opacity="0.75" stroke="none" stroke-opacity="0" transform="matrix(0.0912281,0,0,0.0912281,81.7632,77.9404)"><path d="M7,0 L23,0 C26.866,0 30,3.13401 30,7 C30,10.866 26.866,14 23,14 L7,14 C3.13401,14 0,10.866 0,7 C0,3.13401 3.13401,0 7,0 z" fill-rule="nonzero" vector-effect="none"/></g><defs><clipPath id="clip58"><path d="M-896.25,-854.346 L4776.35,-854.346 L4776.35,1601.04 L-896.25,1601.04 L-896.25,-854.346 z"/></clipPath></defs><g clip-path="url(#clip58)" fill="none" opacity="0.75" stroke="#000000" stroke-linecap="butt" stroke-linejoin="miter" stroke-miterlimit="2" stroke-opacity="1" stroke-width="1" transform="matrix(0.0912281,0,0,0.0912281,81.7632,77.9404)"><path d="M7,0 L23,0 C26.866,0 30,3.13401 30,7 C30,10.866 26.866,14 23,14 L7,14 C3.13401,14 0,10.866 0,7 C0,3.13401 3.13401,0 7,0 z" fill-rule="nonzero" vector-effect="none"/></g><defs><clipPath id="clip62"><path d="M-356.25,-914.346 L5316.35,-914.346 L5316.35,1541.04 L-356.25,1541.04 L-356.25,-914.346 z"/></clipPath></defs><g clip-path="url(#clip62)" fill="#ffffff" fill-opacity="1" opacity="0.75" stroke="none" stroke-opacity="0" transform="matrix(0.0912281,0,0,0.0912281,32.5,83.414)"><path d="M7,0 L23,0 C26.866,0 30,3.13401 30,7 C30,10.866 26.866,14 23,14 L7,14 C3.13401,14 0,10.866 0,7 C0,3.13401 3.13401,0 7,0 z" fill-rule="nonzero" vector-effect="none"/></g><defs><clipPath id="clip63"><path d="M-356.25,-914.346 L5316.35,-914.346 L5316.35,1541.04 L-356.25,1541.04 L-356.25,-914.346 z"/></clipPath></defs><g clip-path="url(#clip63)" fill="none" opacity="0.75" stroke="#000000" stroke-linecap="butt" stroke-linejoin="miter" stroke-miterlimit="2" stroke-opacity="1" stroke-width="1" transform="matrix(0.0912281,0,0,0.0912281,32.5,83.414)"><path d="M7,0 L23,0 C26.866,0 30,3.13401 30,7 C30,10.866 26.866,14 23,14 L7,14 C3.13401,14 0,10.866 0,7 C0,3.13401 3.13401,0 7,0 z" fill-rule="nonzero" vector-effect="none"/></g><defs><clipPath id="clip67"><path d="M-441.25,-829.346 L5231.35,-829.346 L5231.35,1626.04 L-441.25,1626.04 L-441.25,-829.346 z"/></clipPath></defs><g clip-path="url(#clip67)" fill="#ffffff" fill-opacity="1" opacity="0.75" stroke="none" stroke-opacity="0" transform="matrix(0.0912281,0,0,0.0912281,40.2544,75.6596)"><path d="M0,0 L130,0 L130,124 L0,124 L0,0 z" fill-rule="evenodd" vector-effect="none"/></g><defs><clipPath id="clip68"><path d="M-441.25,-829.346 L5231.35,-829.346 L5231.35,1626.04 L-441.25,1626.04 L-441.25,-829.346 z"/></clipPath></defs><g clip-path="url(#clip68)" fill="none" opacity="0.75" stroke="#000000" stroke-linecap="butt" stroke-linejoin="miter" stroke-miterlimit="2" stroke-opacity="1" stroke-width="1" transform="matrix(0.0912281,0,0,0.0912281,40.2544,75.6596)"><path d="M0,0 L130,0 L130,124 L0,124 L0,0 z" fill-rule="evenodd" vector-effect="none"/></g><defs><clipPath id="clip72"><path d="M-626.25,-903.346 L5046.35,-903.346 L5046.35,1552.04 L-626.25,1552.04 L-626.25,-903.346 z"/></clipPath></defs><g clip-path="url(#clip72)" fill="#ffffff" fill-opacity="1" opacity="0.75" stroke="none" stroke-opacity="0" transform="matrix(0.0912281,0,0,0.0912281,57.1316,82.4105)"><path d="M8.75,0 L26.25,0 L35,9 L35,27 L26.25,36 L8.75,36 L0,27 L0,9 L8.75,0 z" fill-rule="nonzero" vector-effect="none"/></g><defs><clipPath id="clip73"><path d="M-626.25,-903.346 L5046.35,-903.346 L5046.35,1552.04 L-626.25,1552.04 L-626.25,-903.346 z"/></clipPath></defs><g clip-path="url(#clip73)" fill="none" opacity="0.75" stroke="#000000" stroke-linecap="butt" stroke-linejoin="miter" stroke-miterlimit="2" stroke-opacity="1" stroke-width="1" transform="matrix(0.0912281,0,0,0.0912281,57.1316,82.4105)"><path d="M8.75,0 L26.25,0 L35,9 L35,27 L26.25,36 L8.75,36 L0,27 L0,9 L8.75,0 z" fill-rule="nonzero" vector-effect="none"/></g><defs><clipPath id="clip76"><path d="M-361.25,-851.346 L5311.35,-851.346 L5311.35,1604.04 L-361.25,1604.04 L-361.25,-851.346 z"/></clipPath></defs><g clip-path="url(#clip76)" fill="#ffffff" fill-opacity="1" opacity="0.75" stroke="none" stroke-opacity="0" transform="matrix(0.0912281,0,0,0.0912281,32.9561,77.6667)"><path d="M20,10 C20,15.5228 15.5228,20 10,20 C4.47715,20 0,15.5228 0,10 C0,4.47715 4.47715,0 10,0 C15.5228,0 20,4.47715 20,10 z" fill-rule="nonzero" vector-effect="none"/></g><defs><clipPath id="clip77"><path d="M-361.25,-851.346 L5311.35,-851.346 L5311.35,1604.04 L-361.25,1604.04 L-361.25,-851.346 z"/></clipPath></defs><g clip-path="url(#clip77)" fill="none" opacity="0.75" stroke="#000000" stroke-linecap="butt" stroke-linejoin="miter" stroke-miterlimit="2" stroke-opacity="1" stroke-width="1" transform="matrix(0.0912281,0,0,0.0912281,32.9561,77.6667)"><path d="M20,10 C20,15.5228 15.5228,20 10,20 C4.47715,20 0,15.5228 0,10 C0,4.47715 4.47715,0 10,0 C15.5228,0 20,4.47715 20,10 z" fill-rule="nonzero" vector-effect="none"/></g><defs><clipPath id="clip82"><path d="M-716.25,-846.346 L4956.35,-846.346 L4956.35,1609.04 L-716.25,1609.04 L-716.25,-846.346 z"/></clipPath></defs><g clip-path="url(#clip82)" fill="#000000" fill-opacity="1" opacity="0.75" stroke="none" stroke-opacity="0" transform="matrix(0.0912281,0,0,0.0912281,65.3421,77.2105)"><path d="M0,0 L-8,-4 L-8,4 L0,0 z" fill-rule="nonzero" vector-effect="none"/></g><defs><clipPath id="clip84"><path d="M-581.25,-756.346 L5091.35,-756.346 L5091.35,1699.04 L-581.25,1699.04 L-581.25,-756.346 z"/></clipPath></defs><g clip-path="url(#clip84)" fill="none" opacity="0.75" stroke="#000000" stroke-linecap="butt" stroke-linejoin="miter" stroke-miterlimit="2" stroke-opacity="1" stroke-width="1" transform="matrix(0.0912281,0,0,0.0912281,53.0263,69)"><path d="M105,90 L127,90" fill-rule="evenodd" vector-effect="none"/></g><defs><clipPath id="clip89"><path d="M-896.25,-861.346 L4776.35,-861.346 L4776.35,1594.04 L-896.25,1594.04 L-896.25,-861.346 z"/></clipPath></defs><g clip-path="url(#clip89)" fill="#000000" fill-opacity="1" opacity="0.75" stroke="none" stroke-opacity="0" transform="matrix(0.0912281,0,0,0.0912281,81.7632,78.5789)"><path d="M0,0 L-8,-4 L-8,4 L0,0 z" fill-rule="nonzero" vector-effect="none"/></g><defs><clipPath id="clip91"><path d="M-581.25,-756.346 L5091.35,-756.346 L5091.35,1699.04 L-581.25,1699.04 L-581.25,-756.346 z"/></clipPath></defs><g clip-path="url(#clip91)" fill="none" opacity="0.75" stroke="#000000" stroke-linecap="butt" stroke-linejoin="miter" stroke-miterlimit="2" stroke-opacity="1" stroke-width="1" transform="matrix(0.0912281,0,0,0.0912281,53.0263,69)"><path d="M230,105 L307,105" fill-rule="evenodd" vector-effect="none"/></g><defs><clipPath id="clip96"><path d="M-806.25,-876.346 L4866.35,-876.346 L4866.35,1579.04 L-806.25,1579.04 L-806.25,-876.346 z"/></clipPath></defs><g clip-path="url(#clip96)" fill="#000000" fill-opacity="1" opacity="0.75" stroke="none" stroke-opacity="0" transform="matrix(0.0912281,0,0,0.0912281,73.5526,79.9474)"><path d="M0,0 L-8,-4 L-8,4 L0,0 z" fill-rule="nonzero" vector-effect="none"/></g><defs><clipPath id="clip98"><path d="M-581.25,-756.346 L5091.35,-756.346 L5091.35,1699.04 L-581.25,1699.04 L-581.25,-756.346 z"/></clipPath></defs><g clip-path="url(#clip98)" fill="none" opacity="0.75" stroke="#000000" stroke-linecap="butt" stroke-linejoin="miter" stroke-miterlimit="2" stroke-opacity="1" stroke-width="1" transform="matrix(0.0912281,0,0,0.0912281,53.0263,69)"><path d="M105,120 L110,120 L110,147 L210,147 L210,120 L217,120" fill-rule="evenodd" vector-effect="none"/></g><defs><clipPath id="clip103"><path d="M-806.25,-866.346 L4866.35,-866.346 L4866.35,1589.04 L-806.25,1589.04 L-806.25,-866.346 z"/></clipPath></defs><g clip-path="url(#clip103)" fill="#000000" fill-opacity="1" opacity="0.75" stroke="none" stroke-opacity="0" transform="matrix(0.0912281,0,0,0.0912281,73.5526,79.0351)"><path d="M0,0 L-8,-4 L-8,4 L0,0 z" fill-rule="nonzero" vector-effect="none"/></g><defs><clipPath id="clip105"><path d="M-581.25,-756.346 L5091.35,-756.346 L5091.35,1699.04 L-581.25,1699.04 L-581.25,-756.346 z"/></clipPath></defs><g clip-path="url(#clip105)" fill="none" opacity="0.75" stroke="#000000" stroke-linecap="butt" stroke-linejoin="miter" stroke-miterlimit="2" stroke-opacity="1" stroke-width="1" transform="matrix(0.0912281,0,0,0.0912281,53.0263,69)"><path d="M105,110 L123,110 L123,136 L198,136 L198,110 L217,110" fill-rule="evenodd" vector-effect="none"/></g><defs><clipPath id="clip110"><path d="M-806.25,-856.346 L4866.35,-856.346 L4866.35,1599.04 L-806.25,1599.04 L-806.25,-856.346 z"/></clipPath></defs><g clip-path="url(#clip110)" fill="#000000" fill-opacity="1" opacity="0.75" stroke="none" stroke-opacity="0" transform="matrix(0.0912281,0,0,0.0912281,73.5526,78.1228)"><path d="M0,0 L-8,-4 L-8,4 L0,0 z" fill-rule="nonzero" vector-effect="none"/></g><defs><clipPath id="clip112"><path d="M-581.25,-756.346 L5091.35,-756.346 L5091.35,1699.04 L-581.25,1699.04 L-581.25,-756.346 z"/></clipPath></defs><g clip-path="url(#clip112)" fill="none" opacity="0.75" stroke="#000000" stroke-linecap="butt" stroke-linejoin="miter" stroke-miterlimit="2" stroke-opacity="1" stroke-width="1" transform="matrix(0.0912281,0,0,0.0912281,53.0263,69)"><path d="M105,100 L110,100 L110,127 L204,127 L204,100 L217,100" fill-rule="evenodd" vector-effect="none"/></g><defs><clipPath id="clip117"><path d="M-441.25,-921.346 L5231.35,-921.346 L5231.35,1534.04 L-441.25,1534.04 L-441.25,-921.346 z"/></clipPath></defs><g clip-path="url(#clip117)" fill="#000000" fill-opacity="1" opacity="0.75" stroke="none" stroke-opacity="0" transform="matrix(0.0912281,0,0,0.0912281,40.2544,84.0526)"><path d="M0,0 L-8,-4 L-8,4 L0,0 z" fill-rule="nonzero" vector-effect="none"/></g><defs><clipPath id="clip119"><path d="M-581.25,-756.346 L5091.35,-756.346 L5091.35,1699.04 L-581.25,1699.04 L-581.25,-756.346 z"/></clipPath></defs><g clip-path="url(#clip119)" fill="none" opacity="0.75" stroke="#000000" stroke-linecap="butt" stroke-linejoin="miter" stroke-miterlimit="2" stroke-opacity="1" stroke-width="1" transform="matrix(0.0912281,0,0,0.0912281,53.0263,69)"><path d="M-195,165 L-148,165" fill-rule="evenodd" vector-effect="none"/></g><defs><clipPath id="clip124"><path d="M-681.25,-861.346 L4991.35,-861.346 L4991.35,1594.04 L-681.25,1594.04 L-681.25,-861.346 z"/></clipPath></defs><g clip-path="url(#clip124)" fill="#000000" fill-opacity="1" opacity="0.75" stroke="none" stroke-opacity="0" transform="matrix(0.0912281,0,0,0.0912281,62.1491,78.5789)"><path d="M0,0 L-8,-4 L-8,4 L0,0 z" fill-rule="nonzero" vector-effect="none"/></g><defs><clipPath id="clip126"><path d="M-581.25,-756.346 L5091.35,-756.346 L5091.35,1699.04 L-581.25,1699.04 L-581.25,-756.346 z"/></clipPath></defs><g clip-path="url(#clip126)" fill="none" opacity="0.75" stroke="#000000" stroke-linecap="butt" stroke-linejoin="miter" stroke-miterlimit="2" stroke-opacity="1" stroke-width="1" transform="matrix(0.0912281,0,0,0.0912281,53.0263,69)"><path d="M-10,105 L92,105" fill-rule="evenodd" vector-effect="none"/></g><defs><clipPath id="clip131"><path d="M-626.25,-921.346 L5046.35,-921.346 L5046.35,1534.04 L-626.25,1534.04 L-626.25,-921.346 z"/></clipPath></defs><g clip-path="url(#clip131)" fill="#000000" fill-opacity="1" opacity="0.75" stroke="none" stroke-opacity="0" transform="matrix(0.0912281,0,0,0.0912281,57.1316,84.0526)"><path d="M0,0 L-8,-4 L-8,4 L0,0 z" fill-rule="nonzero" vector-effect="none"/></g><defs><clipPath id="clip133"><path d="M-581.25,-756.346 L5091.35,-756.346 L5091.35,1699.04 L-581.25,1699.04 L-581.25,-756.346 z"/></clipPath></defs><g clip-path="url(#clip133)" fill="none" opacity="0.75" stroke="#000000" stroke-linecap="butt" stroke-linejoin="miter" stroke-miterlimit="2" stroke-opacity="1" stroke-width="1" transform="matrix(0.0912281,0,0,0.0912281,53.0263,69)"><path d="M-10,165 L37,165" fill-rule="evenodd" vector-effect="none"/></g><defs><clipPath id="clip138"><path d="M-806.25,-846.346 L4866.35,-846.346 L4866.35,1609.04 L-806.25,1609.04 L-806.25,-846.346 z"/></clipPath></defs><g clip-path="url(#clip138)" fill="#000000" fill-opacity="1" opacity="0.75" stroke="none" stroke-opacity="0" transform="matrix(0.0912281,0,0,0.0912281,73.5526,77.2105)"><path d="M0,0 L-8,-4 L-8,4 L0,0 z" fill-rule="nonzero" vector-effect="none"/></g><defs><clipPath id="clip140"><path d="M-581.25,-756.346 L5091.35,-756.346 L5091.35,1699.04 L-581.25,1699.04 L-581.25,-756.346 z"/></clipPath></defs><g clip-path="url(#clip140)" fill="none" opacity="0.75" stroke="#000000" stroke-linecap="butt" stroke-linejoin="miter" stroke-miterlimit="2" stroke-opacity="1" stroke-width="1" transform="matrix(0.0912281,0,0,0.0912281,53.0263,69)"><path d="M195,90 L217,90" fill-rule="evenodd" vector-effect="none"/></g><defs><clipPath id="clip145"><path d="M-441.25,-861.346 L5231.35,-861.346 L5231.35,1594.04 L-441.25,1594.04 L-441.25,-861.346 z"/></clipPath></defs><g clip-path="url(#clip145)" fill="#000000" fill-opacity="1" opacity="0.75" stroke="none" stroke-opacity="0" transform="matrix(0.0912281,0,0,0.0912281,40.2544,78.5789)"><path d="M0,0 L-8,-4 L-8,4 L0,0 z" fill-rule="nonzero" vector-effect="none"/></g><defs><clipPath id="clip147"><path d="M-581.25,-756.346 L5091.35,-756.346 L5091.35,1699.04 L-581.25,1699.04 L-581.25,-756.346 z"/></clipPath></defs><g clip-path="url(#clip147)" fill="none" opacity="0.75" stroke="#000000" stroke-linecap="butt" stroke-linejoin="miter" stroke-miterlimit="2" stroke-opacity="1" stroke-width="1" transform="matrix(0.0912281,0,0,0.0912281,53.0263,69)"><path d="M-200,105 L-148,105" fill-rule="evenodd" vector-effect="none"/></g><defs><clipPath id="clip154"><path d="M-3,-30 L62,-30 L62,30 L-3,30 L-3,-30 z"/></clipPath></defs><g clip-path="url(#clip154)" fill="none" opacity="1" stroke="#000000" stroke-linecap="butt" stroke-linejoin="miter" stroke-miterlimit="2" stroke-opacity="1" stroke-width="1" transform="matrix(1,0,0,1,29,82)"><text fill="#000000" fill-opacity="1" font-family="Arial" font-size="9" font-style="normal" font-weight="400" stroke="none" textLength="4.5" x="0" xml:space="preserve" y="3">x</text></g><defs><clipPath id="clip155"><path d="M-62,-30 L3,-30 L3,30 L-62,30 L-62,-30 z"/></clipPath></defs><g clip-path="url(#clip155)" fill="none" opacity="1" stroke="#000000" stroke-linecap="butt" stroke-linejoin="miter" stroke-miterlimit="2" stroke-opacity="1" stroke-width="1" transform="matrix(1,0,0,1,88,82)"><text fill="#000000" fill-opacity="1" font-family="Arial" font-size="9" font-style="normal" font-weight="400" stroke="none" textLength="10.4844" x="-10.4844" xml:space="preserve" y="3">ref</text></g><defs><clipPath id="clip160"><path d="M-26.5,-52.5 L491,-52.5 L491,171.5 L-26.5,171.5 L-26.5,-52.5 z"/></clipPath></defs><g clip-path="url(#clip160)" fill="none" opacity="1" stroke="#000000" stroke-linecap="butt" stroke-linejoin="miter" stroke-miterlimit="2" stroke-opacity="1" stroke-width="1" transform="matrix(1,0,0,1,26.5,52.5)"><path d="M0,0 L65,0 L65,60 L0,60 L0,0 z" fill-rule="evenodd" vector-effect="none"/></g><defs><clipPath id="clip166"><path d="M0,0 L48,0 L48,26 L0,26 L0,0 z"/></clipPath></defs><g clip-path="url(#clip166)" fill="none" opacity="1" stroke="#000000" stroke-linecap="square" stroke-linejoin="bevel" stroke-opacity="1" stroke-width="1" transform="matrix(1,0,0,1,34.4766,114)"><text fill="#000000" fill-opacity="1" font-family="Arial" font-size="10" font-style="normal" font-weight="400" stroke="none" textLength="46.0469" x="1" xml:space="preserve" y="10">Reference</text><text fill="#000000" fill-opacity="1" font-family="Arial" font-size="10" font-style="normal" font-weight="400" stroke="none" textLength="27.7344" x="10.1562" xml:space="preserve" y="22">Signal</text></g><defs><clipPath id="clip174"><path d="M-126,-72 L391.5,-72 L391.5,152 L-126,152 L-126,-72 z"/></clipPath></defs><g clip-path="url(#clip174)" fill="#ffffff" fill-opacity="1" opacity="1" stroke="none" stroke-opacity="0" transform="matrix(1,0,0,1,126,72)"><path d="M20,10 C20,15.5228 15.5228,20 10,20 C4.47715,20 0,15.5228 0,10 C0,4.47715 4.47715,0 10,0 C15.5228,0 20,4.47715 20,10 z" fill-rule="nonzero" vector-effect="none"/></g><defs><clipPath id="clip178"><path d="M660,430 L680,430 L680,450 L660,450 L660,430 z"/></clipPath></defs><g clip-path="url(#clip178)" fill="none" opacity="1" stroke="#000000" stroke-linecap="butt" stroke-linejoin="miter" stroke-miterlimit="2" stroke-opacity="1" stroke-width="1" transform="matrix(1,0,0,1,-533.5,-357.5)"><polyline fill="none" points="663,440 667,440" vector-effect="none"/></g><defs><clipPath id="clip179"><path d="M660,430 L680,430 L680,450 L660,450 L660,430 z"/></clipPath></defs><g clip-path="url(#clip179)" fill="none" opacity="1" stroke="#000000" stroke-linecap="butt" stroke-linejoin="miter" stroke-miterlimit="2" stroke-opacity="1" stroke-width="1" transform="matrix(1,0,0,1,-533.5,-357.5)"><polyline fill="none" points="665,438 665,442" vector-effect="none"/></g><defs><clipPath id="clip180"><path d="M660,430 L680,430 L680,450 L660,450 L660,430 z"/></clipPath></defs><g clip-path="url(#clip180)" fill="none" opacity="1" stroke="#000000" stroke-linecap="butt" stroke-linejoin="miter" stroke-miterlimit="2" stroke-opacity="1" stroke-width="1" transform="matrix(1,0,0,1,-533.5,-357.5)"><polyline fill="none" points="668,445 672,445" vector-effect="none"/></g><defs><clipPath id="clip185"><path d="M-126.5,-72.5 L391,-72.5 L391,151.5 L-126.5,151.5 L-126.5,-72.5 z"/></clipPath></defs><g clip-path="url(#clip185)" fill="none" opacity="1" stroke="#000000" stroke-linecap="butt" stroke-linejoin="miter" stroke-miterlimit="2" stroke-opacity="1" stroke-width="1" transform="matrix(1,0,0,1,126.5,72.5)"><path d="M20,10 C20,15.5228 15.5228,20 10,20 C4.47715,20 0,15.5228 0,10 C0,4.47715 4.47715,0 10,0 C15.5228,0 20,4.47715 20,10 z" fill-rule="nonzero" vector-effect="none"/></g><defs><clipPath id="clip188"><path d="M-311,-54 L206.5,-54 L206.5,170 L-311,170 L-311,-54 z"/></clipPath></defs><g clip-path="url(#clip188)" fill="#ffffff" fill-opacity="1" opacity="1" stroke="none" stroke-opacity="0" transform="matrix(1,0,0,1,311,54)"><path d="M0,0 L85,0 L85,56 L0,56 L0,0 z" fill-rule="evenodd" vector-effect="none"/></g><defs><clipPath id="clip193"><path d="M-2022.9,-473.882 L1059.26,-473.882 L1059.26,860.235 L-2022.9,860.235 L-2022.9,-473.882 z"/></clipPath></defs><g clip-path="url(#clip193)" fill="#ffffff" fill-opacity="1" opacity="0.75" stroke="none" stroke-opacity="0" transform="matrix(0.167901,0,0,0.167901,339.648,79.5654)"><path d="M0,0 L80,0 L80,47 L0,47 L0,0 z" fill-rule="evenodd" vector-effect="none"/></g><defs><clipPath id="clip194"><path d="M-2022.9,-473.882 L1059.26,-473.882 L1059.26,860.235 L-2022.9,860.235 L-2022.9,-473.882 z"/></clipPath></defs><g clip-path="url(#clip194)" fill="none" opacity="0.75" stroke="#000000" stroke-linecap="butt" stroke-linejoin="miter" stroke-miterlimit="2" stroke-opacity="1" stroke-width="1" transform="matrix(0.167901,0,0,0.167901,339.648,79.5654)"><path d="M0,0 L80,0 L80,47 L0,47 L0,0 z" fill-rule="evenodd" vector-effect="none"/></g><defs><clipPath id="clip197"><path d="M-2157.9,-484.882 L924.265,-484.882 L924.265,849.235 L-2157.9,849.235 L-2157.9,-484.882 z"/></clipPath></defs><g clip-path="url(#clip197)" fill="#ffffff" fill-opacity="1" opacity="0.75" stroke="none" stroke-opacity="0" transform="matrix(0.167901,0,0,0.167901,362.315,81.4123)"><path d="M0,0 L30,0 L30,30 L0,30 L0,0 z" fill-rule="evenodd" vector-effect="none"/></g><defs><clipPath id="clip198"><path d="M-2157.9,-484.882 L924.265,-484.882 L924.265,849.235 L-2157.9,849.235 L-2157.9,-484.882 z"/></clipPath></defs><g clip-path="url(#clip198)" fill="none" opacity="0.75" stroke="#000000" stroke-linecap="butt" stroke-linejoin="miter" stroke-miterlimit="2" stroke-opacity="1" stroke-width="1" transform="matrix(0.167901,0,0,0.167901,362.315,81.4123)"><path d="M0,0 L30,0 L30,30 L0,30 L0,0 z" fill-rule="evenodd" vector-effect="none"/></g><defs><clipPath id="clip201"><path d="M-1902.9,-502.882 L1179.26,-502.882 L1179.26,831.235 L-1902.9,831.235 L-1902.9,-502.882 z"/></clipPath></defs><g clip-path="url(#clip201)" fill="#ffffff" fill-opacity="1" opacity="0.75" stroke="none" stroke-opacity="0" transform="matrix(0.167901,0,0,0.167901,319.5,84.4346)"><path d="M7,0 L23,0 C26.866,0 30,3.13401 30,7 C30,10.866 26.866,14 23,14 L7,14 C3.13401,14 0,10.866 0,7 C0,3.13401 3.13401,0 7,0 z" fill-rule="nonzero" vector-effect="none"/></g><defs><clipPath id="clip202"><path d="M-1902.9,-502.882 L1179.26,-502.882 L1179.26,831.235 L-1902.9,831.235 L-1902.9,-502.882 z"/></clipPath></defs><g clip-path="url(#clip202)" fill="none" opacity="0.75" stroke="#000000" stroke-linecap="butt" stroke-linejoin="miter" stroke-miterlimit="2" stroke-opacity="1" stroke-width="1" transform="matrix(0.167901,0,0,0.167901,319.5,84.4346)"><path d="M7,0 L23,0 C26.866,0 30,3.13401 30,7 C30,10.866 26.866,14 23,14 L7,14 C3.13401,14 0,10.866 0,7 C0,3.13401 3.13401,0 7,0 z" fill-rule="nonzero" vector-effect="none"/></g><defs><clipPath id="clip206"><path d="M-2277.9,-492.882 L804.265,-492.882 L804.265,841.235 L-2277.9,841.235 L-2277.9,-492.882 z"/></clipPath></defs><g clip-path="url(#clip206)" fill="#ffffff" fill-opacity="1" opacity="0.75" stroke="none" stroke-opacity="0" transform="matrix(0.167901,0,0,0.167901,382.463,82.7556)"><path d="M7,0 L23,0 C26.866,0 30,3.13401 30,7 C30,10.866 26.866,14 23,14 L7,14 C3.13401,14 0,10.866 0,7 C0,3.13401 3.13401,0 7,0 z" fill-rule="nonzero" vector-effect="none"/></g><defs><clipPath id="clip207"><path d="M-2277.9,-492.882 L804.265,-492.882 L804.265,841.235 L-2277.9,841.235 L-2277.9,-492.882 z"/></clipPath></defs><g clip-path="url(#clip207)" fill="none" opacity="0.75" stroke="#000000" stroke-linecap="butt" stroke-linejoin="miter" stroke-miterlimit="2" stroke-opacity="1" stroke-width="1" transform="matrix(0.167901,0,0,0.167901,382.463,82.7556)"><path d="M7,0 L23,0 C26.866,0 30,3.13401 30,7 C30,10.866 26.866,14 23,14 L7,14 C3.13401,14 0,10.866 0,7 C0,3.13401 3.13401,0 7,0 z" fill-rule="nonzero" vector-effect="none"/></g><defs><clipPath id="clip212"><path d="M-1802.9,-444.882 L1279.26,-444.882 L1279.26,889.235 L-1802.9,889.235 L-1802.9,-444.882 z"/></clipPath></defs><g clip-path="url(#clip212)" fill="none" opacity="0.75" stroke="#000000" stroke-linecap="butt" stroke-linejoin="miter" stroke-miterlimit="2" stroke-opacity="1" stroke-width="1" transform="matrix(0.167901,0,0,0.167901,302.71,74.6963)"><path d="M385,55 L427,55" fill-rule="evenodd" vector-effect="none"/></g><defs><clipPath id="clip217"><path d="M-2277.9,-499.882 L804.265,-499.882 L804.265,834.235 L-2277.9,834.235 L-2277.9,-499.882 z"/></clipPath></defs><g clip-path="url(#clip217)" fill="#000000" fill-opacity="1" opacity="0.75" stroke="none" stroke-opacity="0" transform="matrix(0.167901,0,0,0.167901,382.463,83.9309)"><path d="M0,0 L-8,-4 L-8,4 L0,0 z" fill-rule="nonzero" vector-effect="none"/></g><defs><clipPath id="clip219"><path d="M-1802.9,-444.882 L1279.26,-444.882 L1279.26,889.235 L-1802.9,889.235 L-1802.9,-444.882 z"/></clipPath></defs><g clip-path="url(#clip219)" fill="none" opacity="0.75" stroke="#000000" stroke-linecap="butt" stroke-linejoin="miter" stroke-miterlimit="2" stroke-opacity="1" stroke-width="1" transform="matrix(0.167901,0,0,0.167901,302.71,74.6963)"><path d="M427,55 L467,55" fill-rule="evenodd" vector-effect="none"/></g><defs><clipPath id="clip222"><path d="M-2022.9,-484.882 L1059.26,-484.882 L1059.26,849.235 L-2022.9,849.235 L-2022.9,-484.882 z"/></clipPath></defs><g clip-path="url(#clip222)" fill="#000000" fill-opacity="1" opacity="0.75" stroke="none" stroke-opacity="0" transform="matrix(0.167901,0,0,0.167901,339.648,81.4123)"><path d="M0,0 L-8,-4 L-8,4 L0,0 z" fill-rule="nonzero" vector-effect="none"/></g><defs><clipPath id="clip224"><path d="M-1802.9,-444.882 L1279.26,-444.882 L1279.26,889.235 L-1802.9,889.235 L-1802.9,-444.882 z"/></clipPath></defs><g clip-path="url(#clip224)" fill="none" opacity="0.75" stroke="#000000" stroke-linecap="butt" stroke-linejoin="miter" stroke-miterlimit="2" stroke-opacity="1" stroke-width="1" transform="matrix(0.167901,0,0,0.167901,302.71,74.6963)"><path d="M427,55 L427,-1 L196,-1 L196,40 L212,40" fill-rule="evenodd" vector-effect="none"/></g><defs><clipPath id="clip226"><path d="M-2229.9,-499.882 L852.265,-499.882 L852.265,834.235 L-2229.9,834.235 L-2229.9,-499.882 z"/></clipPath></defs><g clip-path="url(#clip226)" fill="#000000" fill-opacity="1" opacity="0.75" stroke="none" stroke-opacity="0" transform="matrix(0.167901,0,0,0.167901,374.404,83.9309)"><path d="M2.5,0 C2.5,1.38071 1.38071,2.5 0,2.5 C-1.38071,2.5 -2.5,1.38071 -2.5,0 C-2.5,-1.38071 -1.38071,-2.5 0,-2.5 C1.38071,-2.5 2.5,-1.38071 2.5,0 z" fill-rule="evenodd" vector-effect="none"/></g><defs><clipPath id="clip231"><path d="M-2022.9,-509.882 L1059.26,-509.882 L1059.26,824.235 L-2022.9,824.235 L-2022.9,-509.882 z"/></clipPath></defs><g clip-path="url(#clip231)" fill="#000000" fill-opacity="1" opacity="0.75" stroke="none" stroke-opacity="0" transform="matrix(0.167901,0,0,0.167901,339.648,85.6099)"><path d="M0,0 L-8,-4 L-8,4 L0,0 z" fill-rule="nonzero" vector-effect="none"/></g><defs><clipPath id="clip233"><path d="M-1802.9,-444.882 L1279.26,-444.882 L1279.26,889.235 L-1802.9,889.235 L-1802.9,-444.882 z"/></clipPath></defs><g clip-path="url(#clip233)" fill="none" opacity="0.75" stroke="#000000" stroke-linecap="butt" stroke-linejoin="miter" stroke-miterlimit="2" stroke-opacity="1" stroke-width="1" transform="matrix(0.167901,0,0,0.167901,302.71,74.6963)"><path d="M130,65 L212,65" fill-rule="evenodd" vector-effect="none"/></g><defs><clipPath id="clip238"><path d="M-2157.9,-499.882 L924.265,-499.882 L924.265,834.235 L-2157.9,834.235 L-2157.9,-499.882 z"/></clipPath></defs><g clip-path="url(#clip238)" fill="#000000" fill-opacity="1" opacity="0.75" stroke="none" stroke-opacity="0" transform="matrix(0.167901,0,0,0.167901,362.315,83.9309)"><path d="M0,0 L-8,-4 L-8,4 L0,0 z" fill-rule="nonzero" vector-effect="none"/></g><defs><clipPath id="clip240"><path d="M-1802.9,-444.882 L1279.26,-444.882 L1279.26,889.235 L-1802.9,889.235 L-1802.9,-444.882 z"/></clipPath></defs><g clip-path="url(#clip240)" fill="none" opacity="0.75" stroke="#000000" stroke-linecap="butt" stroke-linejoin="miter" stroke-miterlimit="2" stroke-opacity="1" stroke-width="1" transform="matrix(0.167901,0,0,0.167901,302.71,74.6963)"><path d="M300,55 L347,55" fill-rule="evenodd" vector-effect="none"/></g><defs><clipPath id="clip248"><path d="M-3,-28 L82,-28 L82,28 L-3,28 L-3,-28 z"/></clipPath></defs><g clip-path="url(#clip248)" fill="none" opacity="1" stroke="#000000" stroke-linecap="butt" stroke-linejoin="miter" stroke-miterlimit="2" stroke-opacity="1" stroke-width="1" transform="matrix(1,0,0,1,314,82)"><text fill="#000000" fill-opacity="1" font-family="Arial" font-size="9" font-style="normal" font-weight="400" stroke="none" textLength="5" x="0" xml:space="preserve" y="3">u</text></g><defs><clipPath id="clip249"><path d="M-82,-28 L3,-28 L3,28 L-82,28 L-82,-28 z"/></clipPath></defs><g clip-path="url(#clip249)" fill="none" opacity="1" stroke="#000000" stroke-linecap="butt" stroke-linejoin="miter" stroke-miterlimit="2" stroke-opacity="1" stroke-width="1" transform="matrix(1,0,0,1,393,82)"><text fill="#000000" fill-opacity="1" font-family="Arial" font-size="9" font-style="normal" font-weight="400" stroke="none" textLength="4.5" x="-4.5" xml:space="preserve" y="3">x</text></g><defs><clipPath id="clip254"><path d="M-311.5,-54.5 L206,-54.5 L206,169.5 L-311.5,169.5 L-311.5,-54.5 z"/></clipPath></defs><g clip-path="url(#clip254)" fill="none" opacity="1" stroke="#000000" stroke-linecap="butt" stroke-linejoin="miter" stroke-miterlimit="2" stroke-opacity="1" stroke-width="1" transform="matrix(1,0,0,1,311.5,54.5)"><path d="M0,0 L85,0 L85,56 L0,56 L0,0 z" fill-rule="evenodd" vector-effect="none"/></g><defs><clipPath id="clip260"><path d="M0,0 L76,0 L76,14 L0,14 L0,0 z"/></clipPath></defs><g clip-path="url(#clip260)" fill="none" opacity="1" stroke="#000000" stroke-linecap="square" stroke-linejoin="bevel" stroke-opacity="1" stroke-width="1" transform="matrix(1,0,0,1,315.344,112)"><text fill="#000000" fill-opacity="1" font-family="Arial" font-size="10" font-style="normal" font-weight="400" stroke="none" textLength="74.3125" x="1" xml:space="preserve" y="10">Non Linear Plant</text></g><defs><clipPath id="clip268"><path d="M-461,-2 L56.5,-2 L56.5,222 L-461,222 L-461,-2 z"/></clipPath></defs><g clip-path="url(#clip268)" fill="#ffffff" fill-opacity="1" opacity="1" stroke="none" stroke-opacity="0" transform="matrix(1,0,0,1,461,2)"><path d="M30,30 L0,15 L30,0 L30,30 z" fill-rule="nonzero" vector-effect="none"/></g><defs><clipPath id="clip272"><path d="M0,0 L30,0 L30,30 L0,30 L0,0 z"/></clipPath></defs><g clip-path="url(#clip272)" fill="none" opacity="1" stroke="none" stroke-opacity="0" transform="matrix(1,0,0,1,461,2)"><path d="M30,30 L0,15 L30,0 L30,30 z" fill-rule="nonzero" vector-effect="none"/></g><defs><clipPath id="clip282"><path d="M-6,-1 L24,-1 L24,29 L-6,29 L-6,-1 z"/></clipPath></defs><g clip-path="url(#clip282)" fill="#000000" fill-opacity="1" opacity="1" stroke="none" stroke-opacity="0" transform="matrix(1,0,0,1,466.508,2.91406)"><path d="M8.65625,15.4219 L8.65625,14.5469 L11.3594,14.5469 L11.3594,15.4219 L8.65625,15.4219 M12.4062,17.5781 L12.4062,10.4219 L13.3594,10.4219 L13.3594,13.9688 L16.9062,10.4219 L18.1875,10.4219 L15.1875,13.3125 L18.3281,17.5781 L17.0781,17.5781 L14.5312,13.9531 L13.3594,15.0938 L13.3594,17.5781 L12.4062,17.5781 M18.6406,15.4219 L18.6406,14.5469 L21.3438,14.5469 L21.3438,15.4219 L18.6406,15.4219" fill-rule="nonzero" vector-effect="none"/></g><defs><clipPath id="clip302"><path d="M-461.5,-2.5 L56,-2.5 L56,221.5 L-461.5,221.5 L-461.5,-2.5 z"/></clipPath></defs><g clip-path="url(#clip302)" fill="none" opacity="1" stroke="#000000" stroke-linecap="butt" stroke-linejoin="miter" stroke-miterlimit="2" stroke-opacity="1" stroke-width="1" transform="matrix(1,0,0,1,461.5,2.5)"><path d="M30,30 L0,15 L30,0 L30,30 z" fill-rule="nonzero" vector-effect="none"/></g><defs><clipPath id="clip305"><path d="M-411,-4 L106.5,-4 L106.5,220 L-411,220 L-411,-4 z"/></clipPath></defs><g clip-path="url(#clip305)" fill="#ffffff" fill-opacity="1" opacity="1" stroke="none" stroke-opacity="0" transform="matrix(1,0,0,1,411,4)"><path d="M0,0 L30,0 L30,26 L0,26 L0,0 z" fill-rule="evenodd" vector-effect="none"/></g><defs><clipPath id="clip309"><path d="M0,0 L31,0 L31,27 L0,27 L0,0 z"/></clipPath></defs><g clip-path="url(#clip309)" fill="none" opacity="1" stroke="none" stroke-opacity="0" transform="matrix(1,0,0,1,411,4)"><path d="M0,0 L31,0 L31,27 L0,27 L0,0 z" fill-rule="evenodd" vector-effect="none"/></g><defs><clipPath id="clip319"><path d="M15,-1 L45,-1 L45,25 L15,25 L15,-1 z"/></clipPath></defs><g clip-path="url(#clip319)" fill="#000000" fill-opacity="1" opacity="1" stroke="none" stroke-opacity="0" transform="matrix(1,0,0,1,396,5)"><path d="M27.75,17.5 L27.625,16.5156 C27.8542,16.5781 28.0573,16.6094 28.2344,16.6094 C28.4635,16.6094 28.6484,16.5703 28.7891,16.4922 C28.9297,16.4141 29.0469,16.3073 29.1406,16.1719 C29.2031,16.0573 29.3125,15.7917 29.4688,15.375 C29.4792,15.3229 29.5104,15.2396 29.5625,15.125 L27.1875,8.89062 L28.3281,8.89062 L29.625,12.4844 C29.7917,12.9427 29.9427,13.4271 30.0781,13.9375 C30.2031,13.4479 30.349,12.974 30.5156,12.5156 L31.8438,8.89062 L32.8906,8.89062 L30.5312,15.2188 C30.2708,15.8958 30.0729,16.3646 29.9375,16.625 C29.75,16.9792 29.5339,17.237 29.2891,17.3984 C29.0443,17.5599 28.7552,17.6406 28.4219,17.6406 C28.224,17.6406 28,17.5938 27.75,17.5 z" fill-rule="nonzero" vector-effect="none"/></g><defs><clipPath id="clip339"><path d="M-411.5,-4.5 L106,-4.5 L106,219.5 L-411.5,219.5 L-411.5,-4.5 z"/></clipPath></defs><g clip-path="url(#clip339)" fill="none" opacity="1" stroke="#000000" stroke-linecap="butt" stroke-linejoin="miter" stroke-miterlimit="2" stroke-opacity="1" stroke-width="1" transform="matrix(1,0,0,1,411.5,4.5)"><path d="M0,0 L30,0 L30,26 L0,26 L0,0 z" fill-rule="evenodd" vector-effect="none"/></g><defs><clipPath id="clip342"><path d="M-166,-4 L351.5,-4 L351.5,220 L-166,220 L-166,-4 z"/></clipPath></defs><g clip-path="url(#clip342)" fill="#ffffff" fill-opacity="1" opacity="1" stroke="none" stroke-opacity="0" transform="matrix(1,0,0,1,166,4)"><path d="M0,0 L35,0 L35,26 L0,26 L0,0 z" fill-rule="evenodd" vector-effect="none"/></g><defs><clipPath id="clip346"><path d="M0,0 L36,0 L36,27 L0,27 L0,0 z"/></clipPath></defs><g clip-path="url(#clip346)" fill="none" opacity="1" stroke="none" stroke-opacity="0" transform="matrix(1,0,0,1,166,4)"><path d="M0,0 L36,0 L36,27 L0,27 L0,0 z" fill-rule="evenodd" vector-effect="none"/></g><defs><clipPath id="clip356"><path d="M13,-1 L48,-1 L48,25 L13,25 L13,-1 z"/></clipPath></defs><g clip-path="url(#clip356)" fill="#000000" fill-opacity="1" opacity="1" stroke="none" stroke-opacity="0" transform="matrix(1,0,0,1,153.5,5)"><path d="M23.7812,15.1094 L23.7812,8.89062 L24.7344,8.89062 L24.7344,9.82812 C24.974,9.39062 25.1953,9.10156 25.3984,8.96094 C25.6016,8.82031 25.8281,8.75 26.0781,8.75 C26.4323,8.75 26.7917,8.85938 27.1562,9.07812 L26.7969,10.0625 C26.5365,9.90625 26.2812,9.82812 26.0312,9.82812 C25.7917,9.82812 25.5807,9.89844 25.3984,10.0391 C25.2161,10.1797 25.0885,10.375 25.0156,10.625 C24.8906,11 24.8281,11.4062 24.8281,11.8438 L24.8281,15.1094 L23.7812,15.1094 M32.0312,13.1094 L33.125,13.2344 C32.9583,13.8698 32.6406,14.3646 32.1719,14.7188 C31.7031,15.0729 31.1094,15.25 30.3906,15.25 C29.4844,15.25 28.763,14.9688 28.2266,14.4062 C27.6901,13.8438 27.4219,13.0573 27.4219,12.0469 C27.4219,11.0052 27.6927,10.1953 28.2344,9.61719 C28.776,9.03906 29.474,8.75 30.3281,8.75 C31.1615,8.75 31.8411,9.03125 32.3672,9.59375 C32.8932,10.1562 33.1562,10.9531 33.1562,11.9844 C33.1562,12.0469 33.1562,12.1406 33.1562,12.2656 L28.5156,12.2656 C28.5573,12.9531 28.75,13.4766 29.0938,13.8359 C29.4375,14.1953 29.8698,14.375 30.3906,14.375 C30.776,14.375 31.1068,14.2734 31.3828,14.0703 C31.6589,13.8672 31.875,13.5469 32.0312,13.1094 M28.5781,11.4062 L32.0469,11.4062 C32.0052,10.875 31.875,10.4792 31.6562,10.2188 C31.3125,9.8125 30.875,9.60938 30.3438,9.60938 C29.8542,9.60938 29.4453,9.77083 29.1172,10.0938 C28.7891,10.4167 28.6094,10.8542 28.5781,11.4062 M34.7031,15.1094 L34.7031,9.70312 L33.7656,9.70312 L33.7656,8.89062 L34.7031,8.89062 L34.7031,8.21875 C34.7031,7.80208 34.7396,7.49479 34.8125,7.29688 C34.9167,7.01562 35.0964,6.79167 35.3516,6.625 C35.6068,6.45833 35.9635,6.375 36.4219,6.375 C36.724,6.375 37.0521,6.41146 37.4062,6.48438 L37.25,7.39062 C37.0312,7.35938 36.8229,7.34375 36.625,7.34375 C36.3021,7.34375 36.0755,7.41146 35.9453,7.54688 C35.8151,7.68229 35.75,7.9375 35.75,8.3125 L35.75,8.89062 L36.9688,8.89062 L36.9688,9.70312 L35.75,9.70312 L35.75,15.1094 L34.7031,15.1094" fill-rule="nonzero" vector-effect="none"/></g><defs><clipPath id="clip376"><path d="M-166.5,-4.5 L351,-4.5 L351,219.5 L-166.5,219.5 L-166.5,-4.5 z"/></clipPath></defs><g clip-path="url(#clip376)" fill="none" opacity="1" stroke="#000000" stroke-linecap="butt" stroke-linejoin="miter" stroke-miterlimit="2" stroke-opacity="1" stroke-width="1" transform="matrix(1,0,0,1,166.5,4.5)"><path d="M0,0 L35,0 L35,26 L0,26 L0,0 z" fill-rule="evenodd" vector-effect="none"/></g><defs><clipPath id="clip379"><path d="M-311,-4 L206.5,-4 L206.5,220 L-311,220 L-311,-4 z"/></clipPath></defs><g clip-path="url(#clip379)" fill="#ffffff" fill-opacity="1" opacity="1" stroke="none" stroke-opacity="0" transform="matrix(1,0,0,1,311,4)"><path d="M0,0 L25,0 L25,26 L0,26 L0,0 z" fill-rule="evenodd" vector-effect="none"/></g><defs><clipPath id="clip383"><path d="M0,0 L26,0 L26,27 L0,27 L0,0 z"/></clipPath></defs><g clip-path="url(#clip383)" fill="none" opacity="1" stroke="none" stroke-opacity="0" transform="matrix(1,0,0,1,311,4)"><path d="M0,0 L26,0 L26,27 L0,27 L0,0 z" fill-rule="evenodd" vector-effect="none"/></g><defs><clipPath id="clip393"><path d="M18,-1 L43,-1 L43,25 L18,25 L18,-1 z"/></clipPath></defs><g clip-path="url(#clip393)" fill="#000000" fill-opacity="1" opacity="1" stroke="none" stroke-opacity="0" transform="matrix(1,0,0,1,293.5,5)"><path d="M31.5312,15.1094 L31.5312,14.1875 C31.0417,14.8958 30.3802,15.25 29.5469,15.25 C29.1823,15.25 28.8411,15.1797 28.5234,15.0391 C28.2057,14.8984 27.9688,14.7214 27.8125,14.5078 C27.6562,14.2943 27.5469,14.0312 27.4844,13.7188 C27.4427,13.5208 27.4219,13.1927 27.4219,12.7344 L27.4219,8.89062 L28.4844,8.89062 L28.4844,12.3438 C28.4844,12.8854 28.5052,13.2552 28.5469,13.4531 C28.6094,13.724 28.7474,13.9401 28.9609,14.1016 C29.1745,14.263 29.4427,14.3438 29.7656,14.3438 C30.0781,14.3438 30.3724,14.263 30.6484,14.1016 C30.9245,13.9401 31.1224,13.7188 31.2422,13.4375 C31.362,13.1562 31.4219,12.75 31.4219,12.2188 L31.4219,8.89062 L32.4688,8.89062 L32.4688,15.1094 L31.5312,15.1094 z" fill-rule="nonzero" vector-effect="none"/></g><defs><clipPath id="clip413"><path d="M-311.5,-4.5 L206,-4.5 L206,219.5 L-311.5,219.5 L-311.5,-4.5 z"/></clipPath></defs><g clip-path="url(#clip413)" fill="none" opacity="1" stroke="#000000" stroke-linecap="butt" stroke-linejoin="miter" stroke-miterlimit="2" stroke-opacity="1" stroke-width="1" transform="matrix(1,0,0,1,311.5,4.5)"><path d="M0,0 L25,0 L25,26 L0,26 L0,0 z" fill-rule="evenodd" vector-effect="none"/></g><defs><clipPath id="clip416"><path d="M-236,-162 L281.5,-162 L281.5,62 L-236,62 L-236,-162 z"/></clipPath></defs><g clip-path="url(#clip416)" fill="#ffffff" fill-opacity="1" opacity="1" stroke="none" stroke-opacity="0" transform="matrix(1,0,0,1,236,162)"><path d="M0,0 L90,0 L90,60 L0,60 L0,0 z" fill-rule="evenodd" vector-effect="none"/></g><defs><clipPath id="clip421"><path d="M-1376.77,-979.5 L1264.64,-979.5 L1264.64,163.833 L-1376.77,163.833 L-1376.77,-979.5 z"/></clipPath></defs><g clip-path="url(#clip421)" fill="#ffffff" fill-opacity="1" opacity="0.75" stroke="none" stroke-opacity="0" transform="matrix(0.195918,0,0,0.195918,269.735,191.902)"><path d="M20,10 C20,15.5228 15.5228,20 10,20 C4.47715,20 0,15.5228 0,10 C0,4.47715 4.47715,0 10,0 C15.5228,0 20,4.47715 20,10 z" fill-rule="nonzero" vector-effect="none"/></g><defs><clipPath id="clip422"><path d="M-1376.77,-979.5 L1264.64,-979.5 L1264.64,163.833 L-1376.77,163.833 L-1376.77,-979.5 z"/></clipPath></defs><g clip-path="url(#clip422)" fill="none" opacity="0.75" stroke="#000000" stroke-linecap="butt" stroke-linejoin="miter" stroke-miterlimit="2" stroke-opacity="1" stroke-width="1" transform="matrix(0.195918,0,0,0.195918,269.735,191.902)"><path d="M20,10 C20,15.5228 15.5228,20 10,20 C4.47715,20 0,15.5228 0,10 C0,4.47715 4.47715,0 10,0 C15.5228,0 20,4.47715 20,10 z" fill-rule="nonzero" vector-effect="none"/></g><defs><clipPath id="clip425"><path d="M-1586.77,-919.5 L1054.64,-919.5 L1054.64,223.833 L-1586.77,223.833 L-1586.77,-919.5 z"/></clipPath></defs><g clip-path="url(#clip425)" fill="#ffffff" fill-opacity="1" opacity="0.75" stroke="none" stroke-opacity="0" transform="matrix(0.195918,0,0,0.195918,310.878,180.147)"><path d="M0,10 C0,4.47715 4.47715,0 10,0 C15.5228,0 20,4.47715 20,10 C20,15.5228 15.5228,20 10,20 C4.47715,20 0,15.5228 0,10 z" fill-rule="nonzero" vector-effect="none"/></g><defs><clipPath id="clip426"><path d="M-1586.77,-919.5 L1054.64,-919.5 L1054.64,223.833 L-1586.77,223.833 L-1586.77,-919.5 z"/></clipPath></defs><g clip-path="url(#clip426)" fill="none" opacity="0.75" stroke="#000000" stroke-linecap="butt" stroke-linejoin="miter" stroke-miterlimit="2" stroke-opacity="1" stroke-width="1" transform="matrix(0.195918,0,0,0.195918,310.878,180.147)"><path d="M0,10 C0,4.47715 4.47715,0 10,0 C15.5228,0 20,4.47715 20,10 C20,15.5228 15.5228,20 10,20 C4.47715,20 0,15.5228 0,10 z" fill-rule="nonzero" vector-effect="none"/></g><defs><clipPath id="clip429"><path d="M-1461.77,-914.5 L1179.64,-914.5 L1179.64,228.833 L-1461.77,228.833 L-1461.77,-914.5 z"/></clipPath></defs><g clip-path="url(#clip429)" fill="#ffffff" fill-opacity="1" opacity="0.75" stroke="none" stroke-opacity="0" transform="matrix(0.195918,0,0,0.195918,286.388,179.167)"><path d="M30,30 L0,15 L30,0 L30,30 z" fill-rule="nonzero" vector-effect="none"/></g><defs><clipPath id="clip430"><path d="M-1461.77,-914.5 L1179.64,-914.5 L1179.64,228.833 L-1461.77,228.833 L-1461.77,-914.5 z"/></clipPath></defs><g clip-path="url(#clip430)" fill="none" opacity="0.75" stroke="#000000" stroke-linecap="butt" stroke-linejoin="miter" stroke-miterlimit="2" stroke-opacity="1" stroke-width="1" transform="matrix(0.195918,0,0,0.195918,286.388,179.167)"><path d="M30,30 L0,15 L30,0 L30,30 z" fill-rule="nonzero" vector-effect="none"/></g><defs><clipPath id="clip433"><path d="M-1441.77,-974.5 L1199.64,-974.5 L1199.64,168.833 L-1441.77,168.833 L-1441.77,-974.5 z"/></clipPath></defs><g clip-path="url(#clip433)" fill="#ffffff" fill-opacity="1" opacity="0.75" stroke="none" stroke-opacity="0" transform="matrix(0.195918,0,0,0.195918,282.469,190.922)"><path d="M0,0 L30,0 L30,30 L0,30 L0,0 z" fill-rule="evenodd" vector-effect="none"/></g><defs><clipPath id="clip434"><path d="M-1441.77,-974.5 L1199.64,-974.5 L1199.64,168.833 L-1441.77,168.833 L-1441.77,-974.5 z"/></clipPath></defs><g clip-path="url(#clip434)" fill="none" opacity="0.75" stroke="#000000" stroke-linecap="butt" stroke-linejoin="miter" stroke-miterlimit="2" stroke-opacity="1" stroke-width="1" transform="matrix(0.195918,0,0,0.195918,282.469,190.922)"><path d="M0,0 L30,0 L30,30 L0,30 L0,0 z" fill-rule="evenodd" vector-effect="none"/></g><defs><clipPath id="clip437"><path d="M-1551.77,-974.5 L1089.64,-974.5 L1089.64,168.833 L-1551.77,168.833 L-1551.77,-974.5 z"/></clipPath></defs><g clip-path="url(#clip437)" fill="#ffffff" fill-opacity="1" opacity="0.75" stroke="none" stroke-opacity="0" transform="matrix(0.195918,0,0,0.195918,304.02,190.922)"><path d="M0,0 L30,15 L0,30 L0,0 z" fill-rule="nonzero" vector-effect="none"/></g><defs><clipPath id="clip438"><path d="M-1551.77,-974.5 L1089.64,-974.5 L1089.64,168.833 L-1551.77,168.833 L-1551.77,-974.5 z"/></clipPath></defs><g clip-path="url(#clip438)" fill="none" opacity="0.75" stroke="#000000" stroke-linecap="butt" stroke-linejoin="miter" stroke-miterlimit="2" stroke-opacity="1" stroke-width="1" transform="matrix(0.195918,0,0,0.195918,304.02,190.922)"><path d="M0,0 L30,15 L0,30 L0,0 z" fill-rule="nonzero" vector-effect="none"/></g><defs><clipPath id="clip441"><path d="M-1426.77,-1029.5 L1214.64,-1029.5 L1214.64,113.833 L-1426.77,113.833 L-1426.77,-1029.5 z"/></clipPath></defs><g clip-path="url(#clip441)" fill="#ffffff" fill-opacity="1" opacity="0.75" stroke="none" stroke-opacity="0" transform="matrix(0.195918,0,0,0.195918,279.531,201.698)"><path d="M30,30 L0,15 L30,0 L30,30 z" fill-rule="nonzero" vector-effect="none"/></g><defs><clipPath id="clip442"><path d="M-1426.77,-1029.5 L1214.64,-1029.5 L1214.64,113.833 L-1426.77,113.833 L-1426.77,-1029.5 z"/></clipPath></defs><g clip-path="url(#clip442)" fill="none" opacity="0.75" stroke="#000000" stroke-linecap="butt" stroke-linejoin="miter" stroke-miterlimit="2" stroke-opacity="1" stroke-width="1" transform="matrix(0.195918,0,0,0.195918,279.531,201.698)"><path d="M30,30 L0,15 L30,0 L30,30 z" fill-rule="nonzero" vector-effect="none"/></g><defs><clipPath id="clip445"><path d="M-1316.77,-974.5 L1324.64,-974.5 L1324.64,168.833 L-1316.77,168.833 L-1316.77,-974.5 z"/></clipPath></defs><g clip-path="url(#clip445)" fill="#ffffff" fill-opacity="1" opacity="0.75" stroke="none" stroke-opacity="0" transform="matrix(0.195918,0,0,0.195918,257.98,190.922)"><path d="M0,0 L30,15 L0,30 L0,0 z" fill-rule="nonzero" vector-effect="none"/></g><defs><clipPath id="clip446"><path d="M-1316.77,-974.5 L1324.64,-974.5 L1324.64,168.833 L-1316.77,168.833 L-1316.77,-974.5 z"/></clipPath></defs><g clip-path="url(#clip446)" fill="none" opacity="0.75" stroke="#000000" stroke-linecap="butt" stroke-linejoin="miter" stroke-miterlimit="2" stroke-opacity="1" stroke-width="1" transform="matrix(0.195918,0,0,0.195918,257.98,190.922)"><path d="M0,0 L30,15 L0,30 L0,0 z" fill-rule="nonzero" vector-effect="none"/></g><defs><clipPath id="clip449"><path d="M-1261.77,-902.5 L1379.64,-902.5 L1379.64,240.833 L-1261.77,240.833 L-1261.77,-902.5 z"/></clipPath></defs><g clip-path="url(#clip449)" fill="#ffffff" fill-opacity="1" opacity="0.75" stroke="none" stroke-opacity="0" transform="matrix(0.195918,0,0,0.195918,247.204,176.816)"><path d="M7,0 L23,0 C26.866,0 30,3.13401 30,7 C30,10.866 26.866,14 23,14 L7,14 C3.13401,14 0,10.866 0,7 C0,3.13401 3.13401,0 7,0 z" fill-rule="nonzero" vector-effect="none"/></g><defs><clipPath id="clip450"><path d="M-1261.77,-902.5 L1379.64,-902.5 L1379.64,240.833 L-1261.77,240.833 L-1261.77,-902.5 z"/></clipPath></defs><g clip-path="url(#clip450)" fill="none" opacity="0.75" stroke="#000000" stroke-linecap="butt" stroke-linejoin="miter" stroke-miterlimit="2" stroke-opacity="1" stroke-width="1" transform="matrix(0.195918,0,0,0.195918,247.204,176.816)"><path d="M7,0 L23,0 C26.866,0 30,3.13401 30,7 C30,10.866 26.866,14 23,14 L7,14 C3.13401,14 0,10.866 0,7 C0,3.13401 3.13401,0 7,0 z" fill-rule="nonzero" vector-effect="none"/></g><defs><clipPath id="clip454"><path d="M-1461.77,-857.5 L1179.64,-857.5 L1179.64,285.833 L-1461.77,285.833 L-1461.77,-857.5 z"/></clipPath></defs><g clip-path="url(#clip454)" fill="#ffffff" fill-opacity="1" opacity="0.75" stroke="none" stroke-opacity="0" transform="matrix(0.195918,0,0,0.195918,286.388,168)"><path d="M7,0 L23,0 C26.866,0 30,3.13401 30,7 C30,10.866 26.866,14 23,14 L7,14 C3.13401,14 0,10.866 0,7 C0,3.13401 3.13401,0 7,0 z" fill-rule="nonzero" vector-effect="none"/></g><defs><clipPath id="clip455"><path d="M-1461.77,-857.5 L1179.64,-857.5 L1179.64,285.833 L-1461.77,285.833 L-1461.77,-857.5 z"/></clipPath></defs><g clip-path="url(#clip455)" fill="none" opacity="0.75" stroke="#000000" stroke-linecap="butt" stroke-linejoin="miter" stroke-miterlimit="2" stroke-opacity="1" stroke-width="1" transform="matrix(0.195918,0,0,0.195918,286.388,168)"><path d="M7,0 L23,0 C26.866,0 30,3.13401 30,7 C30,10.866 26.866,14 23,14 L7,14 C3.13401,14 0,10.866 0,7 C0,3.13401 3.13401,0 7,0 z" fill-rule="nonzero" vector-effect="none"/></g><defs><clipPath id="clip459"><path d="M-1261.77,-1072.5 L1379.64,-1072.5 L1379.64,70.8333 L-1261.77,70.8333 L-1261.77,-1072.5 z"/></clipPath></defs><g clip-path="url(#clip459)" fill="#ffffff" fill-opacity="1" opacity="0.75" stroke="none" stroke-opacity="0" transform="matrix(0.195918,0,0,0.195918,247.204,210.122)"><path d="M23,14 L7,14 C3.13401,14 0,10.866 0,7 C0,3.13401 3.13401,0 7,0 L23,0 C26.866,0 30,3.13401 30,7 C30,10.866 26.866,14 23,14 z" fill-rule="nonzero" vector-effect="none"/></g><defs><clipPath id="clip460"><path d="M-1261.77,-1072.5 L1379.64,-1072.5 L1379.64,70.8333 L-1261.77,70.8333 L-1261.77,-1072.5 z"/></clipPath></defs><g clip-path="url(#clip460)" fill="none" opacity="0.75" stroke="#000000" stroke-linecap="butt" stroke-linejoin="miter" stroke-miterlimit="2" stroke-opacity="1" stroke-width="1" transform="matrix(0.195918,0,0,0.195918,247.204,210.122)"><path d="M23,14 L7,14 C3.13401,14 0,10.866 0,7 C0,3.13401 3.13401,0 7,0 L23,0 C26.866,0 30,3.13401 30,7 C30,10.866 26.866,14 23,14 z" fill-rule="nonzero" vector-effect="none"/></g><defs><clipPath id="clip466"><path d="M939.5,-1596.77 L939.5,1044.64 L-203.833,1044.64 L-203.833,-1596.77 L939.5,-1596.77 z"/></clipPath></defs><g clip-path="url(#clip466)" fill="#000000" fill-opacity="1" opacity="0.75" stroke="none" stroke-opacity="0" transform="matrix(1.19965e-17,-0.195918,0.195918,1.19965e-17,312.837,184.065)"><path d="M0,0 L-8,-4 L-8,4 L0,0 z" fill-rule="nonzero" vector-effect="none"/></g><defs><clipPath id="clip468"><path d="M-966.771,-694.5 L1674.64,-694.5 L1674.64,448.833 L-966.771,448.833 L-966.771,-694.5 z"/></clipPath></defs><g clip-path="url(#clip468)" fill="none" opacity="0.75" stroke="#000000" stroke-linecap="butt" stroke-linejoin="miter" stroke-miterlimit="2" stroke-opacity="1" stroke-width="1" transform="matrix(0.195918,0,0,0.195918,189.408,136.065)"><path d="M615,295 L630,295 L630,253" fill-rule="evenodd" vector-effect="none"/></g><defs><clipPath id="clip472"><path d="M-966.771,-694.5 L1674.64,-694.5 L1674.64,448.833 L-966.771,448.833 L-966.771,-694.5 z"/></clipPath></defs><g clip-path="url(#clip472)" fill="none" opacity="0.75" stroke="#000000" stroke-linecap="butt" stroke-linejoin="miter" stroke-miterlimit="2" stroke-opacity="1" stroke-width="1" transform="matrix(0.195918,0,0,0.195918,189.408,136.065)"><path d="M505,295 L548,295" fill-rule="evenodd" vector-effect="none"/></g><defs><clipPath id="clip475"><path d="M-966.771,-694.5 L1674.64,-694.5 L1674.64,448.833 L-966.771,448.833 L-966.771,-694.5 z"/></clipPath></defs><g clip-path="url(#clip475)" fill="none" opacity="0.75" stroke="#000000" stroke-linecap="butt" stroke-linejoin="miter" stroke-miterlimit="2" stroke-opacity="1" stroke-width="1" transform="matrix(0.195918,0,0,0.195918,189.408,136.065)"><path d="M548,295 L548,350" fill-rule="evenodd" vector-effect="none"/></g><defs><clipPath id="clip479"><path d="M1291.77,1079.5 L-1349.64,1079.5 L-1349.64,-63.8333 L1291.77,-63.8333 L1291.77,1079.5 z"/></clipPath></defs><g clip-path="url(#clip479)" fill="#000000" fill-opacity="1" opacity="0.75" stroke="none" stroke-opacity="0" transform="matrix(-0.195918,0,0,-0.195918,253.082,211.494)"><path d="M0,0 L-8,-4 L-8,4 L0,0 z" fill-rule="nonzero" vector-effect="none"/></g><defs><clipPath id="clip481"><path d="M-966.771,-694.5 L1674.64,-694.5 L1674.64,448.833 L-966.771,448.833 L-966.771,-694.5 z"/></clipPath></defs><g clip-path="url(#clip481)" fill="none" opacity="0.75" stroke="#000000" stroke-linecap="butt" stroke-linejoin="miter" stroke-miterlimit="2" stroke-opacity="1" stroke-width="1" transform="matrix(0.195918,0,0,0.195918,189.408,136.065)"><path d="M548,350 L548,385 L333,385" fill-rule="evenodd" vector-effect="none"/></g><defs><clipPath id="clip484"><path d="M1456.77,1044.5 L-1184.64,1044.5 L-1184.64,-98.8333 L1456.77,-98.8333 L1456.77,1044.5 z"/></clipPath></defs><g clip-path="url(#clip484)" fill="#000000" fill-opacity="1" opacity="0.75" stroke="none" stroke-opacity="0" transform="matrix(-0.195918,0,0,-0.195918,285.408,204.637)"><path d="M0,0 L-8,-4 L-8,4 L0,0 z" fill-rule="nonzero" vector-effect="none"/></g><defs><clipPath id="clip486"><path d="M-966.771,-694.5 L1674.64,-694.5 L1674.64,448.833 L-966.771,448.833 L-966.771,-694.5 z"/></clipPath></defs><g clip-path="url(#clip486)" fill="none" opacity="0.75" stroke="#000000" stroke-linecap="butt" stroke-linejoin="miter" stroke-miterlimit="2" stroke-opacity="1" stroke-width="1" transform="matrix(0.195918,0,0,0.195918,189.408,136.065)"><path d="M548,350 L498,350" fill-rule="evenodd" vector-effect="none"/></g><defs><clipPath id="clip489"><path d="M-1551.77,-989.5 L1089.64,-989.5 L1089.64,153.833 L-1551.77,153.833 L-1551.77,-989.5 z"/></clipPath></defs><g clip-path="url(#clip489)" fill="#000000" fill-opacity="1" opacity="0.75" stroke="none" stroke-opacity="0" transform="matrix(0.195918,0,0,0.195918,304.02,193.861)"><path d="M0,0 L-8,-4 L-8,4 L0,0 z" fill-rule="nonzero" vector-effect="none"/></g><defs><clipPath id="clip491"><path d="M-966.771,-694.5 L1674.64,-694.5 L1674.64,448.833 L-966.771,448.833 L-966.771,-694.5 z"/></clipPath></defs><g clip-path="url(#clip491)" fill="none" opacity="0.75" stroke="#000000" stroke-linecap="butt" stroke-linejoin="miter" stroke-miterlimit="2" stroke-opacity="1" stroke-width="1" transform="matrix(0.195918,0,0,0.195918,189.408,136.065)"><path d="M548,295 L577,295" fill-rule="evenodd" vector-effect="none"/></g><defs><clipPath id="clip493"><path d="M-1514.77,-989.5 L1126.64,-989.5 L1126.64,153.833 L-1514.77,153.833 L-1514.77,-989.5 z"/></clipPath></defs><g clip-path="url(#clip493)" fill="#000000" fill-opacity="1" opacity="0.75" stroke="none" stroke-opacity="0" transform="matrix(0.195918,0,0,0.195918,296.771,193.861)"><path d="M2.5,0 C2.5,1.38071 1.38071,2.5 0,2.5 C-1.38071,2.5 -2.5,1.38071 -2.5,0 C-2.5,-1.38071 -1.38071,-2.5 0,-2.5 C1.38071,-2.5 2.5,-1.38071 2.5,0 z" fill-rule="evenodd" vector-effect="none"/></g><defs><clipPath id="clip495"><path d="M-1514.77,-1044.5 L1126.64,-1044.5 L1126.64,98.8333 L-1514.77,98.8333 L-1514.77,-1044.5 z"/></clipPath></defs><g clip-path="url(#clip495)" fill="#000000" fill-opacity="1" opacity="0.75" stroke="none" stroke-opacity="0" transform="matrix(0.195918,0,0,0.195918,296.771,204.637)"><path d="M2.5,0 C2.5,1.38071 1.38071,2.5 0,2.5 C-1.38071,2.5 -2.5,1.38071 -2.5,0 C-2.5,-1.38071 -1.38071,-2.5 0,-2.5 C1.38071,-2.5 2.5,-1.38071 2.5,0 z" fill-rule="evenodd" vector-effect="none"/></g><defs><clipPath id="clip500"><path d="M-979.5,1386.77 L-979.5,-1254.64 L163.833,-1254.64 L163.833,1386.77 L-979.5,1386.77 z"/></clipPath></defs><g clip-path="url(#clip500)" fill="#000000" fill-opacity="1" opacity="0.75" stroke="none" stroke-opacity="0" transform="matrix(1.19965e-17,0.195918,-0.195918,1.19965e-17,271.694,191.902)"><path d="M0,0 L-8,-4 L-8,4 L0,0 z" fill-rule="nonzero" vector-effect="none"/></g><defs><clipPath id="clip502"><path d="M-966.771,-694.5 L1674.64,-694.5 L1674.64,448.833 L-966.771,448.833 L-966.771,-694.5 z"/></clipPath></defs><g clip-path="url(#clip502)" fill="none" opacity="0.75" stroke="#000000" stroke-linecap="butt" stroke-linejoin="miter" stroke-miterlimit="2" stroke-opacity="1" stroke-width="1" transform="matrix(0.195918,0,0,0.195918,189.408,136.065)"><path d="M495,235 L420,235 L420,277" fill-rule="evenodd" vector-effect="none"/></g><defs><clipPath id="clip507"><path d="M999.5,-1386.77 L999.5,1254.64 L-143.833,1254.64 L-143.833,-1386.77 L999.5,-1386.77 z"/></clipPath></defs><g clip-path="url(#clip507)" fill="#000000" fill-opacity="1" opacity="0.75" stroke="none" stroke-opacity="0" transform="matrix(1.19965e-17,-0.195918,0.195918,1.19965e-17,271.694,195.82)"><path d="M0,0 L-8,-4 L-8,4 L0,0 z" fill-rule="nonzero" vector-effect="none"/></g><defs><clipPath id="clip509"><path d="M-966.771,-694.5 L1674.64,-694.5 L1674.64,448.833 L-966.771,448.833 L-966.771,-694.5 z"/></clipPath></defs><g clip-path="url(#clip509)" fill="none" opacity="0.75" stroke="#000000" stroke-linecap="butt" stroke-linejoin="miter" stroke-miterlimit="2" stroke-opacity="1" stroke-width="1" transform="matrix(0.195918,0,0,0.195918,189.408,136.065)"><path d="M460,350 L420,350 L420,313" fill-rule="evenodd" vector-effect="none"/></g><defs><clipPath id="clip514"><path d="M-1441.77,-989.5 L1199.64,-989.5 L1199.64,153.833 L-1441.77,153.833 L-1441.77,-989.5 z"/></clipPath></defs><g clip-path="url(#clip514)" fill="#000000" fill-opacity="1" opacity="0.75" stroke="none" stroke-opacity="0" transform="matrix(0.195918,0,0,0.195918,282.469,193.861)"><path d="M0,0 L-8,-4 L-8,4 L0,0 z" fill-rule="nonzero" vector-effect="none"/></g><defs><clipPath id="clip516"><path d="M-966.771,-694.5 L1674.64,-694.5 L1674.64,448.833 L-966.771,448.833 L-966.771,-694.5 z"/></clipPath></defs><g clip-path="url(#clip516)" fill="none" opacity="0.75" stroke="#000000" stroke-linecap="butt" stroke-linejoin="miter" stroke-miterlimit="2" stroke-opacity="1" stroke-width="1" transform="matrix(0.195918,0,0,0.195918,189.408,136.065)"><path d="M430,295 L467,295" fill-rule="evenodd" vector-effect="none"/></g><defs><clipPath id="clip521"><path d="M-919.5,1596.77 L-919.5,-1044.64 L223.833,-1044.64 L223.833,1596.77 L-919.5,1596.77 z"/></clipPath></defs><g clip-path="url(#clip521)" fill="#000000" fill-opacity="1" opacity="0.75" stroke="none" stroke-opacity="0" transform="matrix(1.19965e-17,0.195918,-0.195918,1.19965e-17,312.837,180.147)"><path d="M0,0 L-8,-4 L-8,4 L0,0 z" fill-rule="nonzero" vector-effect="none"/></g><defs><clipPath id="clip523"><path d="M-966.771,-694.5 L1674.64,-694.5 L1674.64,448.833 L-966.771,448.833 L-966.771,-694.5 z"/></clipPath></defs><g clip-path="url(#clip523)" fill="none" opacity="0.75" stroke="#000000" stroke-linecap="butt" stroke-linejoin="miter" stroke-miterlimit="2" stroke-opacity="1" stroke-width="1" transform="matrix(0.195918,0,0,0.195918,189.408,136.065)"><path d="M525,170 L630,170 L630,217" fill-rule="evenodd" vector-effect="none"/></g><defs><clipPath id="clip528"><path d="M-1376.77,-989.5 L1264.64,-989.5 L1264.64,153.833 L-1376.77,153.833 L-1376.77,-989.5 z"/></clipPath></defs><g clip-path="url(#clip528)" fill="#000000" fill-opacity="1" opacity="0.75" stroke="none" stroke-opacity="0" transform="matrix(0.195918,0,0,0.195918,269.735,193.861)"><path d="M0,0 L-8,-4 L-8,4 L0,0 z" fill-rule="nonzero" vector-effect="none"/></g><defs><clipPath id="clip530"><path d="M-966.771,-694.5 L1674.64,-694.5 L1674.64,448.833 L-966.771,448.833 L-966.771,-694.5 z"/></clipPath></defs><g clip-path="url(#clip530)" fill="none" opacity="0.75" stroke="#000000" stroke-linecap="butt" stroke-linejoin="miter" stroke-miterlimit="2" stroke-opacity="1" stroke-width="1" transform="matrix(0.195918,0,0,0.195918,189.408,136.065)"><path d="M380,295 L402,295" fill-rule="evenodd" vector-effect="none"/></g><defs><clipPath id="clip535"><path d="M1491.77,929.5 L-1149.64,929.5 L-1149.64,-213.833 L1491.77,-213.833 L1491.77,929.5 z"/></clipPath></defs><g clip-path="url(#clip535)" fill="#000000" fill-opacity="1" opacity="0.75" stroke="none" stroke-opacity="0" transform="matrix(-0.195918,0,0,-0.195918,292.265,182.106)"><path d="M0,0 L-8,-4 L-8,4 L0,0 z" fill-rule="nonzero" vector-effect="none"/></g><defs><clipPath id="clip537"><path d="M-966.771,-694.5 L1674.64,-694.5 L1674.64,448.833 L-966.771,448.833 L-966.771,-694.5 z"/></clipPath></defs><g clip-path="url(#clip537)" fill="none" opacity="0.75" stroke="#000000" stroke-linecap="butt" stroke-linejoin="miter" stroke-miterlimit="2" stroke-opacity="1" stroke-width="1" transform="matrix(0.195918,0,0,0.195918,189.408,136.065)"><path d="M620,235 L533,235" fill-rule="evenodd" vector-effect="none"/></g><defs><clipPath id="clip542"><path d="M-1316.77,-989.5 L1324.64,-989.5 L1324.64,153.833 L-1316.77,153.833 L-1316.77,-989.5 z"/></clipPath></defs><g clip-path="url(#clip542)" fill="#000000" fill-opacity="1" opacity="0.75" stroke="none" stroke-opacity="0" transform="matrix(0.195918,0,0,0.195918,257.98,193.861)"><path d="M0,0 L-8,-4 L-8,4 L0,0 z" fill-rule="nonzero" vector-effect="none"/></g><defs><clipPath id="clip544"><path d="M-966.771,-694.5 L1674.64,-694.5 L1674.64,448.833 L-966.771,448.833 L-966.771,-694.5 z"/></clipPath></defs><g clip-path="url(#clip544)" fill="none" opacity="0.75" stroke="#000000" stroke-linecap="butt" stroke-linejoin="miter" stroke-miterlimit="2" stroke-opacity="1" stroke-width="1" transform="matrix(0.195918,0,0,0.195918,189.408,136.065)"><path d="M325,215 L335,215 L335,295 L342,295" fill-rule="evenodd" vector-effect="none"/></g><defs><clipPath id="clip551"><path d="M-87,-15 L3,-15 L3,45 L-87,45 L-87,-15 z"/></clipPath></defs><g clip-path="url(#clip551)" fill="none" opacity="1" stroke="#000000" stroke-linecap="butt" stroke-linejoin="miter" stroke-miterlimit="2" stroke-opacity="1" stroke-width="1" transform="matrix(1,0,0,1,323,177)"><text fill="#000000" fill-opacity="1" font-family="Arial" font-size="9" font-style="normal" font-weight="400" stroke="none" textLength="5" x="-5" xml:space="preserve" y="3">u</text></g><defs><clipPath id="clip552"><path d="M-87,-45 L3,-45 L3,15 L-87,15 L-87,-45 z"/></clipPath></defs><g clip-path="url(#clip552)" fill="none" opacity="1" stroke="#000000" stroke-linecap="butt" stroke-linejoin="miter" stroke-miterlimit="2" stroke-opacity="1" stroke-width="1" transform="matrix(1,0,0,1,323,207)"><text fill="#000000" fill-opacity="1" font-family="Arial" font-size="9" font-style="normal" font-weight="400" stroke="none" textLength="4.5" x="-4.5" xml:space="preserve" y="3">y</text></g><defs><clipPath id="clip553"><path d="M-3,-30 L87,-30 L87,30 L-3,30 L-3,-30 z"/></clipPath></defs><g clip-path="url(#clip553)" fill="none" opacity="1" stroke="#000000" stroke-linecap="butt" stroke-linejoin="miter" stroke-miterlimit="2" stroke-opacity="1" stroke-width="1" transform="matrix(1,0,0,1,239,192)"><text fill="#000000" fill-opacity="1" font-family="Arial" font-size="9" font-style="normal" font-weight="400" stroke="none" textLength="22" x="0" xml:space="preserve" y="3">x_hat</text></g><defs><clipPath id="clip558"><path d="M-236.5,-162.5 L281,-162.5 L281,61.5 L-236.5,61.5 L-236.5,-162.5 z"/></clipPath></defs><g clip-path="url(#clip558)" fill="none" opacity="1" stroke="#000000" stroke-linecap="butt" stroke-linejoin="miter" stroke-miterlimit="2" stroke-opacity="1" stroke-width="1" transform="matrix(1,0,0,1,236.5,162.5)"><path d="M0,0 L90,0 L90,60 L0,60 L0,0 z" fill-rule="evenodd" vector-effect="none"/></g><defs><clipPath id="clip564"><path d="M0,0 L75,0 L75,14 L0,14 L0,0 z"/></clipPath></defs><g clip-path="url(#clip564)" fill="none" opacity="1" stroke="#000000" stroke-linecap="square" stroke-linejoin="bevel" stroke-opacity="1" stroke-width="1" transform="matrix(1,0,0,1,243.719,146)"><text fill="#000000" fill-opacity="1" font-family="Arial" font-size="10" font-style="normal" font-weight="400" stroke="none" textLength="71.5625" x="1.5" xml:space="preserve" y="10">Linear Observer</text></g><defs><clipPath id="clip572"><path d="M-181,-67 L336.5,-67 L336.5,157 L-181,157 L-181,-67 z"/></clipPath></defs><g clip-path="url(#clip572)" fill="#ffffff" fill-opacity="1" opacity="1" stroke="none" stroke-opacity="0" transform="matrix(1,0,0,1,181,67)"><path d="M0,0 L30,15 L0,30 L0,0 z" fill-rule="nonzero" vector-effect="none"/></g><defs><clipPath id="clip576"><path d="M0,0 L30,0 L30,30 L0,30 L0,0 z"/></clipPath></defs><g clip-path="url(#clip576)" fill="none" opacity="1" stroke="none" stroke-opacity="0" transform="matrix(1,0,0,1,181,67)"><path d="M0,0 L30,15 L0,30 L0,0 z" fill-rule="nonzero" vector-effect="none"/></g><defs><clipPath id="clip586"><path d="M6,-1 L36,-1 L36,29 L6,29 L6,-1 z"/></clipPath></defs><g clip-path="url(#clip586)" fill="#000000" fill-opacity="1" opacity="1" stroke="none" stroke-opacity="0" transform="matrix(1,0,0,1,175.492,67.9141)"><path d="M7.6875,17.5781 L7.6875,10.4219 L8.64062,10.4219 L8.64062,13.9688 L12.1875,10.4219 L13.4688,10.4219 L10.4688,13.3125 L13.6094,17.5781 L12.3594,17.5781 L9.8125,13.9531 L8.64062,15.0938 L8.64062,17.5781 L7.6875,17.5781 M13.9219,11.7344 L14.1406,11.0469 C14.6615,11.224 15.0417,11.3802 15.2812,11.5156 C15.2188,10.9219 15.1823,10.5156 15.1719,10.2969 L15.8906,10.2969 C15.8802,10.6198 15.8385,11.026 15.7656,11.5156 C16.1094,11.3385 16.4948,11.1823 16.9219,11.0469 L17.1562,11.7344 C16.7396,11.8698 16.3333,11.9583 15.9375,12 C16.1354,12.1771 16.4167,12.4844 16.7812,12.9219 L16.1875,13.3438 C16,13.0833 15.776,12.7344 15.5156,12.2969 C15.276,12.7552 15.0677,13.1042 14.8906,13.3438 L14.3125,12.9219 C14.6875,12.4635 14.9583,12.1562 15.125,12 C14.6979,11.9271 14.2969,11.8385 13.9219,11.7344 M21.5625,17.5781 L21.5625,16.8125 C21.1562,17.4062 20.6042,17.7031 19.9062,17.7031 C19.6042,17.7031 19.3203,17.6432 19.0547,17.5234 C18.7891,17.4036 18.5911,17.2552 18.4609,17.0781 C18.3307,16.901 18.2396,16.6823 18.1875,16.4219 C18.1562,16.2552 18.1406,15.9844 18.1406,15.6094 L18.1406,12.3906 L19.0156,12.3906 L19.0156,15.2656 C19.0156,15.724 19.0365,16.0365 19.0781,16.2031 C19.1302,16.4323 19.2448,16.612 19.4219,16.7422 C19.599,16.8724 19.8229,16.9375 20.0938,16.9375 C20.3542,16.9375 20.599,16.8698 20.8281,16.7344 C21.0573,16.599 21.2214,16.4141 21.3203,16.1797 C21.4193,15.9453 21.4688,15.6094 21.4688,15.1719 L21.4688,12.3906 L22.3438,12.3906 L22.3438,17.5781 L21.5625,17.5781" fill-rule="nonzero" vector-effect="none"/></g><defs><clipPath id="clip606"><path d="M-181.5,-67.5 L336,-67.5 L336,156.5 L-181.5,156.5 L-181.5,-67.5 z"/></clipPath></defs><g clip-path="url(#clip606)" fill="none" opacity="1" stroke="#000000" stroke-linecap="butt" stroke-linejoin="miter" stroke-miterlimit="2" stroke-opacity="1" stroke-width="1" transform="matrix(1,0,0,1,181.5,67.5)"><path d="M0,0 L30,15 L0,30 L0,0 z" fill-rule="nonzero" vector-effect="none"/></g><defs><clipPath id="clip609"><path d="M-236,-67 L281.5,-67 L281.5,157 L-236,157 L-236,-67 z"/></clipPath></defs><g clip-path="url(#clip609)" fill="#ffffff" fill-opacity="1" opacity="1" stroke="none" stroke-opacity="0" transform="matrix(1,0,0,1,236,67)"><path d="M0,0 L30,0 L30,30 L0,30 L0,0 z" fill-rule="evenodd" vector-effect="none"/></g><defs><clipPath id="clip613"><path d="M0,0 L31,0 L31,31 L0,31 L0,0 z"/></clipPath></defs><g clip-path="url(#clip613)" fill="none" opacity="1" stroke="none" stroke-opacity="0" transform="matrix(1,0,0,1,236,67)"><path d="M0,0 L31,0 L31,31 L0,31 L0,0 z" fill-rule="evenodd" vector-effect="none"/></g><defs><clipPath id="clip623"><path d="M1,1 L31,1 L31,31 L1,31 L1,1 z"/></clipPath></defs><g clip-path="url(#clip623)" fill="none" opacity="1" stroke="#ababab" stroke-linecap="round" stroke-linejoin="round" stroke-opacity="1" stroke-width="1" transform="matrix(1,0,0,1,235,65.9999)"><path d="M3.5,16.5 L29.5,16.5" fill-rule="nonzero" vector-effect="none"/></g><defs><clipPath id="clip624"><path d="M1,1 L31,1 L31,31 L1,31 L1,1 z"/></clipPath></defs><g clip-path="url(#clip624)" fill="none" opacity="1" stroke="#ababab" stroke-linecap="round" stroke-linejoin="round" stroke-opacity="1" stroke-width="1" transform="matrix(1,0,0,1,235,65.9999)"><path d="M16.5,3.5 L16.5,29.5" fill-rule="nonzero" vector-effect="none"/></g><defs><clipPath id="clip625"><path d="M1,1 L31,1 L31,31 L1,31 L1,1 z"/></clipPath></defs><g clip-path="url(#clip625)" fill="none" opacity="1" stroke="#000000" stroke-linecap="round" stroke-linejoin="round" stroke-opacity="1" stroke-width="1" transform="matrix(1,0,0,1,235,65.9999)"><path d="M4.5,25.5 L11.5,25.5 L21.5,6.5 L28.5,6.5" fill-rule="nonzero" vector-effect="none"/></g><defs><clipPath id="clip645"><path d="M-236.5,-67.5 L281,-67.5 L281,156.5 L-236.5,156.5 L-236.5,-67.5 z"/></clipPath></defs><g clip-path="url(#clip645)" fill="none" opacity="1" stroke="#000000" stroke-linecap="butt" stroke-linejoin="miter" stroke-miterlimit="2" stroke-opacity="1" stroke-width="1" transform="matrix(1,0,0,1,236.5,67.5)"><path d="M0,0 L30,0 L30,30 L0,30 L0,0 z" fill-rule="evenodd" vector-effect="none"/></g><defs><clipPath id="clip651"><path d="M0,0 L56,0 L56,14 L0,14 L0,0 z"/></clipPath></defs><g clip-path="url(#clip651)" fill="none" opacity="1" stroke="#000000" stroke-linecap="square" stroke-linejoin="bevel" stroke-opacity="1" stroke-width="1" transform="matrix(1,0,0,1,222.82,99)"><text fill="#000000" fill-opacity="1" font-family="Arial" font-size="10" font-style="normal" font-weight="400" stroke="none" textLength="54.3594" x="1" xml:space="preserve" y="10">Motor Limits</text></g><defs><clipPath id="clip659"><path d="M-411,-132 L106.5,-132 L106.5,92 L-411,92 L-411,-132 z"/></clipPath></defs><g clip-path="url(#clip659)" fill="#ffffff" fill-opacity="1" opacity="1" stroke="none" stroke-opacity="0" transform="matrix(1,0,0,1,411,132)"><path d="M0,0 L30,0 L30,30 L0,30 L0,0 z" fill-rule="evenodd" vector-effect="none"/></g><defs><clipPath id="clip663"><path d="M-27,-15 L3,-15 L3,15 L-27,15 L-27,-15 z"/></clipPath></defs><g clip-path="url(#clip663)" fill="none" opacity="1" stroke="#000000" stroke-linecap="butt" stroke-linejoin="miter" stroke-miterlimit="2" stroke-opacity="1" stroke-width="1" transform="matrix(1,0,0,1,438,147)"><text fill="#000000" fill-opacity="1" font-family="Arial" font-size="9" font-style="normal" font-weight="400" stroke="none" textLength="5" x="-7.5" xml:space="preserve" y="3">n</text></g><defs><clipPath id="clip668"><path d="M-411.5,-132.5 L106,-132.5 L106,91.5 L-411.5,91.5 L-411.5,-132.5 z"/></clipPath></defs><g clip-path="url(#clip668)" fill="none" opacity="1" stroke="#000000" stroke-linecap="butt" stroke-linejoin="miter" stroke-miterlimit="2" stroke-opacity="1" stroke-width="1" transform="matrix(1,0,0,1,411.5,132.5)"><path d="M0,0 L30,0 L30,30 L0,30 L0,0 z" fill-rule="evenodd" vector-effect="none"/></g><defs><clipPath id="clip674"><path d="M0,0 L28,0 L28,14 L0,14 L0,0 z"/></clipPath></defs><g clip-path="url(#clip674)" fill="none" opacity="1" stroke="#000000" stroke-linecap="square" stroke-linejoin="bevel" stroke-opacity="1" stroke-width="1" transform="matrix(1,0,0,1,412.234,164)"><text fill="#000000" fill-opacity="1" font-family="Arial" font-size="10" font-style="normal" font-weight="400" stroke="none" textLength="25.5312" x="1" xml:space="preserve" y="10">Noise</text></g><defs><clipPath id="clip682"><path d="M-181,-122 L336.5,-122 L336.5,102 L-181,102 L-181,-122 z"/></clipPath></defs><g clip-path="url(#clip682)" fill="#ffffff" fill-opacity="1" opacity="1" stroke="none" stroke-opacity="0" transform="matrix(1,0,0,1,181,122)"><path d="M0,0 L60,0 L60,30 L0,30 L0,0 z" fill-rule="evenodd" vector-effect="none"/></g><defs><clipPath id="clip686"><path d="M0,0 L61,0 L61,31 L0,31 L0,0 z"/></clipPath></defs><g clip-path="url(#clip686)" fill="none" opacity="1" stroke="none" stroke-opacity="0" transform="matrix(1,0,0,1,181,122)"><path d="M0,0 L61,0 L61,31 L0,31 L0,0 z" fill-rule="evenodd" vector-effect="none"/></g><defs><clipPath id="clip696"><path d="M0,-1 L60,-1 L60,27 L0,27 L0,-1 z"/></clipPath></defs><g clip-path="url(#clip696)" fill="#000000" fill-opacity="1" opacity="1" stroke="none" stroke-opacity="0" transform="matrix(1,0,0,1,181,125)"><path d="M15.4219,15.1094 L17.6875,11.875 L15.5938,8.89062 L16.9062,8.89062 L17.8594,10.3438 C18.0365,10.625 18.1823,10.8594 18.2969,11.0469 C18.4635,10.7865 18.6198,10.5573 18.7656,10.3594 L19.8125,8.89062 L21.0781,8.89062 L18.9219,11.8125 L21.2344,15.1094 L19.9531,15.1094 L18.6719,13.1719 L18.3281,12.6562 L16.6875,15.1094 L15.4219,15.1094 M21.1406,17.5 L21.1406,16.7344 L28.1406,16.7344 L28.1406,17.5 L21.1406,17.5 M28.7969,15.1094 L28.7969,6.51562 L29.8438,6.51562 L29.8438,9.59375 C30.3333,9.03125 30.9531,8.75 31.7031,8.75 C32.1719,8.75 32.5755,8.84115 32.9141,9.02344 C33.2526,9.20573 33.4948,9.45573 33.6406,9.77344 C33.7865,10.0911 33.8594,10.5573 33.8594,11.1719 L33.8594,15.1094 L32.8125,15.1094 L32.8125,11.1719 C32.8125,10.6406 32.6979,10.2552 32.4688,10.0156 C32.2396,9.77604 31.9167,9.65625 31.5,9.65625 C31.1875,9.65625 30.8932,9.73698 30.6172,9.89844 C30.3411,10.0599 30.1432,10.2786 30.0234,10.5547 C29.9036,10.8307 29.8438,11.2135 29.8438,11.7031 L29.8438,15.1094 L28.7969,15.1094 M39.5312,14.3438 C39.1354,14.6771 38.7578,14.9115 38.3984,15.0469 C38.0391,15.1823 37.651,15.25 37.2344,15.25 C36.5469,15.25 36.0208,15.0833 35.6562,14.75 C35.2917,14.4167 35.1094,13.9896 35.1094,13.4688 C35.1094,13.1667 35.1771,12.888 35.3125,12.6328 C35.4479,12.3776 35.6302,12.1745 35.8594,12.0234 C36.0885,11.8724 36.3438,11.7604 36.625,11.6875 C36.8229,11.625 37.1354,11.5677 37.5625,11.5156 C38.4062,11.4219 39.0312,11.3021 39.4375,11.1562 C39.4375,11.0104 39.4375,10.9219 39.4375,10.8906 C39.4375,10.4531 39.3385,10.1458 39.1406,9.96875 C38.8698,9.73958 38.4688,9.625 37.9375,9.625 C37.4479,9.625 37.0833,9.71094 36.8438,9.88281 C36.6042,10.0547 36.4271,10.3594 36.3125,10.7969 L35.2812,10.6562 C35.375,10.2188 35.5312,9.86458 35.75,9.59375 C35.9688,9.32292 36.2812,9.11458 36.6875,8.96875 C37.0938,8.82292 37.5625,8.75 38.0938,8.75 C38.625,8.75 39.0573,8.8125 39.3906,8.9375 C39.724,9.0625 39.9688,9.21875 40.125,9.40625 C40.2812,9.59375 40.3906,9.83333 40.4531,10.125 C40.4844,10.3021 40.5,10.625 40.5,11.0938 L40.5,12.5 C40.5,13.4792 40.5234,14.099 40.5703,14.3594 C40.6172,14.6198 40.7083,14.8698 40.8438,15.1094 L39.7344,15.1094 C39.6302,14.8906 39.5625,14.6354 39.5312,14.3438 M39.4375,11.9844 C39.0521,12.1406 38.4792,12.276 37.7188,12.3906 C37.2812,12.4531 36.974,12.5234 36.7969,12.6016 C36.6198,12.6797 36.4818,12.7917 36.3828,12.9375 C36.2839,13.0833 36.2344,13.25 36.2344,13.4375 C36.2344,13.7188 36.3411,13.9531 36.5547,14.1406 C36.7682,14.3281 37.0781,14.4219 37.4844,14.4219 C37.8906,14.4219 38.2526,14.3333 38.5703,14.1562 C38.888,13.9792 39.1198,13.7344 39.2656,13.4219 C39.3802,13.1823 39.4375,12.8333 39.4375,12.375 L39.4375,11.9844 M44.4375,14.1719 L44.5938,15.0938 C44.2917,15.1562 44.026,15.1875 43.7969,15.1875 C43.4115,15.1875 43.1146,15.1276 42.9062,15.0078 C42.6979,14.888 42.5495,14.7292 42.4609,14.5312 C42.3724,14.3333 42.3281,13.9167 42.3281,13.2812 L42.3281,9.70312 L41.5625,9.70312 L41.5625,8.89062 L42.3281,8.89062 L42.3281,7.34375 L43.375,6.71875 L43.375,8.89062 L44.4375,8.89062 L44.4375,9.70312 L43.375,9.70312 L43.375,13.3438 C43.375,13.6458 43.3932,13.8385 43.4297,13.9219 C43.4661,14.0052 43.526,14.0729 43.6094,14.125 C43.6927,14.1771 43.8125,14.2031 43.9688,14.2031 C44.0938,14.2031 44.25,14.1927 44.4375,14.1719" fill-rule="nonzero" vector-effect="none"/></g><defs><clipPath id="clip716"><path d="M-181.5,-122.5 L336,-122.5 L336,101.5 L-181.5,101.5 L-181.5,-122.5 z"/></clipPath></defs><g clip-path="url(#clip716)" fill="none" opacity="1" stroke="#000000" stroke-linecap="butt" stroke-linejoin="miter" stroke-miterlimit="2" stroke-opacity="1" stroke-width="1" transform="matrix(1,0,0,1,181.5,122.5)"><path d="M0,0 L60,0 L60,30 L0,30 L0,0 z" fill-rule="evenodd" vector-effect="none"/></g><defs><clipPath id="clip719"><path d="M-481,-72 L36.5,-72 L36.5,152 L-481,152 L-481,-72 z"/></clipPath></defs><g clip-path="url(#clip719)" fill="#ffffff" fill-opacity="1" opacity="1" stroke="none" stroke-opacity="0" transform="matrix(1,0,0,1,481,72)"><path d="M20,10 C20,15.5228 15.5228,20 10,20 C4.47715,20 0,15.5228 0,10 C0,4.47715 4.47715,0 10,0 C15.5228,0 20,4.47715 20,10 z" fill-rule="nonzero" vector-effect="none"/></g><defs><clipPath id="clip723"><path d="M1015,430 L1035,430 L1035,450 L1015,450 L1015,430 z"/></clipPath></defs><g clip-path="url(#clip723)" fill="none" opacity="1" stroke="#000000" stroke-linecap="butt" stroke-linejoin="miter" stroke-miterlimit="2" stroke-opacity="1" stroke-width="1" transform="matrix(1,0,0,1,-533.5,-357.5)"><polyline fill="none" points="1018,440 1022,440" vector-effect="none"/></g><defs><clipPath id="clip724"><path d="M1015,430 L1035,430 L1035,450 L1015,450 L1015,430 z"/></clipPath></defs><g clip-path="url(#clip724)" fill="none" opacity="1" stroke="#000000" stroke-linecap="butt" stroke-linejoin="miter" stroke-miterlimit="2" stroke-opacity="1" stroke-width="1" transform="matrix(1,0,0,1,-533.5,-357.5)"><polyline fill="none" points="1020,438 1020,442" vector-effect="none"/></g><defs><clipPath id="clip725"><path d="M1015,430 L1035,430 L1035,450 L1015,450 L1015,430 z"/></clipPath></defs><g clip-path="url(#clip725)" fill="none" opacity="1" stroke="#000000" stroke-linecap="butt" stroke-linejoin="miter" stroke-miterlimit="2" stroke-opacity="1" stroke-width="1" transform="matrix(1,0,0,1,-533.5,-357.5)"><polyline fill="none" points="1023,445 1027,445" vector-effect="none"/></g><defs><clipPath id="clip726"><path d="M1015,430 L1035,430 L1035,450 L1015,450 L1015,430 z"/></clipPath></defs><g clip-path="url(#clip726)" fill="none" opacity="1" stroke="#000000" stroke-linecap="butt" stroke-linejoin="miter" stroke-miterlimit="2" stroke-opacity="1" stroke-width="1" transform="matrix(1,0,0,1,-533.5,-357.5)"><polyline fill="none" points="1025,443 1025,447" vector-effect="none"/></g><defs><clipPath id="clip731"><path d="M-481.5,-72.5 L36,-72.5 L36,151.5 L-481.5,151.5 L-481.5,-72.5 z"/></clipPath></defs><g clip-path="url(#clip731)" fill="none" opacity="1" stroke="#000000" stroke-linecap="butt" stroke-linejoin="miter" stroke-miterlimit="2" stroke-opacity="1" stroke-width="1" transform="matrix(1,0,0,1,481.5,72.5)"><path d="M20,10 C20,15.5228 15.5228,20 10,20 C4.47715,20 0,15.5228 0,10 C0,4.47715 4.47715,0 10,0 C15.5228,0 20,4.47715 20,10 z" fill-rule="nonzero" vector-effect="none"/></g><defs><clipPath id="clip734"><path d="M-126,-82 L391.5,-82 L391.5,142 L-126,142 L-126,-82 z"/></clipPath></defs><g clip-path="url(#clip734)" fill="#000000" fill-opacity="1" opacity="1" stroke="none" stroke-opacity="0" transform="matrix(1,0,0,1,126,82)"><path d="M0,0 L-8,-4 L-8,4 L0,0 z" fill-rule="nonzero" vector-effect="none"/></g><defs><clipPath id="clip737"><path d="M534,358 L1051.5,358 L1051.5,582 L534,582 L534,358 z"/></clipPath></defs><g clip-path="url(#clip737)" fill="none" opacity="1" stroke="#000000" stroke-linecap="butt" stroke-linejoin="miter" stroke-miterlimit="2" stroke-opacity="1" stroke-width="1" transform="matrix(1,0,0,1,-534,-358)"><path d="M640.5,440.5 L652.5,440.5" fill-rule="evenodd" vector-effect="none"/></g><defs><clipPath id="clip740"><path d="M-166,-17 L351.5,-17 L351.5,207 L-166,207 L-166,-17 z"/></clipPath></defs><g clip-path="url(#clip740)" fill="#000000" fill-opacity="1" opacity="1" stroke="none" stroke-opacity="0" transform="matrix(1,0,0,1,166,17)"><path d="M0,0 L-8,-4 L-8,4 L0,0 z" fill-rule="nonzero" vector-effect="none"/></g><defs><clipPath id="clip743"><path d="M534,358 L1051.5,358 L1051.5,582 L534,582 L534,358 z"/></clipPath></defs><g clip-path="url(#clip743)" fill="none" opacity="1" stroke="#000000" stroke-linecap="butt" stroke-linejoin="miter" stroke-miterlimit="2" stroke-opacity="1" stroke-width="1" transform="matrix(1,0,0,1,-534,-358)"><path d="M640.5,440.5 L640.5,375.5 L692.5,375.5" fill-rule="evenodd" vector-effect="none"/></g><defs><clipPath id="clip746"><path d="M534,358 L1051.5,358 L1051.5,582 L534,582 L534,358 z"/></clipPath></defs><g clip-path="url(#clip746)" fill="none" opacity="1" stroke="#000000" stroke-linecap="butt" stroke-linejoin="miter" stroke-miterlimit="2" stroke-opacity="1" stroke-width="1" transform="matrix(1,0,0,1,-534,-358)"><path d="M625.5,440.5 L640.5,440.5" fill-rule="evenodd" vector-effect="none"/></g><defs><clipPath id="clip751"><path d="M-106,-82 L411.5,-82 L411.5,142 L-106,142 L-106,-82 z"/></clipPath></defs><g clip-path="url(#clip751)" fill="#000000" fill-opacity="1" opacity="1" stroke="none" stroke-opacity="0" transform="matrix(1,0,0,1,106,82)"><path d="M3,0.5 C3,1.88071 1.88071,3 0.5,3 C-0.880712,3 -2,1.88071 -2,0.5 C-2,-0.880712 -0.880712,-2 0.5,-2 C1.88071,-2 3,-0.880712 3,0.5 z" fill-rule="evenodd" vector-effect="none"/></g><defs><clipPath id="clip754"><path d="M441,17 L-76.5,17 L-76.5,-207 L441,-207 L441,17 z"/></clipPath></defs><g clip-path="url(#clip754)" fill="#000000" fill-opacity="1" opacity="1" stroke="none" stroke-opacity="0" transform="matrix(-1,1.22465e-16,-1.22465e-16,-1,441,17)"><path d="M0,0 L-8,-4 L-8,4 L0,0 z" fill-rule="nonzero" vector-effect="none"/></g><defs><clipPath id="clip757"><path d="M534,358 L1051.5,358 L1051.5,582 L534,582 L534,358 z"/></clipPath></defs><g clip-path="url(#clip757)" fill="none" opacity="1" stroke="#000000" stroke-linecap="butt" stroke-linejoin="miter" stroke-miterlimit="2" stroke-opacity="1" stroke-width="1" transform="matrix(1,0,0,1,-534,-358)"><path d="M995.5,375.5 L983.5,375.5" fill-rule="evenodd" vector-effect="none"/></g><defs><clipPath id="clip760"><path d="M-426,-82 L91.5,-82 L91.5,142 L-426,142 L-426,-82 z"/></clipPath></defs><g clip-path="url(#clip760)" fill="#000000" fill-opacity="1" opacity="1" stroke="none" stroke-opacity="0" transform="matrix(1,0,0,1,426,82)"><path d="M0,0 L-8,-4 L-8,4 L0,0 z" fill-rule="nonzero" vector-effect="none"/></g><defs><clipPath id="clip763"><path d="M534,358 L1051.5,358 L1051.5,582 L534,582 L534,358 z"/></clipPath></defs><g clip-path="url(#clip763)" fill="none" opacity="1" stroke="#000000" stroke-linecap="butt" stroke-linejoin="miter" stroke-miterlimit="2" stroke-opacity="1" stroke-width="1" transform="matrix(1,0,0,1,-534,-358)"><path d="M930.5,440.5 L952.5,440.5" fill-rule="evenodd" vector-effect="none"/></g><defs><clipPath id="clip766"><path d="M-236,-82 L281.5,-82 L281.5,142 L-236,142 L-236,-82 z"/></clipPath></defs><g clip-path="url(#clip766)" fill="#000000" fill-opacity="1" opacity="1" stroke="none" stroke-opacity="0" transform="matrix(1,0,0,1,236,82)"><path d="M0,0 L-8,-4 L-8,4 L0,0 z" fill-rule="nonzero" vector-effect="none"/></g><defs><clipPath id="clip769"><path d="M534,358 L1051.5,358 L1051.5,582 L534,582 L534,358 z"/></clipPath></defs><g clip-path="url(#clip769)" fill="none" opacity="1" stroke="#000000" stroke-linecap="butt" stroke-linejoin="miter" stroke-miterlimit="2" stroke-opacity="1" stroke-width="1" transform="matrix(1,0,0,1,-534,-358)"><path d="M745.5,440.5 L762.5,440.5" fill-rule="evenodd" vector-effect="none"/></g><defs><clipPath id="clip772"><path d="M-181,-82 L336.5,-82 L336.5,142 L-181,142 L-181,-82 z"/></clipPath></defs><g clip-path="url(#clip772)" fill="#000000" fill-opacity="1" opacity="1" stroke="none" stroke-opacity="0" transform="matrix(1,0,0,1,181,82)"><path d="M0,0 L-8,-4 L-8,4 L0,0 z" fill-rule="nonzero" vector-effect="none"/></g><defs><clipPath id="clip775"><path d="M534,358 L1051.5,358 L1051.5,582 L534,582 L534,358 z"/></clipPath></defs><g clip-path="url(#clip775)" fill="none" opacity="1" stroke="#000000" stroke-linecap="butt" stroke-linejoin="miter" stroke-miterlimit="2" stroke-opacity="1" stroke-width="1" transform="matrix(1,0,0,1,-534,-358)"><path d="M680.5,440.5 L707.5,440.5" fill-rule="evenodd" vector-effect="none"/></g><defs><clipPath id="clip778"><path d="M534,358 L1051.5,358 L1051.5,582 L534,582 L534,358 z"/></clipPath></defs><g clip-path="url(#clip778)" fill="none" opacity="1" stroke="#000000" stroke-linecap="butt" stroke-linejoin="miter" stroke-miterlimit="2" stroke-opacity="1" stroke-width="1" transform="matrix(1,0,0,1,-534,-358)"><path d="M800.5,440.5 L821.5,440.5" fill-rule="evenodd" vector-effect="none"/></g><defs><clipPath id="clip783"><path d="M-311,-82 L206.5,-82 L206.5,142 L-311,142 L-311,-82 z"/></clipPath></defs><g clip-path="url(#clip783)" fill="#000000" fill-opacity="1" opacity="1" stroke="none" stroke-opacity="0" transform="matrix(1,0,0,1,311,82)"><path d="M0,0 L-8,-4 L-8,4 L0,0 z" fill-rule="nonzero" vector-effect="none"/></g><defs><clipPath id="clip786"><path d="M534,358 L1051.5,358 L1051.5,582 L534,582 L534,358 z"/></clipPath></defs><g clip-path="url(#clip786)" fill="none" opacity="1" stroke="#000000" stroke-linecap="butt" stroke-linejoin="miter" stroke-miterlimit="2" stroke-opacity="1" stroke-width="1" transform="matrix(1,0,0,1,-534,-358)"><path d="M821.5,440.5 L837.5,440.5" fill-rule="evenodd" vector-effect="none"/></g><defs><clipPath id="clip789"><path d="M326,177 L-191.5,177 L-191.5,-47 L326,-47 L326,177 z"/></clipPath></defs><g clip-path="url(#clip789)" fill="#000000" fill-opacity="1" opacity="1" stroke="none" stroke-opacity="0" transform="matrix(-1,1.22465e-16,-1.22465e-16,-1,326,177)"><path d="M0,0 L-8,-4 L-8,4 L0,0 z" fill-rule="nonzero" vector-effect="none"/></g><defs><clipPath id="clip792"><path d="M534,358 L1051.5,358 L1051.5,582 L534,582 L534,358 z"/></clipPath></defs><g clip-path="url(#clip792)" fill="none" opacity="1" stroke="#000000" stroke-linecap="butt" stroke-linejoin="miter" stroke-miterlimit="2" stroke-opacity="1" stroke-width="1" transform="matrix(1,0,0,1,-534,-358)"><path d="M821.5,440.5 L821.5,494.5 L897.5,494.5 L897.5,535.5 L868.5,535.5" fill-rule="evenodd" vector-effect="none"/></g><defs><clipPath id="clip795"><path d="M-311,-17 L206.5,-17 L206.5,207 L-311,207 L-311,-17 z"/></clipPath></defs><g clip-path="url(#clip795)" fill="#000000" fill-opacity="1" opacity="1" stroke="none" stroke-opacity="0" transform="matrix(1,0,0,1,311,17)"><path d="M0,0 L-8,-4 L-8,4 L0,0 z" fill-rule="nonzero" vector-effect="none"/></g><defs><clipPath id="clip798"><path d="M534,358 L1051.5,358 L1051.5,582 L534,582 L534,358 z"/></clipPath></defs><g clip-path="url(#clip798)" fill="none" opacity="1" stroke="#000000" stroke-linecap="butt" stroke-linejoin="miter" stroke-miterlimit="2" stroke-opacity="1" stroke-width="1" transform="matrix(1,0,0,1,-534,-358)"><path d="M821.5,440.5 L821.5,375.5 L837.5,375.5" fill-rule="evenodd" vector-effect="none"/></g><defs><clipPath id="clip801"><path d="M-287,-82 L230.5,-82 L230.5,142 L-287,142 L-287,-82 z"/></clipPath></defs><g clip-path="url(#clip801)" fill="#000000" fill-opacity="1" opacity="1" stroke="none" stroke-opacity="0" transform="matrix(1,0,0,1,287,82)"><path d="M3,0.5 C3,1.88071 1.88071,3 0.5,3 C-0.880712,3 -2,1.88071 -2,0.5 C-2,-0.880712 -0.880712,-2 0.5,-2 C1.88071,-2 3,-0.880712 3,0.5 z" fill-rule="evenodd" vector-effect="none"/></g><defs><clipPath id="clip804"><path d="M534,358 L1051.5,358 L1051.5,582 L534,582 L534,358 z"/></clipPath></defs><g clip-path="url(#clip804)" fill="none" opacity="1" stroke="#000000" stroke-linecap="butt" stroke-linejoin="miter" stroke-miterlimit="2" stroke-opacity="1" stroke-width="1" transform="matrix(1,0,0,1,-534,-358)"><path d="M770.5,550.5 L695.5,550.5" fill-rule="evenodd" vector-effect="none"/></g><defs><clipPath id="clip809"><path d="M92,-136 L92,381.5 L-132,381.5 L-132,-136 L92,-136 z"/></clipPath></defs><g clip-path="url(#clip809)" fill="#000000" fill-opacity="1" opacity="1" stroke="none" stroke-opacity="0" transform="matrix(6.12323e-17,-1,1,6.12323e-17,136,92)"><path d="M0,0 L-8,-4 L-8,4 L0,0 z" fill-rule="nonzero" vector-effect="none"/></g><defs><clipPath id="clip812"><path d="M534,358 L1051.5,358 L1051.5,582 L534,582 L534,358 z"/></clipPath></defs><g clip-path="url(#clip812)" fill="none" opacity="1" stroke="#000000" stroke-linecap="butt" stroke-linejoin="miter" stroke-miterlimit="2" stroke-opacity="1" stroke-width="1" transform="matrix(1,0,0,1,-534,-358)"><path d="M670.5,550.5 L670.5,458.5" fill-rule="evenodd" vector-effect="none"/></g><defs><clipPath id="clip815"><path d="M-26,-82 L491.5,-82 L491.5,142 L-26,142 L-26,-82 z"/></clipPath></defs><g clip-path="url(#clip815)" fill="#000000" fill-opacity="1" opacity="1" stroke="none" stroke-opacity="0" transform="matrix(1,0,0,1,26,82)"><path d="M0,0 L-8,-4 L-8,4 L0,0 z" fill-rule="nonzero" vector-effect="none"/></g><defs><clipPath id="clip818"><path d="M534,358 L1051.5,358 L1051.5,582 L534,582 L534,358 z"/></clipPath></defs><g clip-path="url(#clip818)" fill="none" opacity="1" stroke="#000000" stroke-linecap="butt" stroke-linejoin="miter" stroke-miterlimit="2" stroke-opacity="1" stroke-width="1" transform="matrix(1,0,0,1,-534,-358)"><path d="M670.5,550.5 L536.5,550.5 L536.5,440.5 L552.5,440.5" fill-rule="evenodd" vector-effect="none"/></g><defs><clipPath id="clip821"><path d="M534,358 L1051.5,358 L1051.5,582 L534,582 L534,358 z"/></clipPath></defs><g clip-path="url(#clip821)" fill="none" opacity="1" stroke="#000000" stroke-linecap="butt" stroke-linejoin="miter" stroke-miterlimit="2" stroke-opacity="1" stroke-width="1" transform="matrix(1,0,0,1,-534,-358)"><path d="M695.5,550.5 L670.5,550.5" fill-rule="evenodd" vector-effect="none"/></g><defs><clipPath id="clip826"><path d="M-181,-137 L336.5,-137 L336.5,87 L-181,87 L-181,-137 z"/></clipPath></defs><g clip-path="url(#clip826)" fill="#000000" fill-opacity="1" opacity="1" stroke="none" stroke-opacity="0" transform="matrix(1,0,0,1,181,137)"><path d="M0,0 L-8,-4 L-8,4 L0,0 z" fill-rule="nonzero" vector-effect="none"/></g><defs><clipPath id="clip829"><path d="M534,358 L1051.5,358 L1051.5,582 L534,582 L534,358 z"/></clipPath></defs><g clip-path="url(#clip829)" fill="none" opacity="1" stroke="#000000" stroke-linecap="butt" stroke-linejoin="miter" stroke-miterlimit="2" stroke-opacity="1" stroke-width="1" transform="matrix(1,0,0,1,-534,-358)"><path d="M695.5,550.5 L695.5,495.5 L707.5,495.5" fill-rule="evenodd" vector-effect="none"/></g><defs><clipPath id="clip832"><path d="M-136,-192 L381.5,-192 L381.5,32 L-136,32 L-136,-192 z"/></clipPath></defs><g clip-path="url(#clip832)" fill="#000000" fill-opacity="1" opacity="1" stroke="none" stroke-opacity="0" transform="matrix(1,0,0,1,136,192)"><path d="M3,0.5 C3,1.88071 1.88071,3 0.5,3 C-0.880712,3 -2,1.88071 -2,0.5 C-2,-0.880712 -0.880712,-2 0.5,-2 C1.88071,-2 3,-0.880712 3,0.5 z" fill-rule="evenodd" vector-effect="none"/></g><defs><clipPath id="clip835"><path d="M-161,-192 L356.5,-192 L356.5,32 L-161,32 L-161,-192 z"/></clipPath></defs><g clip-path="url(#clip835)" fill="#000000" fill-opacity="1" opacity="1" stroke="none" stroke-opacity="0" transform="matrix(1,0,0,1,161,192)"><path d="M3,0.5 C3,1.88071 1.88071,3 0.5,3 C-0.880712,3 -2,1.88071 -2,0.5 C-2,-0.880712 -0.880712,-2 0.5,-2 C1.88071,-2 3,-0.880712 3,0.5 z" fill-rule="evenodd" vector-effect="none"/></g><defs><clipPath id="clip838"><path d="M534,358 L1051.5,358 L1051.5,582 L534,582 L534,358 z"/></clipPath></defs><g clip-path="url(#clip838)" fill="none" opacity="1" stroke="#000000" stroke-linecap="butt" stroke-linejoin="miter" stroke-miterlimit="2" stroke-opacity="1" stroke-width="1" transform="matrix(1,0,0,1,-534,-358)"><path d="M1035.5,440.5 L1047.5,440.5" fill-rule="evenodd" vector-effect="none"/></g><defs><clipPath id="clip843"><path d="M491,17 L-26.5,17 L-26.5,-207 L491,-207 L491,17 z"/></clipPath></defs><g clip-path="url(#clip843)" fill="#000000" fill-opacity="1" opacity="1" stroke="none" stroke-opacity="0" transform="matrix(-1,1.22465e-16,-1.22465e-16,-1,491,17)"><path d="M0,0 L-8,-4 L-8,4 L0,0 z" fill-rule="nonzero" vector-effect="none"/></g><defs><clipPath id="clip846"><path d="M534,358 L1051.5,358 L1051.5,582 L534,582 L534,358 z"/></clipPath></defs><g clip-path="url(#clip846)" fill="none" opacity="1" stroke="#000000" stroke-linecap="butt" stroke-linejoin="miter" stroke-miterlimit="2" stroke-opacity="1" stroke-width="1" transform="matrix(1,0,0,1,-534,-358)"><path d="M1047.5,440.5 L1047.5,375.5 L1033.5,375.5" fill-rule="evenodd" vector-effect="none"/></g><defs><clipPath id="clip849"><path d="M326,207 L-191.5,207 L-191.5,-17 L326,-17 L326,207 z"/></clipPath></defs><g clip-path="url(#clip849)" fill="#000000" fill-opacity="1" opacity="1" stroke="none" stroke-opacity="0" transform="matrix(-1,1.22465e-16,-1.22465e-16,-1,326,207)"><path d="M0,0 L-8,-4 L-8,4 L0,0 z" fill-rule="nonzero" vector-effect="none"/></g><defs><clipPath id="clip852"><path d="M534,358 L1051.5,358 L1051.5,582 L534,582 L534,358 z"/></clipPath></defs><g clip-path="url(#clip852)" fill="none" opacity="1" stroke="#000000" stroke-linecap="butt" stroke-linejoin="miter" stroke-miterlimit="2" stroke-opacity="1" stroke-width="1" transform="matrix(1,0,0,1,-534,-358)"><path d="M1047.5,440.5 L1047.5,565.5 L868.5,565.5" fill-rule="evenodd" vector-effect="none"/></g><defs><clipPath id="clip855"><path d="M-513,-82 L4.5,-82 L4.5,142 L-513,142 L-513,-82 z"/></clipPath></defs><g clip-path="url(#clip855)" fill="#000000" fill-opacity="1" opacity="1" stroke="none" stroke-opacity="0" transform="matrix(1,0,0,1,513,82)"><path d="M3,0.5 C3,1.88071 1.88071,3 0.5,3 C-0.880712,3 -2,1.88071 -2,0.5 C-2,-0.880712 -0.880712,-2 0.5,-2 C1.88071,-2 3,-0.880712 3,0.5 z" fill-rule="evenodd" vector-effect="none"/></g><defs><clipPath id="clip858"><path d="M-481,-82 L36.5,-82 L36.5,142 L-481,142 L-481,-82 z"/></clipPath></defs><g clip-path="url(#clip858)" fill="#000000" fill-opacity="1" opacity="1" stroke="none" stroke-opacity="0" transform="matrix(1,0,0,1,481,82)"><path d="M0,0 L-8,-4 L-8,4 L0,0 z" fill-rule="nonzero" vector-effect="none"/></g><defs><clipPath id="clip861"><path d="M534,358 L1051.5,358 L1051.5,582 L534,582 L534,358 z"/></clipPath></defs><g clip-path="url(#clip861)" fill="none" opacity="1" stroke="#000000" stroke-linecap="butt" stroke-linejoin="miter" stroke-miterlimit="2" stroke-opacity="1" stroke-width="1" transform="matrix(1,0,0,1,-534,-358)"><path d="M990.5,440.5 L1007.5,440.5" fill-rule="evenodd" vector-effect="none"/></g><defs><clipPath id="clip867"><path d="M0,0 L7,0 L7,12 L0,12 L0,0 z"/></clipPath></defs><g clip-path="url(#clip867)" fill="none" opacity="1" stroke="#000000" stroke-linecap="square" stroke-linejoin="bevel" stroke-opacity="1" stroke-width="1" transform="matrix(1,0,0,1,461,83.5)"><text fill="#000000" fill-opacity="1" font-family="Arial" font-size="9" font-style="normal" font-weight="400" stroke="none" textLength="4.5" x="1" xml:space="preserve" y="9">y</text></g><defs><clipPath id="clip875"><path d="M92,-491 L92,26.5 L-132,26.5 L-132,-491 L92,-491 z"/></clipPath></defs><g clip-path="url(#clip875)" fill="#000000" fill-opacity="1" opacity="1" stroke="none" stroke-opacity="0" transform="matrix(6.12323e-17,-1,1,6.12323e-17,491,92)"><path d="M0,0 L-8,-4 L-8,4 L0,0 z" fill-rule="nonzero" vector-effect="none"/></g><defs><clipPath id="clip878"><path d="M534,358 L1051.5,358 L1051.5,582 L534,582 L534,358 z"/></clipPath></defs><g clip-path="url(#clip878)" fill="none" opacity="1" stroke="#000000" stroke-linecap="butt" stroke-linejoin="miter" stroke-miterlimit="2" stroke-opacity="1" stroke-width="1" transform="matrix(1,0,0,1,-534,-358)"><path d="M975.5,505.5 L1025.5,505.5 L1025.5,458.5" fill-rule="evenodd" vector-effect="none"/></g><defs><clipPath id="clip884"><path d="M0,0 L7,0 L7,12 L0,12 L0,0 z"/></clipPath></defs><g clip-path="url(#clip884)" fill="none" opacity="1" stroke="#000000" stroke-linecap="square" stroke-linejoin="bevel" stroke-opacity="1" stroke-width="1" transform="matrix(1,0,0,1,465,148.5)"><text fill="#000000" fill-opacity="1" font-family="Arial" font-size="9" font-style="normal" font-weight="400" stroke="none" textLength="5" x="1" xml:space="preserve" y="9">n</text></g></g><!--generated on windows @ 2020-06-01 12:40:15 AUS Eastern Standard Time--></svg>
