<?xml version="1.0" encoding="UTF-8"?><svg width="112.448mm" height="96.5729mm" viewBox="0 0 425 365" xmlns="http://www.w3.org/2000/svg" xmlns:xlink="http://www.w3.org/1999/xlink"><g fill="none" stroke="black" stroke-width="1" fill-rule="evenodd" stroke-linecap="square" stroke-linejoin="bevel"><g clip-path="none" fill="#ffffff" fill-opacity="1" opacity="1" stroke="none" stroke-opacity="0" transform="matrix(1,0,0,1,0,0)"><path d="M0,0 L425,0 L425,365 L0,365 L0,0 z" fill-rule="evenodd" vector-effect="none"/></g><defs><clipPath id="clip3"><path d="M-233,-29 L192,-29 L192,336 L-233,336 L-233,-29 z"/></clipPath></defs><g clip-path="url(#clip3)" fill="#ffffff" fill-opacity="1" opacity="1" stroke="none" stroke-opacity="0" transform="matrix(1,0,0,1,233,29)"><path d="M0,0 L40,0 L40,42 L0,42 L0,0 z" fill-rule="evenodd" vector-effect="none"/></g><defs><clipPath id="clip7"><path d="M-20,-19 L20,-19 L20,23 L-20,23 L-20,-19 z"/></clipPath></defs><g clip-path="url(#clip7)" fill="none" opacity="1" stroke="#000000" stroke-linecap="butt" stroke-linejoin="miter" stroke-miterlimit="2" stroke-opacity="1" stroke-width="1" transform="matrix(1,0,0,1,253,48)"><text fill="#000000" fill-opacity="1" font-family="Arial" font-size="10" font-style="normal" font-weight="400" stroke="none" textLength="5.54688" x="-2.76562" xml:space="preserve" y="1">1</text></g><defs><clipPath id="clip8"><path d="M305,69 L345,69 L345,111 L305,111 L305,69 z"/></clipPath></defs><g clip-path="url(#clip8)" fill="none" opacity="1" stroke="#000000" stroke-linecap="butt" stroke-linejoin="miter" stroke-miterlimit="2" stroke-opacity="1" stroke-width="1" transform="matrix(1,0,0,1,-71.5,-39.5)"><polyline fill="none" points="322,90 328,90" vector-effect="none"/></g><defs><clipPath id="clip9"><path d="M-20,-29 L20,-29 L20,13 L-20,13 L-20,-29 z"/></clipPath></defs><g clip-path="url(#clip9)" fill="none" opacity="1" stroke="#000000" stroke-linecap="butt" stroke-linejoin="miter" stroke-miterlimit="2" stroke-opacity="1" stroke-width="1" transform="matrix(1,0,0,1,253,58)"><text fill="#000000" fill-opacity="1" font-family="Arial" font-size="10" font-style="normal" font-weight="400" stroke="none" textLength="5" x="-2.5" xml:space="preserve" y="1">s</text></g><defs><clipPath id="clip14"><path d="M-233.5,-29.5 L191.5,-29.5 L191.5,335.5 L-233.5,335.5 L-233.5,-29.5 z"/></clipPath></defs><g clip-path="url(#clip14)" fill="none" opacity="1" stroke="#000000" stroke-linecap="butt" stroke-linejoin="miter" stroke-miterlimit="2" stroke-opacity="1" stroke-width="1" transform="matrix(1,0,0,1,233.5,29.5)"><path d="M0,0 L40,0 L40,42 L0,42 L0,0 z" fill-rule="evenodd" vector-effect="none"/></g><defs><clipPath id="clip17"><path d="M-113,-307 L312,-307 L312,58 L-113,58 L-113,-307 z"/></clipPath></defs><g clip-path="url(#clip17)" fill="#ffffff" fill-opacity="1" opacity="1" stroke="none" stroke-opacity="0" transform="matrix(1,0,0,1,113,307)"><path d="M0,0 L50,0 L50,56 L0,56 L0,0 z" fill-rule="evenodd" vector-effect="none"/></g><defs><clipPath id="clip21"><path d="M-25,-23 L25,-23 L25,33 L-25,33 L-25,-23 z"/></clipPath></defs><g clip-path="url(#clip21)" fill="none" opacity="1" stroke="#000000" stroke-linecap="butt" stroke-linejoin="miter" stroke-miterlimit="2" stroke-opacity="1" stroke-width="1" transform="matrix(1,0,0,1,138,330)"><text fill="#000000" fill-opacity="1" font-family="Arial" font-size="10" font-style="normal" font-weight="400" stroke="none" textLength="27.1875" x="-13.5938" xml:space="preserve" y="3.5">Matrix</text></g><defs><clipPath id="clip22"><path d="M-25,-33 L25,-33 L25,23 L-25,23 L-25,-33 z"/></clipPath></defs><g clip-path="url(#clip22)" fill="none" opacity="1" stroke="#000000" stroke-linecap="butt" stroke-linejoin="miter" stroke-miterlimit="2" stroke-opacity="1" stroke-width="1" transform="matrix(1,0,0,1,138,340)"><text fill="#000000" fill-opacity="1" font-family="Arial" font-size="10" font-style="normal" font-weight="400" stroke="none" textLength="33.8438" x="-16.9219" xml:space="preserve" y="3.5">Multiply</text></g><defs><clipPath id="clip27"><path d="M-113.5,-307.5 L311.5,-307.5 L311.5,57.5 L-113.5,57.5 L-113.5,-307.5 z"/></clipPath></defs><g clip-path="url(#clip27)" fill="none" opacity="1" stroke="#000000" stroke-linecap="butt" stroke-linejoin="miter" stroke-miterlimit="2" stroke-opacity="1" stroke-width="1" transform="matrix(1,0,0,1,113.5,307.5)"><path d="M0,0 L50,0 L50,56 L0,56 L0,0 z" fill-rule="evenodd" vector-effect="none"/></g><defs><clipPath id="clip30"><path d="M-43,-253 L382,-253 L382,112 L-43,112 L-43,-253 z"/></clipPath></defs><g clip-path="url(#clip30)" fill="#ffffff" fill-opacity="1" opacity="1" stroke="none" stroke-opacity="0" transform="matrix(1,0,0,1,43,253)"><path d="M15,109 L0,109 L0,0 L15,0 L15,109 z" fill-rule="nonzero" vector-effect="none"/></g><defs><clipPath id="clip34"><path d="M115,293 L130,293 L130,402 L115,402 L115,293 z"/></clipPath></defs><g clip-path="url(#clip34)" fill="none" opacity="1" stroke="#000000" stroke-linecap="butt" stroke-linejoin="miter" stroke-miterlimit="2" stroke-opacity="1" stroke-width="1" transform="matrix(1,0,0,1,-71.5,-39.5)"><polyline fill="none" points="123,320 127,320" vector-effect="none"/></g><defs><clipPath id="clip35"><path d="M115,293 L130,293 L130,402 L115,402 L115,293 z"/></clipPath></defs><g clip-path="url(#clip35)" fill="none" opacity="1" stroke="#000000" stroke-linecap="butt" stroke-linejoin="miter" stroke-miterlimit="2" stroke-opacity="1" stroke-width="1" transform="matrix(1,0,0,1,-71.5,-39.5)"><polyline fill="none" points="125,318 125,322" vector-effect="none"/></g><defs><clipPath id="clip36"><path d="M115,293 L130,293 L130,402 L115,402 L115,293 z"/></clipPath></defs><g clip-path="url(#clip36)" fill="none" opacity="1" stroke="#000000" stroke-linecap="butt" stroke-linejoin="miter" stroke-miterlimit="2" stroke-opacity="1" stroke-width="1" transform="matrix(1,0,0,1,-71.5,-39.5)"><polyline fill="none" points="123,375 127,375" vector-effect="none"/></g><defs><clipPath id="clip41"><path d="M-43.5,-253.5 L381.5,-253.5 L381.5,111.5 L-43.5,111.5 L-43.5,-253.5 z"/></clipPath></defs><g clip-path="url(#clip41)" fill="none" opacity="1" stroke="#000000" stroke-linecap="butt" stroke-linejoin="miter" stroke-miterlimit="2" stroke-opacity="1" stroke-width="1" transform="matrix(1,0,0,1,43.5,253.5)"><path d="M15,109 L0,109 L0,0 L15,0 L15,109 z" fill-rule="nonzero" vector-effect="none"/></g><defs><clipPath id="clip44"><path d="M-133,-11 L292,-11 L292,354 L-133,354 L-133,-11 z"/></clipPath></defs><g clip-path="url(#clip44)" fill="#ffffff" fill-opacity="1" opacity="1" stroke="none" stroke-opacity="0" transform="matrix(1,0,0,1,133,11)"><path d="M0,0 L30,0 L30,73 L0,73 L0,0 z" fill-rule="nonzero" vector-effect="none"/></g><defs><clipPath id="clip48"><path d="M205,51 L235,51 L235,124 L205,124 L205,51 z"/></clipPath></defs><g clip-path="url(#clip48)" fill="none" opacity="1" stroke="#000000" stroke-linecap="butt" stroke-linejoin="miter" stroke-miterlimit="2" stroke-opacity="1" stroke-width="1" transform="matrix(1,0,0,1,-71.5,-39.5)"><polyline fill="none" points="208,70 212,70" vector-effect="none"/></g><defs><clipPath id="clip49"><path d="M205,51 L235,51 L235,124 L205,124 L205,51 z"/></clipPath></defs><g clip-path="url(#clip49)" fill="none" opacity="1" stroke="#000000" stroke-linecap="butt" stroke-linejoin="miter" stroke-miterlimit="2" stroke-opacity="1" stroke-width="1" transform="matrix(1,0,0,1,-71.5,-39.5)"><polyline fill="none" points="210,68 210,72" vector-effect="none"/></g><defs><clipPath id="clip50"><path d="M205,51 L235,51 L235,124 L205,124 L205,51 z"/></clipPath></defs><g clip-path="url(#clip50)" fill="none" opacity="1" stroke="#000000" stroke-linecap="butt" stroke-linejoin="miter" stroke-miterlimit="2" stroke-opacity="1" stroke-width="1" transform="matrix(1,0,0,1,-71.5,-39.5)"><polyline fill="none" points="208,105 212,105" vector-effect="none"/></g><defs><clipPath id="clip51"><path d="M205,51 L235,51 L235,124 L205,124 L205,51 z"/></clipPath></defs><g clip-path="url(#clip51)" fill="none" opacity="1" stroke="#000000" stroke-linecap="butt" stroke-linejoin="miter" stroke-miterlimit="2" stroke-opacity="1" stroke-width="1" transform="matrix(1,0,0,1,-71.5,-39.5)"><polyline fill="none" points="210,103 210,107" vector-effect="none"/></g><defs><clipPath id="clip56"><path d="M-133.5,-11.5 L291.5,-11.5 L291.5,353.5 L-133.5,353.5 L-133.5,-11.5 z"/></clipPath></defs><g clip-path="url(#clip56)" fill="none" opacity="1" stroke="#000000" stroke-linecap="butt" stroke-linejoin="miter" stroke-miterlimit="2" stroke-opacity="1" stroke-width="1" transform="matrix(1,0,0,1,133.5,11.5)"><path d="M0,0 L30,0 L30,73 L0,73 L0,0 z" fill-rule="nonzero" vector-effect="none"/></g><defs><clipPath id="clip59"><path d="M-33,-2 L392,-2 L392,363 L-33,363 L-33,-2 z"/></clipPath></defs><g clip-path="url(#clip59)" fill="#ffffff" fill-opacity="1" opacity="1" stroke="none" stroke-opacity="0" transform="matrix(1,0,0,1,33,2)"><path d="M0,0 L50,0 L50,51 L0,51 L0,0 z" fill-rule="evenodd" vector-effect="none"/></g><defs><clipPath id="clip63"><path d="M-25,-20 L25,-20 L25,31 L-25,31 L-25,-20 z"/></clipPath></defs><g clip-path="url(#clip63)" fill="none" opacity="1" stroke="#000000" stroke-linecap="butt" stroke-linejoin="miter" stroke-miterlimit="2" stroke-opacity="1" stroke-width="1" transform="matrix(1,0,0,1,58,22)"><text fill="#000000" fill-opacity="1" font-family="Arial" font-size="10" font-style="normal" font-weight="400" stroke="none" textLength="27.1875" x="-13.5938" xml:space="preserve" y="3.5">Matrix</text></g><defs><clipPath id="clip64"><path d="M-25,-30 L25,-30 L25,21 L-25,21 L-25,-30 z"/></clipPath></defs><g clip-path="url(#clip64)" fill="none" opacity="1" stroke="#000000" stroke-linecap="butt" stroke-linejoin="miter" stroke-miterlimit="2" stroke-opacity="1" stroke-width="1" transform="matrix(1,0,0,1,58,32)"><text fill="#000000" fill-opacity="1" font-family="Arial" font-size="10" font-style="normal" font-weight="400" stroke="none" textLength="33.8438" x="-16.9219" xml:space="preserve" y="3.5">Multiply</text></g><defs><clipPath id="clip69"><path d="M-33.5,-2.5 L391.5,-2.5 L391.5,362.5 L-33.5,362.5 L-33.5,-2.5 z"/></clipPath></defs><g clip-path="url(#clip69)" fill="none" opacity="1" stroke="#000000" stroke-linecap="butt" stroke-linejoin="miter" stroke-miterlimit="2" stroke-opacity="1" stroke-width="1" transform="matrix(1,0,0,1,33.5,2.5)"><path d="M0,0 L50,0 L50,51 L0,51 L0,0 z" fill-rule="evenodd" vector-effect="none"/></g><defs><clipPath id="clip72"><path d="M-103,-273 L322,-273 L322,92 L-103,92 L-103,-273 z"/></clipPath></defs><g clip-path="url(#clip72)" fill="#ffffff" fill-opacity="1" opacity="1" stroke="none" stroke-opacity="0" transform="matrix(1,0,0,1,103,273)"><path d="M23,14 L7,14 C3.13401,14 0,10.866 0,7 C0,3.13401 3.13401,0 7,0 L23,0 C26.866,0 30,3.13401 30,7 C30,10.866 26.866,14 23,14 z" fill-rule="nonzero" vector-effect="none"/></g><defs><clipPath id="clip76"><path d="M-15,-7 L15,-7 L15,7 L-15,7 L-15,-7 z"/></clipPath></defs><g clip-path="url(#clip76)" fill="none" opacity="1" stroke="#000000" stroke-linecap="butt" stroke-linejoin="miter" stroke-miterlimit="2" stroke-opacity="1" stroke-width="1" transform="matrix(1,0,0,1,118,280)"><text fill="#000000" fill-opacity="1" font-family="Arial" font-size="10" font-style="normal" font-weight="400" stroke="none" textLength="5.54688" x="-2.76562" xml:space="preserve" y="3.5">2</text></g><defs><clipPath id="clip81"><path d="M-103.5,-273.5 L321.5,-273.5 L321.5,91.5 L-103.5,91.5 L-103.5,-273.5 z"/></clipPath></defs><g clip-path="url(#clip81)" fill="none" opacity="1" stroke="#000000" stroke-linecap="butt" stroke-linejoin="miter" stroke-miterlimit="2" stroke-opacity="1" stroke-width="1" transform="matrix(1,0,0,1,103.5,273.5)"><path d="M23,14 L7,14 C3.13401,14 0,10.866 0,7 C0,3.13401 3.13401,0 7,0 L23,0 C26.866,0 30,3.13401 30,7 C30,10.866 26.866,14 23,14 z" fill-rule="nonzero" vector-effect="none"/></g><defs><clipPath id="clip87"><path d="M0,0 L7,0 L7,14 L0,14 L0,0 z"/></clipPath></defs><g clip-path="url(#clip87)" fill="none" opacity="1" stroke="#000000" stroke-linecap="square" stroke-linejoin="bevel" stroke-opacity="1" stroke-width="1" transform="matrix(1,0,0,1,114.5,289)"><text fill="#000000" fill-opacity="1" font-family="Arial" font-size="10" font-style="normal" font-weight="400" stroke="none" textLength="5" x="1" xml:space="preserve" y="10">y</text></g><defs><clipPath id="clip95"><path d="M-393,-43 L32,-43 L32,322 L-393,322 L-393,-43 z"/></clipPath></defs><g clip-path="url(#clip95)" fill="#ffffff" fill-opacity="1" opacity="1" stroke="none" stroke-opacity="0" transform="matrix(1,0,0,1,393,43)"><path d="M7,0 L23,0 C26.866,0 30,3.13401 30,7 C30,10.866 26.866,14 23,14 L7,14 C3.13401,14 0,10.866 0,7 C0,3.13401 3.13401,0 7,0 z" fill-rule="nonzero" vector-effect="none"/></g><defs><clipPath id="clip99"><path d="M-15,-7 L15,-7 L15,7 L-15,7 L-15,-7 z"/></clipPath></defs><g clip-path="url(#clip99)" fill="none" opacity="1" stroke="#000000" stroke-linecap="butt" stroke-linejoin="miter" stroke-miterlimit="2" stroke-opacity="1" stroke-width="1" transform="matrix(1,0,0,1,408,50)"><text fill="#000000" fill-opacity="1" font-family="Arial" font-size="10" font-style="normal" font-weight="400" stroke="none" textLength="5.54688" x="-2.76562" xml:space="preserve" y="3.5">1</text></g><defs><clipPath id="clip104"><path d="M-393.5,-43.5 L31.5,-43.5 L31.5,321.5 L-393.5,321.5 L-393.5,-43.5 z"/></clipPath></defs><g clip-path="url(#clip104)" fill="none" opacity="1" stroke="#000000" stroke-linecap="butt" stroke-linejoin="miter" stroke-miterlimit="2" stroke-opacity="1" stroke-width="1" transform="matrix(1,0,0,1,393.5,43.5)"><path d="M7,0 L23,0 C26.866,0 30,3.13401 30,7 C30,10.866 26.866,14 23,14 L7,14 C3.13401,14 0,10.866 0,7 C0,3.13401 3.13401,0 7,0 z" fill-rule="nonzero" vector-effect="none"/></g><defs><clipPath id="clip110"><path d="M0,0 L7,0 L7,14 L0,14 L0,0 z"/></clipPath></defs><g clip-path="url(#clip110)" fill="none" opacity="1" stroke="#000000" stroke-linecap="square" stroke-linejoin="bevel" stroke-opacity="1" stroke-width="1" transform="matrix(1,0,0,1,404.5,59)"><text fill="#000000" fill-opacity="1" font-family="Arial" font-size="10" font-style="normal" font-weight="400" stroke="none" textLength="5" x="1" xml:space="preserve" y="10">x</text></g><defs><clipPath id="clip118"><path d="M-393,-223 L32,-223 L32,142 L-393,142 L-393,-223 z"/></clipPath></defs><g clip-path="url(#clip118)" fill="#ffffff" fill-opacity="1" opacity="1" stroke="none" stroke-opacity="0" transform="matrix(1,0,0,1,393,223)"><path d="M23,14 L7,14 C3.13401,14 0,10.866 0,7 C0,3.13401 3.13401,0 7,0 L23,0 C26.866,0 30,3.13401 30,7 C30,10.866 26.866,14 23,14 z" fill-rule="nonzero" vector-effect="none"/></g><defs><clipPath id="clip122"><path d="M-15,-7 L15,-7 L15,7 L-15,7 L-15,-7 z"/></clipPath></defs><g clip-path="url(#clip122)" fill="none" opacity="1" stroke="#000000" stroke-linecap="butt" stroke-linejoin="miter" stroke-miterlimit="2" stroke-opacity="1" stroke-width="1" transform="matrix(1,0,0,1,408,230)"><text fill="#000000" fill-opacity="1" font-family="Arial" font-size="10" font-style="normal" font-weight="400" stroke="none" textLength="5.54688" x="-2.76562" xml:space="preserve" y="3.5">1</text></g><defs><clipPath id="clip127"><path d="M-393.5,-223.5 L31.5,-223.5 L31.5,141.5 L-393.5,141.5 L-393.5,-223.5 z"/></clipPath></defs><g clip-path="url(#clip127)" fill="none" opacity="1" stroke="#000000" stroke-linecap="butt" stroke-linejoin="miter" stroke-miterlimit="2" stroke-opacity="1" stroke-width="1" transform="matrix(1,0,0,1,393.5,223.5)"><path d="M23,14 L7,14 C3.13401,14 0,10.866 0,7 C0,3.13401 3.13401,0 7,0 L23,0 C26.866,0 30,3.13401 30,7 C30,10.866 26.866,14 23,14 z" fill-rule="nonzero" vector-effect="none"/></g><defs><clipPath id="clip133"><path d="M0,0 L8,0 L8,14 L0,14 L0,0 z"/></clipPath></defs><g clip-path="url(#clip133)" fill="none" opacity="1" stroke="#000000" stroke-linecap="square" stroke-linejoin="bevel" stroke-opacity="1" stroke-width="1" transform="matrix(1,0,0,1,404.227,207)"><text fill="#000000" fill-opacity="1" font-family="Arial" font-size="10" font-style="normal" font-weight="400" stroke="none" textLength="5.54688" x="1" xml:space="preserve" y="10">u</text></g><defs><clipPath id="clip141"><path d="M-253,-305 L172,-305 L172,60 L-253,60 L-253,-305 z"/></clipPath></defs><g clip-path="url(#clip141)" fill="#ffffff" fill-opacity="1" opacity="1" stroke="none" stroke-opacity="0" transform="matrix(1,0,0,1,253,305)"><path d="M0,0 L30,0 L30,30 L0,30 L0,0 z" fill-rule="evenodd" vector-effect="none"/></g><defs><clipPath id="clip145"><path d="M0,0 L31,0 L31,31 L0,31 L0,0 z"/></clipPath></defs><g clip-path="url(#clip145)" fill="none" opacity="1" stroke="none" stroke-opacity="0" transform="matrix(1,0,0,1,253,305)"><path d="M0,0 L31,0 L31,31 L0,31 L0,0 z" fill-rule="evenodd" vector-effect="none"/></g><defs><clipPath id="clip155"><path d="M0,0 L30,0 L30,30 L0,30 L0,0 z"/></clipPath></defs><g clip-path="url(#clip155)" fill="#000000" fill-opacity="1" opacity="1" stroke="none" stroke-opacity="0" transform="matrix(1,0,0,1,253,305)"><path d="M17.2656,15.0625 L18.2188,15.3125 C18.0208,16.0833 17.6641,16.6745 17.1484,17.0859 C16.6328,17.4974 16,17.7031 15.25,17.7031 C14.4792,17.7031 13.8516,17.5443 13.3672,17.2266 C12.8828,16.9089 12.5156,16.4531 12.2656,15.8594 C12.0156,15.2656 11.8906,14.625 11.8906,13.9375 C11.8906,13.1979 12.0339,12.5495 12.3203,11.9922 C12.6068,11.4349 13.013,11.013 13.5391,10.7266 C14.0651,10.4401 14.6406,10.2969 15.2656,10.2969 C15.9844,10.2969 16.5885,10.4792 17.0781,10.8438 C17.5677,11.2083 17.9062,11.7188 18.0938,12.375 L17.1562,12.6094 C16.9896,12.0885 16.75,11.7083 16.4375,11.4688 C16.125,11.2292 15.7292,11.1094 15.25,11.1094 C14.6979,11.1094 14.237,11.2422 13.8672,11.5078 C13.4974,11.7734 13.237,12.1276 13.0859,12.5703 C12.9349,13.013 12.8594,13.4688 12.8594,13.9375 C12.8594,14.5521 12.9479,15.0859 13.125,15.5391 C13.3021,15.9922 13.5781,16.3307 13.9531,16.5547 C14.3281,16.7786 14.7344,16.8906 15.1719,16.8906 C15.7031,16.8906 16.1536,16.737 16.5234,16.4297 C16.8932,16.1224 17.1406,15.6667 17.2656,15.0625 z" fill-rule="nonzero" vector-effect="none"/></g><defs><clipPath id="clip175"><path d="M-253.5,-305.5 L171.5,-305.5 L171.5,59.5 L-253.5,59.5 L-253.5,-305.5 z"/></clipPath></defs><g clip-path="url(#clip175)" fill="none" opacity="1" stroke="#000000" stroke-linecap="butt" stroke-linejoin="miter" stroke-miterlimit="2" stroke-opacity="1" stroke-width="1" transform="matrix(1,0,0,1,253.5,305.5)"><path d="M0,0 L30,0 L30,30 L0,30 L0,0 z" fill-rule="evenodd" vector-effect="none"/></g><defs><clipPath id="clip178"><path d="M233,145 L-192,145 L-192,-220 L233,-220 L233,145 z"/></clipPath></defs><g clip-path="url(#clip178)" fill="none" opacity="1" stroke="#000000" stroke-linecap="round" stroke-linejoin="miter" stroke-miterlimit="2" stroke-opacity="1" stroke-width="2" transform="matrix(-1,0,0,-1,233,145)"><path d="M-0.5,-5.5 L4.5,-0.5 L-0.5,4.5" fill-rule="evenodd" vector-effect="none"/></g><defs><clipPath id="clip181"><path d="M-233,-109 L192,-109 L192,256 L-233,256 L-233,-109 z"/></clipPath></defs><g clip-path="url(#clip181)" fill="#ffffff" fill-opacity="1" opacity="1" stroke="none" stroke-opacity="0" transform="matrix(1,0,0,1,233,109)"><path d="M0,0 L70,0 L70,47 L0,47 L0,0 z" fill-rule="evenodd" vector-effect="none"/></g><defs><clipPath id="clip185"><path d="M0,0 L71,0 L71,48 L0,48 L0,0 z"/></clipPath></defs><g clip-path="url(#clip185)" fill="none" opacity="1" stroke="none" stroke-opacity="0" transform="matrix(1,0,0,1,233,109)"><path d="M0,0 L71,0 L71,48 L0,48 L0,0 z" fill-rule="evenodd" vector-effect="none"/></g><defs><radialGradient cx="25.5117" cy="23.835" fx="25.5117" fy="23.835" gradientUnits="userSpaceOnUse" id="grad1" r="20.307"><stop offset="0.3308" stop-color="#73c8ec" stop-opacity="1"/><stop offset="0.4484" stop-color="#128dbb" stop-opacity="1"/><stop offset="0.4836" stop-color="#d16432" stop-opacity="1"/><stop offset="0.5995" stop-color="#d15f2c" stop-opacity="1"/><stop offset="0.7588" stop-color="#d0511a" stop-opacity="1"/><stop offset="0.9264" stop-color="#cf3d00" stop-opacity="1"/></radialGradient><clipPath id="clip198"><path d="M0,0 L16,0 L16,16 L0,16 L0,0 z"/></clipPath></defs><g clip-path="url(#clip198)" fill="url(#grad1)" opacity="1" stroke="none" stroke-opacity="0" transform="matrix(1,0,0,1,260,124.5)"><path d="M15.609,11 C15.093,9.521 14.757,8.104 14.189,6.442 C13.906,5.605 13.601,4.66 13.32,3.815 C13.015,2.901 12.476,2.072 12.049,1.295 C11.875,0.968 11.438,0.209 10.971,0.211 C10.83,0.211 10.727,0.278 10.641,0.341 C10.336,0.55 7.509,4.558 7.18,4.691 C7.079,4.736 6.953,4.753 6.838,4.792 C6.58,4.892 6.391,5.007 6.19,5.181 C5.86,5.482 5.547,5.876 5.267,6.241 C5.211,6.318 4.648,7.127 4.563,7.241 L0.376,9.018 C0.376,9.018 5.367,12.054 5.696,12.884 C5.924,13.473 7.07,15.132 7.297,15.731 C8.049,15.552 8.524,14.785 9.018,14.342 C9.556,13.861 10.039,13.217 10.493,12.643 C11.376,11.53 11.727,10.814 13.196,10.638 C13.594,10.59 14.337,10.814 14.518,10.969 C14.789,11.197 15.141,11.341 15.401,11.574 C15.859,11.984 15.775,11.496 15.609,11 z" fill-rule="nonzero" vector-effect="none"/></g><defs><clipPath id="clip199"><path d="M0,0 L16,0 L16,16 L0,16 L0,0 z"/></clipPath></defs><g clip-path="url(#clip199)" fill="#f5ae81" fill-opacity="1" opacity="1" stroke="none" stroke-opacity="0" transform="matrix(1,0,0,1,260,124.5)"><path d="M12.203,4.792 C12.375,6.326 12.142,7.576 11.695,7.599 C11.236,7.621 10.726,6.396 10.554,4.87 C10.39,3.336 10.618,2.088 11.064,2.063 C11.523,2.04 12.031,3.256 12.203,4.792 z" fill-rule="nonzero" vector-effect="none"/></g><defs><linearGradient gradientUnits="userSpaceOnUse" id="grad2" x1="9.8174" x2="9.8174" y1="0.3408" y2="16.0005"><stop offset="1e-07" stop-color="#a32e17" stop-opacity="1"/><stop offset="0.2308" stop-color="#972d13" stop-opacity="1"/><stop offset="0.645" stop-color="#78290a" stop-opacity="1"/><stop offset="1" stop-color="#582500" stop-opacity="1"/></linearGradient><clipPath id="clip200"><path d="M0,0 L16,0 L16,16 L0,16 L0,0 z"/></clipPath></defs><g clip-path="url(#clip200)" fill="url(#grad2)" opacity="1" stroke="none" stroke-opacity="0" transform="matrix(1,0,0,1,260,124.5)"><path d="M15.955,11.295 C15.619,10.187 13.047,1.451 11.656,0.341 L10.82,0.506 L10.898,0.715 C10.953,0.683 11.015,0.684 11.046,0.699 C11.814,1.001 13.767,6.946 13.767,6.946 C14.22,8.467 14.64,9.72 14.994,10.72 C14.484,10.389 13.937,10.186 13.416,10.17 C11.594,10.115 10.814,11.528 9.58,13.024 C9.031,13.698 8.174,14.729 7.596,15.148 C6.633,12.464 4.829,11.217 4.243,10.875 L3.634,11.31 L3.655,11.318 C3.655,11.318 6.164,12.513 7.142,16 C7.156,15.999 7.174,16 7.189,16 C8.844,16 11.476,10.521 13.416,10.829 C14,10.922 14.711,11.288 15.312,11.808 C15.633,12.069 16.158,11.971 15.955,11.295 z" fill-rule="nonzero" vector-effect="none"/></g><defs><linearGradient gradientUnits="userSpaceOnUse" id="grad3" x1="5.9292" x2="5.9292" y1="0.000488281" y2="11.3101"><stop offset="1e-07" stop-color="#3088cd" stop-opacity="1"/><stop offset="0.5471" stop-color="#185991" stop-opacity="1"/><stop offset="0.8957" stop-color="#0b3f6f" stop-opacity="1"/></linearGradient><clipPath id="clip201"><path d="M0,0 L16,0 L16,16 L0,16 L0,0 z"/></clipPath></defs><g clip-path="url(#clip201)" fill="url(#grad3)" opacity="1" stroke="none" stroke-opacity="0" transform="matrix(1,0,0,1,260,124.5)"><path d="M11.164,0.016 C11.127,0.007 11.096,0.001 11.062,0.001 C9.627,-0.061 8.016,4.03 6.695,4.736 C5.328,5.465 5.242,6.155 4.798,6.762 C4.359,7.374 0,8.915 0,8.915 L3.634,11.31 L4.155,10.947 C4.924,10.452 6.242,9.467 7.406,7.784 C9.017,5.474 10,2.7 10.468,1.374 C10.468,1.374 10.554,1.135 10.611,1.025 C10.695,0.871 10.799,0.762 10.937,0.706 C11.304,0.514 11.859,0.551 11.859,0.551 C11.672,0.312 11.375,0.063 11.164,0.016 M3.609,10.481 L1.485,9.085 C2.663,8.644 3.82,8.157 4.579,7.731 L5.812,8.661 C4.931,9.599 4.094,10.188 3.609,10.481 M6.822,7.419 C6.641,7.683 6.453,7.924 6.26,8.155 L5.181,7.342 C5.259,7.272 5.328,7.203 5.369,7.142 C5.493,6.979 5.594,6.807 5.695,6.622 C5.953,6.171 6.174,5.776 7.033,5.317 C7.688,4.968 8.359,4.115 9.055,3.155 C8.523,4.459 7.79,6.031 6.822,7.419" fill-rule="nonzero" vector-effect="none"/></g><defs><clipPath id="clip220"><path d="M15,27 L85,27 L85,74 L15,74 L15,27 z"/></clipPath></defs><g clip-path="url(#clip220)" fill="#000000" fill-opacity="1" opacity="1" stroke="none" stroke-opacity="0" transform="matrix(1,0,0,1,218,82.5)"><path d="M44.2188,67 L44.2188,62.5 L43.4375,62.5 L43.4375,61.8125 L44.2188,61.8125 L44.2188,61.2656 C44.2188,60.9115 44.25,60.651 44.3125,60.4844 C44.3958,60.2552 44.5443,60.0703 44.7578,59.9297 C44.9714,59.7891 45.2708,59.7188 45.6562,59.7188 C45.8958,59.7188 46.1667,59.75 46.4688,59.8125 L46.3438,60.5781 C46.1562,60.5469 45.9792,60.5312 45.8125,60.5312 C45.5521,60.5312 45.3672,60.5859 45.2578,60.6953 C45.1484,60.8047 45.0938,61.0156 45.0938,61.3281 L45.0938,61.8125 L46.0938,61.8125 L46.0938,62.5 L45.0938,62.5 L45.0938,67 L44.2188,67 M50.1562,65.0938 L51.0156,65.2188 C50.9219,65.8125 50.6797,66.2786 50.2891,66.6172 C49.8984,66.9557 49.4219,67.125 48.8594,67.125 C48.151,67.125 47.5807,66.8906 47.1484,66.4219 C46.7161,65.9531 46.5,65.2865 46.5,64.4219 C46.5,63.8698 46.5938,63.3828 46.7812,62.9609 C46.9688,62.5391 47.25,62.224 47.625,62.0156 C48,61.8073 48.4115,61.7031 48.8594,61.7031 C49.4219,61.7031 49.8828,61.8438 50.2422,62.125 C50.6016,62.4062 50.8333,62.8125 50.9375,63.3438 L50.0781,63.4688 C49.9948,63.125 49.8516,62.8646 49.6484,62.6875 C49.4453,62.5104 49.1927,62.4219 48.8906,62.4219 C48.4531,62.4219 48.0964,62.5807 47.8203,62.8984 C47.5443,63.2161 47.4062,63.7188 47.4062,64.4062 C47.4062,65.1042 47.5391,65.6094 47.8047,65.9219 C48.0703,66.2344 48.4167,66.3906 48.8438,66.3906 C49.1875,66.3906 49.4766,66.2865 49.7109,66.0781 C49.9453,65.8698 50.0938,65.5417 50.1562,65.0938 M51.7656,67 L51.7656,61.8125 L52.5625,61.8125 L52.5625,62.5469 C52.9375,61.9844 53.4844,61.7031 54.2031,61.7031 C54.5156,61.7031 54.8047,61.7578 55.0703,61.8672 C55.3359,61.9766 55.5339,62.1224 55.6641,62.3047 C55.7943,62.487 55.8854,62.7031 55.9375,62.9531 C55.9688,63.1198 55.9844,63.4062 55.9844,63.8125 L55.9844,67 L55.1094,67 L55.1094,63.8438 C55.1094,63.4896 55.0755,63.224 55.0078,63.0469 C54.9401,62.8698 54.8177,62.7266 54.6406,62.6172 C54.4635,62.5078 54.2604,62.4531 54.0312,62.4531 C53.6562,62.4531 53.3307,62.5729 53.0547,62.8125 C52.7786,63.0521 52.6406,63.5052 52.6406,64.1719 L52.6406,67 L51.7656,67" fill-rule="nonzero" vector-effect="none"/></g><defs><clipPath id="clip236"><path d="M-67,-11 L3,-11 L3,36 L-67,36 L-67,-11 z"/></clipPath></defs><g clip-path="url(#clip236)" fill="none" opacity="1" stroke="#000000" stroke-linecap="butt" stroke-linejoin="miter" stroke-miterlimit="2" stroke-opacity="1" stroke-width="1" transform="matrix(1,0,0,1,300,120)"><text fill="#000000" fill-opacity="1" font-family="Arial" font-size="9" font-style="normal" font-weight="400" stroke="none" textLength="4.5" x="-4.5" xml:space="preserve" y="3">x</text></g><defs><clipPath id="clip237"><path d="M-67,-36 L3,-36 L3,11 L-67,11 L-67,-36 z"/></clipPath></defs><g clip-path="url(#clip237)" fill="none" opacity="1" stroke="#000000" stroke-linecap="butt" stroke-linejoin="miter" stroke-miterlimit="2" stroke-opacity="1" stroke-width="1" transform="matrix(1,0,0,1,300,145)"><text fill="#000000" fill-opacity="1" font-family="Arial" font-size="9" font-style="normal" font-weight="400" stroke="none" textLength="5" x="-5" xml:space="preserve" y="3">u</text></g><defs><clipPath id="clip238"><path d="M-3,-11 L67,-11 L67,36 L-3,36 L-3,-11 z"/></clipPath></defs><g clip-path="url(#clip238)" fill="none" opacity="1" stroke="#000000" stroke-linecap="butt" stroke-linejoin="miter" stroke-miterlimit="2" stroke-opacity="1" stroke-width="1" transform="matrix(1,0,0,1,236,120)"><text fill="#000000" fill-opacity="1" font-family="Arial" font-size="9" font-style="normal" font-weight="400" stroke="none" textLength="6" x="0" xml:space="preserve" y="3">A</text></g><defs><clipPath id="clip239"><path d="M-3,-36 L67,-36 L67,11 L-3,11 L-3,-36 z"/></clipPath></defs><g clip-path="url(#clip239)" fill="none" opacity="1" stroke="#000000" stroke-linecap="butt" stroke-linejoin="miter" stroke-miterlimit="2" stroke-opacity="1" stroke-width="1" transform="matrix(1,0,0,1,236,145)"><text fill="#000000" fill-opacity="1" font-family="Arial" font-size="9" font-style="normal" font-weight="400" stroke="none" textLength="6" x="0" xml:space="preserve" y="3">B</text></g><defs><clipPath id="clip244"><path d="M-233,-109 L192,-109 L192,256 L-233,256 L-233,-109 z"/></clipPath></defs><g clip-path="url(#clip244)" fill="none" opacity="1" stroke="#000000" stroke-linecap="butt" stroke-linejoin="miter" stroke-miterlimit="2" stroke-opacity="1" stroke-width="2" transform="matrix(1,0,0,1,233,109)"><path d="M0,0 L70,0 L70,47 L0,47 L0,0 z" fill-rule="evenodd" vector-effect="none"/></g><defs><clipPath id="clip250"><path d="M0,0 L66,0 L66,14 L0,14 L0,0 z"/></clipPath></defs><g clip-path="url(#clip250)" fill="none" opacity="1" stroke="#000000" stroke-linecap="square" stroke-linejoin="bevel" stroke-opacity="1" stroke-width="1" transform="matrix(1,0,0,1,234.828,93)"><text fill="#000000" fill-opacity="1" font-family="Arial" font-size="10" font-style="normal" font-weight="400" stroke="none" textLength="64.3438" x="1" xml:space="preserve" y="10">Linearized A,B</text></g><defs><clipPath id="clip258"><path d="M-123,-109 L302,-109 L302,256 L-123,256 L-123,-109 z"/></clipPath></defs><g clip-path="url(#clip258)" fill="#ffffff" fill-opacity="1" opacity="1" stroke="none" stroke-opacity="0" transform="matrix(1,0,0,1,123,109)"><path d="M0,0 L70,0 L70,47 L0,47 L0,0 z" fill-rule="evenodd" vector-effect="none"/></g><defs><clipPath id="clip262"><path d="M0,0 L71,0 L71,48 L0,48 L0,0 z"/></clipPath></defs><g clip-path="url(#clip262)" fill="none" opacity="1" stroke="none" stroke-opacity="0" transform="matrix(1,0,0,1,123,109)"><path d="M0,0 L71,0 L71,48 L0,48 L0,0 z" fill-rule="evenodd" vector-effect="none"/></g><defs><radialGradient cx="25.5117" cy="23.835" fx="25.5117" fy="23.835" gradientUnits="userSpaceOnUse" id="grad4" r="20.307"><stop offset="0.3308" stop-color="#73c8ec" stop-opacity="1"/><stop offset="0.4484" stop-color="#128dbb" stop-opacity="1"/><stop offset="0.4836" stop-color="#d16432" stop-opacity="1"/><stop offset="0.5995" stop-color="#d15f2c" stop-opacity="1"/><stop offset="0.7588" stop-color="#d0511a" stop-opacity="1"/><stop offset="0.9264" stop-color="#cf3d00" stop-opacity="1"/></radialGradient><clipPath id="clip275"><path d="M0,0 L16,0 L16,16 L0,16 L0,0 z"/></clipPath></defs><g clip-path="url(#clip275)" fill="url(#grad4)" opacity="1" stroke="none" stroke-opacity="0" transform="matrix(1,0,0,1,150,124.5)"><path d="M15.609,11 C15.093,9.521 14.757,8.104 14.189,6.442 C13.906,5.605 13.601,4.66 13.32,3.815 C13.015,2.901 12.476,2.072 12.049,1.295 C11.875,0.968 11.438,0.209 10.971,0.211 C10.83,0.211 10.727,0.278 10.641,0.341 C10.336,0.55 7.509,4.558 7.18,4.691 C7.079,4.736 6.953,4.753 6.838,4.792 C6.58,4.892 6.391,5.007 6.19,5.181 C5.86,5.482 5.547,5.876 5.267,6.241 C5.211,6.318 4.648,7.127 4.563,7.241 L0.376,9.018 C0.376,9.018 5.367,12.054 5.696,12.884 C5.924,13.473 7.07,15.132 7.297,15.731 C8.049,15.552 8.524,14.785 9.018,14.342 C9.556,13.861 10.039,13.217 10.493,12.643 C11.376,11.53 11.727,10.814 13.196,10.638 C13.594,10.59 14.337,10.814 14.518,10.969 C14.789,11.197 15.141,11.341 15.401,11.574 C15.859,11.984 15.775,11.496 15.609,11 z" fill-rule="nonzero" vector-effect="none"/></g><defs><clipPath id="clip276"><path d="M0,0 L16,0 L16,16 L0,16 L0,0 z"/></clipPath></defs><g clip-path="url(#clip276)" fill="#f5ae81" fill-opacity="1" opacity="1" stroke="none" stroke-opacity="0" transform="matrix(1,0,0,1,150,124.5)"><path d="M12.203,4.792 C12.375,6.326 12.142,7.576 11.695,7.599 C11.236,7.621 10.726,6.396 10.554,4.87 C10.39,3.336 10.618,2.088 11.064,2.063 C11.523,2.04 12.031,3.256 12.203,4.792 z" fill-rule="nonzero" vector-effect="none"/></g><defs><linearGradient gradientUnits="userSpaceOnUse" id="grad5" x1="9.8174" x2="9.8174" y1="0.3408" y2="16.0005"><stop offset="1e-07" stop-color="#a32e17" stop-opacity="1"/><stop offset="0.2308" stop-color="#972d13" stop-opacity="1"/><stop offset="0.645" stop-color="#78290a" stop-opacity="1"/><stop offset="1" stop-color="#582500" stop-opacity="1"/></linearGradient><clipPath id="clip277"><path d="M0,0 L16,0 L16,16 L0,16 L0,0 z"/></clipPath></defs><g clip-path="url(#clip277)" fill="url(#grad5)" opacity="1" stroke="none" stroke-opacity="0" transform="matrix(1,0,0,1,150,124.5)"><path d="M15.955,11.295 C15.619,10.187 13.047,1.451 11.656,0.341 L10.82,0.506 L10.898,0.715 C10.953,0.683 11.015,0.684 11.046,0.699 C11.814,1.001 13.767,6.946 13.767,6.946 C14.22,8.467 14.64,9.72 14.994,10.72 C14.484,10.389 13.937,10.186 13.416,10.17 C11.594,10.115 10.814,11.528 9.58,13.024 C9.031,13.698 8.174,14.729 7.596,15.148 C6.633,12.464 4.829,11.217 4.243,10.875 L3.634,11.31 L3.655,11.318 C3.655,11.318 6.164,12.513 7.142,16 C7.156,15.999 7.174,16 7.189,16 C8.844,16 11.476,10.521 13.416,10.829 C14,10.922 14.711,11.288 15.312,11.808 C15.633,12.069 16.158,11.971 15.955,11.295 z" fill-rule="nonzero" vector-effect="none"/></g><defs><linearGradient gradientUnits="userSpaceOnUse" id="grad6" x1="5.9292" x2="5.9292" y1="0.000488281" y2="11.3101"><stop offset="1e-07" stop-color="#3088cd" stop-opacity="1"/><stop offset="0.5471" stop-color="#185991" stop-opacity="1"/><stop offset="0.8957" stop-color="#0b3f6f" stop-opacity="1"/></linearGradient><clipPath id="clip278"><path d="M0,0 L16,0 L16,16 L0,16 L0,0 z"/></clipPath></defs><g clip-path="url(#clip278)" fill="url(#grad6)" opacity="1" stroke="none" stroke-opacity="0" transform="matrix(1,0,0,1,150,124.5)"><path d="M11.164,0.016 C11.127,0.007 11.096,0.001 11.062,0.001 C9.627,-0.061 8.016,4.03 6.695,4.736 C5.328,5.465 5.242,6.155 4.798,6.762 C4.359,7.374 0,8.915 0,8.915 L3.634,11.31 L4.155,10.947 C4.924,10.452 6.242,9.467 7.406,7.784 C9.017,5.474 10,2.7 10.468,1.374 C10.468,1.374 10.554,1.135 10.611,1.025 C10.695,0.871 10.799,0.762 10.937,0.706 C11.304,0.514 11.859,0.551 11.859,0.551 C11.672,0.312 11.375,0.063 11.164,0.016 M3.609,10.481 L1.485,9.085 C2.663,8.644 3.82,8.157 4.579,7.731 L5.812,8.661 C4.931,9.599 4.094,10.188 3.609,10.481 M6.822,7.419 C6.641,7.683 6.453,7.924 6.26,8.155 L5.181,7.342 C5.259,7.272 5.328,7.203 5.369,7.142 C5.493,6.979 5.594,6.807 5.695,6.622 C5.953,6.171 6.174,5.776 7.033,5.317 C7.688,4.968 8.359,4.115 9.055,3.155 C8.523,4.459 7.79,6.031 6.822,7.419" fill-rule="nonzero" vector-effect="none"/></g><defs><clipPath id="clip297"><path d="M15,27 L85,27 L85,74 L15,74 L15,27 z"/></clipPath></defs><g clip-path="url(#clip297)" fill="#000000" fill-opacity="1" opacity="1" stroke="none" stroke-opacity="0" transform="matrix(1,0,0,1,108,82.5)"><path d="M44.2188,67 L44.2188,62.5 L43.4375,62.5 L43.4375,61.8125 L44.2188,61.8125 L44.2188,61.2656 C44.2188,60.9115 44.25,60.651 44.3125,60.4844 C44.3958,60.2552 44.5443,60.0703 44.7578,59.9297 C44.9714,59.7891 45.2708,59.7188 45.6562,59.7188 C45.8958,59.7188 46.1667,59.75 46.4688,59.8125 L46.3438,60.5781 C46.1562,60.5469 45.9792,60.5312 45.8125,60.5312 C45.5521,60.5312 45.3672,60.5859 45.2578,60.6953 C45.1484,60.8047 45.0938,61.0156 45.0938,61.3281 L45.0938,61.8125 L46.0938,61.8125 L46.0938,62.5 L45.0938,62.5 L45.0938,67 L44.2188,67 M50.1562,65.0938 L51.0156,65.2188 C50.9219,65.8125 50.6797,66.2786 50.2891,66.6172 C49.8984,66.9557 49.4219,67.125 48.8594,67.125 C48.151,67.125 47.5807,66.8906 47.1484,66.4219 C46.7161,65.9531 46.5,65.2865 46.5,64.4219 C46.5,63.8698 46.5938,63.3828 46.7812,62.9609 C46.9688,62.5391 47.25,62.224 47.625,62.0156 C48,61.8073 48.4115,61.7031 48.8594,61.7031 C49.4219,61.7031 49.8828,61.8438 50.2422,62.125 C50.6016,62.4062 50.8333,62.8125 50.9375,63.3438 L50.0781,63.4688 C49.9948,63.125 49.8516,62.8646 49.6484,62.6875 C49.4453,62.5104 49.1927,62.4219 48.8906,62.4219 C48.4531,62.4219 48.0964,62.5807 47.8203,62.8984 C47.5443,63.2161 47.4062,63.7188 47.4062,64.4062 C47.4062,65.1042 47.5391,65.6094 47.8047,65.9219 C48.0703,66.2344 48.4167,66.3906 48.8438,66.3906 C49.1875,66.3906 49.4766,66.2865 49.7109,66.0781 C49.9453,65.8698 50.0938,65.5417 50.1562,65.0938 M51.7656,67 L51.7656,61.8125 L52.5625,61.8125 L52.5625,62.5469 C52.9375,61.9844 53.4844,61.7031 54.2031,61.7031 C54.5156,61.7031 54.8047,61.7578 55.0703,61.8672 C55.3359,61.9766 55.5339,62.1224 55.6641,62.3047 C55.7943,62.487 55.8854,62.7031 55.9375,62.9531 C55.9688,63.1198 55.9844,63.4062 55.9844,63.8125 L55.9844,67 L55.1094,67 L55.1094,63.8438 C55.1094,63.4896 55.0755,63.224 55.0078,63.0469 C54.9401,62.8698 54.8177,62.7266 54.6406,62.6172 C54.4635,62.5078 54.2604,62.4531 54.0312,62.4531 C53.6562,62.4531 53.3307,62.5729 53.0547,62.8125 C52.7786,63.0521 52.6406,63.5052 52.6406,64.1719 L52.6406,67 L51.7656,67" fill-rule="nonzero" vector-effect="none"/></g><defs><clipPath id="clip313"><path d="M-67,-11 L3,-11 L3,36 L-67,36 L-67,-11 z"/></clipPath></defs><g clip-path="url(#clip313)" fill="none" opacity="1" stroke="#000000" stroke-linecap="butt" stroke-linejoin="miter" stroke-miterlimit="2" stroke-opacity="1" stroke-width="1" transform="matrix(1,0,0,1,190,120)"><text fill="#000000" fill-opacity="1" font-family="Arial" font-size="9" font-style="normal" font-weight="400" stroke="none" textLength="6" x="-6" xml:space="preserve" y="3">A</text></g><defs><clipPath id="clip314"><path d="M-67,-36 L3,-36 L3,11 L-67,11 L-67,-36 z"/></clipPath></defs><g clip-path="url(#clip314)" fill="none" opacity="1" stroke="#000000" stroke-linecap="butt" stroke-linejoin="miter" stroke-miterlimit="2" stroke-opacity="1" stroke-width="1" transform="matrix(1,0,0,1,190,145)"><text fill="#000000" fill-opacity="1" font-family="Arial" font-size="9" font-style="normal" font-weight="400" stroke="none" textLength="6.48438" x="-6.48438" xml:space="preserve" y="3">C</text></g><defs><clipPath id="clip315"><path d="M-3,-26 L67,-26 L67,21 L-3,21 L-3,-26 z"/></clipPath></defs><g clip-path="url(#clip315)" fill="none" opacity="1" stroke="#000000" stroke-linecap="butt" stroke-linejoin="miter" stroke-miterlimit="2" stroke-opacity="1" stroke-width="1" transform="matrix(1,0,0,1,126,135)"><text fill="#000000" fill-opacity="1" font-family="Arial" font-size="9" font-style="normal" font-weight="400" stroke="none" textLength="5" x="0" xml:space="preserve" y="3">L</text></g><defs><clipPath id="clip320"><path d="M-123,-109 L302,-109 L302,256 L-123,256 L-123,-109 z"/></clipPath></defs><g clip-path="url(#clip320)" fill="none" opacity="1" stroke="#000000" stroke-linecap="butt" stroke-linejoin="miter" stroke-miterlimit="2" stroke-opacity="1" stroke-width="2" transform="matrix(1,0,0,1,123,109)"><path d="M0,0 L70,0 L70,47 L0,47 L0,0 z" fill-rule="evenodd" vector-effect="none"/></g><defs><clipPath id="clip326"><path d="M0,0 L74,0 L74,14 L0,14 L0,0 z"/></clipPath></defs><g clip-path="url(#clip326)" fill="none" opacity="1" stroke="#000000" stroke-linecap="square" stroke-linejoin="bevel" stroke-opacity="1" stroke-width="1" transform="matrix(1,0,0,1,120.945,93)"><text fill="#000000" fill-opacity="1" font-family="Arial" font-size="10" font-style="normal" font-weight="400" stroke="none" textLength="72.1094" x="1" xml:space="preserve" y="10">Controller Gains</text></g><defs><clipPath id="clip334"><path d="M-57,-135 L368,-135 L368,230 L-57,230 L-57,-135 z"/></clipPath></defs><g clip-path="url(#clip334)" fill="#ffffff" fill-opacity="1" opacity="1" stroke="none" stroke-opacity="0" transform="matrix(1,0,0,1,57,135)"><path d="M0,0 L47,0 L47,80 L0,80 L0,0 z" fill-rule="evenodd" vector-effect="none"/></g><defs><clipPath id="clip338"><path d="M0,0 L48,0 L48,81 L0,81 L0,0 z"/></clipPath></defs><g clip-path="url(#clip338)" fill="none" opacity="1" stroke="none" stroke-opacity="0" transform="matrix(1,0,0,1,57,135)"><path d="M0,0 L48,0 L48,81 L0,81 L0,0 z" fill-rule="evenodd" vector-effect="none"/></g><defs><radialGradient cx="25.5117" cy="23.835" fx="25.5117" fy="23.835" gradientUnits="userSpaceOnUse" id="grad7" r="20.307"><stop offset="0.3308" stop-color="#73c8ec" stop-opacity="1"/><stop offset="0.4484" stop-color="#128dbb" stop-opacity="1"/><stop offset="0.4836" stop-color="#d16432" stop-opacity="1"/><stop offset="0.5995" stop-color="#d15f2c" stop-opacity="1"/><stop offset="0.7588" stop-color="#d0511a" stop-opacity="1"/><stop offset="0.9264" stop-color="#cf3d00" stop-opacity="1"/></radialGradient><clipPath id="clip351"><path d="M0,0 L16,0 L16,16 L0,16 L0,0 z"/></clipPath></defs><g clip-path="url(#clip351)" fill="url(#grad7)" opacity="1" stroke="none" stroke-opacity="0" transform="matrix(1,0,0,1,72.5,167)"><path d="M15.609,11 C15.093,9.521 14.757,8.104 14.189,6.442 C13.906,5.605 13.601,4.66 13.32,3.815 C13.015,2.901 12.476,2.072 12.049,1.295 C11.875,0.968 11.438,0.209 10.971,0.211 C10.83,0.211 10.727,0.278 10.641,0.341 C10.336,0.55 7.509,4.558 7.18,4.691 C7.079,4.736 6.953,4.753 6.838,4.792 C6.58,4.892 6.391,5.007 6.19,5.181 C5.86,5.482 5.547,5.876 5.267,6.241 C5.211,6.318 4.648,7.127 4.563,7.241 L0.376,9.018 C0.376,9.018 5.367,12.054 5.696,12.884 C5.924,13.473 7.07,15.132 7.297,15.731 C8.049,15.552 8.524,14.785 9.018,14.342 C9.556,13.861 10.039,13.217 10.493,12.643 C11.376,11.53 11.727,10.814 13.196,10.638 C13.594,10.59 14.337,10.814 14.518,10.969 C14.789,11.197 15.141,11.341 15.401,11.574 C15.859,11.984 15.775,11.496 15.609,11 z" fill-rule="nonzero" vector-effect="none"/></g><defs><clipPath id="clip352"><path d="M0,0 L16,0 L16,16 L0,16 L0,0 z"/></clipPath></defs><g clip-path="url(#clip352)" fill="#f5ae81" fill-opacity="1" opacity="1" stroke="none" stroke-opacity="0" transform="matrix(1,0,0,1,72.5,167)"><path d="M12.203,4.792 C12.375,6.326 12.142,7.576 11.695,7.599 C11.236,7.621 10.726,6.396 10.554,4.87 C10.39,3.336 10.618,2.088 11.064,2.063 C11.523,2.04 12.031,3.256 12.203,4.792 z" fill-rule="nonzero" vector-effect="none"/></g><defs><linearGradient gradientUnits="userSpaceOnUse" id="grad8" x1="9.8174" x2="9.8174" y1="0.3408" y2="16.0005"><stop offset="1e-07" stop-color="#a32e17" stop-opacity="1"/><stop offset="0.2308" stop-color="#972d13" stop-opacity="1"/><stop offset="0.645" stop-color="#78290a" stop-opacity="1"/><stop offset="1" stop-color="#582500" stop-opacity="1"/></linearGradient><clipPath id="clip353"><path d="M0,0 L16,0 L16,16 L0,16 L0,0 z"/></clipPath></defs><g clip-path="url(#clip353)" fill="url(#grad8)" opacity="1" stroke="none" stroke-opacity="0" transform="matrix(1,0,0,1,72.5,167)"><path d="M15.955,11.295 C15.619,10.187 13.047,1.451 11.656,0.341 L10.82,0.506 L10.898,0.715 C10.953,0.683 11.015,0.684 11.046,0.699 C11.814,1.001 13.767,6.946 13.767,6.946 C14.22,8.467 14.64,9.72 14.994,10.72 C14.484,10.389 13.937,10.186 13.416,10.17 C11.594,10.115 10.814,11.528 9.58,13.024 C9.031,13.698 8.174,14.729 7.596,15.148 C6.633,12.464 4.829,11.217 4.243,10.875 L3.634,11.31 L3.655,11.318 C3.655,11.318 6.164,12.513 7.142,16 C7.156,15.999 7.174,16 7.189,16 C8.844,16 11.476,10.521 13.416,10.829 C14,10.922 14.711,11.288 15.312,11.808 C15.633,12.069 16.158,11.971 15.955,11.295 z" fill-rule="nonzero" vector-effect="none"/></g><defs><linearGradient gradientUnits="userSpaceOnUse" id="grad9" x1="5.9292" x2="5.9292" y1="0.000488281" y2="11.3101"><stop offset="1e-07" stop-color="#3088cd" stop-opacity="1"/><stop offset="0.5471" stop-color="#185991" stop-opacity="1"/><stop offset="0.8957" stop-color="#0b3f6f" stop-opacity="1"/></linearGradient><clipPath id="clip354"><path d="M0,0 L16,0 L16,16 L0,16 L0,0 z"/></clipPath></defs><g clip-path="url(#clip354)" fill="url(#grad9)" opacity="1" stroke="none" stroke-opacity="0" transform="matrix(1,0,0,1,72.5,167)"><path d="M11.164,0.016 C11.127,0.007 11.096,0.001 11.062,0.001 C9.627,-0.061 8.016,4.03 6.695,4.736 C5.328,5.465 5.242,6.155 4.798,6.762 C4.359,7.374 0,8.915 0,8.915 L3.634,11.31 L4.155,10.947 C4.924,10.452 6.242,9.467 7.406,7.784 C9.017,5.474 10,2.7 10.468,1.374 C10.468,1.374 10.554,1.135 10.611,1.025 C10.695,0.871 10.799,0.762 10.937,0.706 C11.304,0.514 11.859,0.551 11.859,0.551 C11.672,0.312 11.375,0.063 11.164,0.016 M3.609,10.481 L1.485,9.085 C2.663,8.644 3.82,8.157 4.579,7.731 L5.812,8.661 C4.931,9.599 4.094,10.188 3.609,10.481 M6.822,7.419 C6.641,7.683 6.453,7.924 6.26,8.155 L5.181,7.342 C5.259,7.272 5.328,7.203 5.369,7.142 C5.493,6.979 5.594,6.807 5.695,6.622 C5.953,6.171 6.174,5.776 7.033,5.317 C7.688,4.968 8.359,4.115 9.055,3.155 C8.523,4.459 7.79,6.031 6.822,7.419" fill-rule="nonzero" vector-effect="none"/></g><defs><clipPath id="clip373"><path d="M27,10 L74,10 L74,90 L27,90 L27,10 z"/></clipPath></defs><g clip-path="url(#clip373)" fill="#000000" fill-opacity="1" opacity="1" stroke="none" stroke-opacity="0" transform="matrix(1,0,0,1,30.5,125)"><path d="M27.8438,67 L27.8438,62.5 L27.0625,62.5 L27.0625,61.8125 L27.8438,61.8125 L27.8438,61.2656 C27.8438,60.9115 27.875,60.651 27.9375,60.4844 C28.0208,60.2552 28.1693,60.0703 28.3828,59.9297 C28.5964,59.7891 28.8958,59.7188 29.2812,59.7188 C29.5208,59.7188 29.7917,59.75 30.0938,59.8125 L29.9688,60.5781 C29.7812,60.5469 29.6042,60.5312 29.4375,60.5312 C29.1771,60.5312 28.9922,60.5859 28.8828,60.6953 C28.7734,60.8047 28.7188,61.0156 28.7188,61.3281 L28.7188,61.8125 L29.7188,61.8125 L29.7188,62.5 L28.7188,62.5 L28.7188,67 L27.8438,67 M33.7969,67 L33.7969,66.2344 C33.3906,66.8281 32.8385,67.125 32.1406,67.125 C31.8385,67.125 31.5547,67.0651 31.2891,66.9453 C31.0234,66.8255 30.8255,66.6771 30.6953,66.5 C30.5651,66.3229 30.474,66.1042 30.4219,65.8438 C30.3906,65.6771 30.375,65.4062 30.375,65.0312 L30.375,61.8125 L31.25,61.8125 L31.25,64.6875 C31.25,65.1458 31.2708,65.4583 31.3125,65.625 C31.3646,65.8542 31.4792,66.0339 31.6562,66.1641 C31.8333,66.2943 32.0573,66.3594 32.3281,66.3594 C32.5885,66.3594 32.8333,66.2917 33.0625,66.1562 C33.2917,66.0208 33.4557,65.8359 33.5547,65.6016 C33.6536,65.3672 33.7031,65.0312 33.7031,64.5938 L33.7031,61.8125 L34.5781,61.8125 L34.5781,67 L33.7969,67 M35.9219,67 L35.9219,59.8438 L36.7969,59.8438 L36.7969,67 L35.9219,67 M38.1406,67 L38.1406,59.8438 L39.0156,59.8438 L39.0156,67 L38.1406,67 M40.1719,64.7031 L41.0625,64.625 C41.1042,64.9792 41.2031,65.2708 41.3594,65.5 C41.5156,65.7292 41.7552,65.9141 42.0781,66.0547 C42.401,66.1953 42.7656,66.2656 43.1719,66.2656 C43.5365,66.2656 43.8568,66.2135 44.1328,66.1094 C44.4089,66.0052 44.6146,65.8594 44.75,65.6719 C44.8854,65.4844 44.9531,65.2812 44.9531,65.0625 C44.9531,64.8333 44.888,64.6354 44.7578,64.4688 C44.6276,64.3021 44.4115,64.1615 44.1094,64.0469 C43.9219,63.974 43.5,63.8568 42.8438,63.6953 C42.1875,63.5339 41.724,63.3854 41.4531,63.25 C41.1094,63.0729 40.8542,62.8516 40.6875,62.5859 C40.5208,62.3203 40.4375,62.0208 40.4375,61.6875 C40.4375,61.3333 40.5417,60.9974 40.75,60.6797 C40.9583,60.362 41.2578,60.1224 41.6484,59.9609 C42.0391,59.7995 42.4792,59.7188 42.9688,59.7188 C43.4896,59.7188 43.9531,59.8047 44.3594,59.9766 C44.7656,60.1484 45.0781,60.401 45.2969,60.7344 C45.5156,61.0677 45.6354,61.4427 45.6562,61.8594 L44.75,61.9219 C44.6979,61.474 44.5312,61.1328 44.25,60.8984 C43.9688,60.6641 43.5521,60.5469 43,60.5469 C42.4271,60.5469 42.0104,60.6536 41.75,60.8672 C41.4896,61.0807 41.3594,61.3333 41.3594,61.625 C41.3594,61.8854 41.4531,62.099 41.6406,62.2656 C41.8177,62.4323 42.2917,62.6016 43.0625,62.7734 C43.8333,62.9453 44.3594,63.099 44.6406,63.2344 C45.0573,63.4219 45.3646,63.6641 45.5625,63.9609 C45.7604,64.2578 45.8594,64.599 45.8594,64.9844 C45.8594,65.3594 45.7526,65.7161 45.5391,66.0547 C45.3255,66.3932 45.013,66.6562 44.6016,66.8438 C44.1901,67.0312 43.7292,67.125 43.2188,67.125 C42.5729,67.125 42.0312,67.0312 41.5938,66.8438 C41.1562,66.6562 40.8125,66.3724 40.5625,65.9922 C40.3125,65.612 40.1823,65.1823 40.1719,64.7031 M47,69 L46.8906,68.1719 C47.0885,68.224 47.2604,68.25 47.4062,68.25 C47.5938,68.25 47.7474,68.2188 47.8672,68.1562 C47.987,68.0938 48.0833,68 48.1562,67.875 C48.2083,67.7917 48.2969,67.5729 48.4219,67.2188 C48.4427,67.1771 48.4688,67.1094 48.5,67.0156 L46.5312,61.8125 L47.4844,61.8125 L48.5625,64.8125 C48.6979,65.1979 48.8229,65.599 48.9375,66.0156 C49.0417,65.6094 49.1615,65.2188 49.2969,64.8438 L50.4062,61.8125 L51.2812,61.8125 L49.3125,67.0938 C49.1042,67.6562 48.9427,68.0469 48.8281,68.2656 C48.6719,68.5573 48.4922,68.7708 48.2891,68.9062 C48.0859,69.0417 47.8438,69.1094 47.5625,69.1094 C47.3958,69.1094 47.2083,69.0729 47,69 M51.6875,65.4531 L52.5469,65.3125 C52.599,65.6667 52.737,65.9349 52.9609,66.1172 C53.1849,66.2995 53.4948,66.3906 53.8906,66.3906 C54.2969,66.3906 54.599,66.3099 54.7969,66.1484 C54.9948,65.987 55.0938,65.7917 55.0938,65.5625 C55.0938,65.3646 55.0052,65.2083 54.8281,65.0938 C54.7031,65.0208 54.401,64.9219 53.9219,64.7969 C53.2865,64.6406 52.8438,64.5026 52.5938,64.3828 C52.3438,64.263 52.1536,64.099 52.0234,63.8906 C51.8932,63.6823 51.8281,63.4479 51.8281,63.1875 C51.8281,62.9583 51.8802,62.7448 51.9844,62.5469 C52.0885,62.349 52.2344,62.1875 52.4219,62.0625 C52.5573,61.9583 52.7422,61.8724 52.9766,61.8047 C53.2109,61.737 53.4635,61.7031 53.7344,61.7031 C54.1406,61.7031 54.4974,61.7604 54.8047,61.875 C55.112,61.9896 55.3411,62.1484 55.4922,62.3516 C55.6432,62.5547 55.7448,62.8229 55.7969,63.1562 L54.9375,63.2656 C54.8958,63.0052 54.7812,62.7995 54.5938,62.6484 C54.4062,62.4974 54.1406,62.4219 53.7969,62.4219 C53.401,62.4219 53.1146,62.487 52.9375,62.6172 C52.7604,62.7474 52.6719,62.9062 52.6719,63.0938 C52.6719,63.2083 52.7083,63.3073 52.7812,63.3906 C52.8542,63.4844 52.9688,63.5625 53.125,63.625 C53.2083,63.6562 53.4688,63.7344 53.9062,63.8594 C54.5208,64.026 54.9505,64.1615 55.1953,64.2656 C55.4401,64.3698 55.6328,64.5234 55.7734,64.7266 C55.9141,64.9297 55.9844,65.1771 55.9844,65.4688 C55.9844,65.7708 55.901,66.0495 55.7344,66.3047 C55.5677,66.5599 55.3229,66.7604 55,66.9062 C54.6771,67.0521 54.3125,67.125 53.9062,67.125 C53.2292,67.125 52.7135,66.9844 52.3594,66.7031 C52.0052,66.4219 51.7812,66.0052 51.6875,65.4531 M58.9531,66.2188 L59.0781,66.9844 C58.8281,67.0365 58.6094,67.0625 58.4219,67.0625 C58.099,67.0625 57.849,67.013 57.6719,66.9141 C57.4948,66.8151 57.3724,66.6823 57.3047,66.5156 C57.237,66.349 57.2031,66.0052 57.2031,65.4844 L57.2031,62.5 L56.5469,62.5 L56.5469,61.8125 L57.2031,61.8125 L57.2031,60.5312 L58.0625,60 L58.0625,61.8125 L58.9531,61.8125 L58.9531,62.5 L58.0625,62.5 L58.0625,65.5312 C58.0625,65.7812 58.0781,65.9427 58.1094,66.0156 C58.1406,66.0885 58.1927,66.1458 58.2656,66.1875 C58.3385,66.2292 58.4375,66.25 58.5625,66.25 C58.6667,66.25 58.7969,66.2396 58.9531,66.2188 M63.3438,65.3281 L64.2656,65.4375 C64.1198,65.9688 63.8516,66.3828 63.4609,66.6797 C63.0703,66.9766 62.5781,67.125 61.9844,67.125 C61.224,67.125 60.6198,66.8906 60.1719,66.4219 C59.724,65.9531 59.5,65.2969 59.5,64.4531 C59.5,63.5781 59.7266,62.901 60.1797,62.4219 C60.6328,61.9427 61.2135,61.7031 61.9219,61.7031 C62.6198,61.7031 63.1875,61.9375 63.625,62.4062 C64.0625,62.875 64.2812,63.5365 64.2812,64.3906 C64.2812,64.4427 64.2812,64.5208 64.2812,64.625 L60.4219,64.625 C60.4531,65.1979 60.612,65.6354 60.8984,65.9375 C61.1849,66.2396 61.5469,66.3906 61.9844,66.3906 C62.3073,66.3906 62.5833,66.3073 62.8125,66.1406 C63.0417,65.974 63.2188,65.7031 63.3438,65.3281 M60.4688,63.9062 L63.3594,63.9062 C63.3177,63.4688 63.2083,63.1406 63.0312,62.9219 C62.75,62.5885 62.3854,62.4219 61.9375,62.4219 C61.5312,62.4219 61.1927,62.5573 60.9219,62.8281 C60.651,63.099 60.5,63.4583 60.4688,63.9062 M65.3438,67 L65.3438,61.8125 L66.1406,61.8125 L66.1406,62.5469 C66.2969,62.2865 66.5104,62.0807 66.7812,61.9297 C67.0521,61.7786 67.3594,61.7031 67.7031,61.7031 C68.0885,61.7031 68.4036,61.7812 68.6484,61.9375 C68.8932,62.0938 69.0677,62.3177 69.1719,62.6094 C69.5781,62.0052 70.1094,61.7031 70.7656,61.7031 C71.2865,61.7031 71.6849,61.8438 71.9609,62.125 C72.237,62.4062 72.375,62.8438 72.375,63.4375 L72.375,67 L71.5,67 L71.5,63.7344 C71.5,63.3802 71.4714,63.125 71.4141,62.9688 C71.3568,62.8125 71.2526,62.6875 71.1016,62.5938 C70.9505,62.5 70.776,62.4531 70.5781,62.4531 C70.2135,62.4531 69.9115,62.5755 69.6719,62.8203 C69.4323,63.0651 69.3125,63.4531 69.3125,63.9844 L69.3125,67 L68.4219,67 L68.4219,63.625 C68.4219,63.2396 68.3516,62.9479 68.2109,62.75 C68.0703,62.5521 67.8385,62.4531 67.5156,62.4531 C67.2656,62.4531 67.0365,62.5182 66.8281,62.6484 C66.6198,62.7786 66.4661,62.9688 66.3672,63.2188 C66.2682,63.4688 66.2188,63.8333 66.2188,64.3125 L66.2188,67 L65.3438,67" fill-rule="nonzero" vector-effect="none"/></g><defs><clipPath id="clip389"><path d="M-3,-11 L77,-11 L77,36 L-3,36 L-3,-11 z"/></clipPath></defs><g clip-path="url(#clip389)" fill="none" opacity="1" stroke="#000000" stroke-linecap="butt" stroke-linejoin="miter" stroke-miterlimit="2" stroke-opacity="1" stroke-width="1" transform="matrix(0,-1,1,0,68,212)"><text fill="#000000" fill-opacity="1" font-family="Arial" font-size="9" font-style="normal" font-weight="400" stroke="none" textLength="4.5" x="0" xml:space="preserve" y="3">x</text></g><defs><clipPath id="clip390"><path d="M-3,-36 L77,-36 L77,11 L-3,11 L-3,-36 z"/></clipPath></defs><g clip-path="url(#clip390)" fill="none" opacity="1" stroke="#000000" stroke-linecap="butt" stroke-linejoin="miter" stroke-miterlimit="2" stroke-opacity="1" stroke-width="1" transform="matrix(0,-1,1,0,93,212)"><text fill="#000000" fill-opacity="1" font-family="Arial" font-size="9" font-style="normal" font-weight="400" stroke="none" textLength="5" x="0" xml:space="preserve" y="3">u</text></g><defs><clipPath id="clip391"><path d="M-77,-26 L3,-26 L3,21 L-77,21 L-77,-26 z"/></clipPath></defs><g clip-path="url(#clip391)" fill="none" opacity="1" stroke="#000000" stroke-linecap="butt" stroke-linejoin="miter" stroke-miterlimit="2" stroke-opacity="1" stroke-width="1" transform="matrix(0,-1,1,0,83,138)"><text fill="#000000" fill-opacity="1" font-family="Arial" font-size="9" font-style="normal" font-weight="400" stroke="none" textLength="9.5" x="-9.5" xml:space="preserve" y="3">dx</text></g><defs><clipPath id="clip396"><path d="M-57,-135 L368,-135 L368,230 L-57,230 L-57,-135 z"/></clipPath></defs><g clip-path="url(#clip396)" fill="none" opacity="1" stroke="#000000" stroke-linecap="butt" stroke-linejoin="miter" stroke-miterlimit="2" stroke-opacity="1" stroke-width="2" transform="matrix(1,0,0,1,57,135)"><path d="M0,0 L47,0 L47,80 L0,80 L0,0 z" fill-rule="evenodd" vector-effect="none"/></g><defs><clipPath id="clip402"><path d="M0,0 L25,0 L25,14 L0,14 L0,0 z"/></clipPath></defs><g clip-path="url(#clip402)" fill="none" opacity="1" stroke="#000000" stroke-linecap="square" stroke-linejoin="bevel" stroke-opacity="1" stroke-width="1" transform="matrix(1,0,0,1,106,168)"><text fill="#000000" fill-opacity="1" font-family="Arial" font-size="10" font-style="normal" font-weight="400" stroke="none" textLength="22.7344" x="1" xml:space="preserve" y="10">f(x,u)</text></g><defs><clipPath id="clip410"><path d="M-233,-50 L192,-50 L192,315 L-233,315 L-233,-50 z"/></clipPath></defs><g clip-path="url(#clip410)" fill="#000000" fill-opacity="1" opacity="1" stroke="none" stroke-opacity="0" transform="matrix(1,0,0,1,233,50)"><path d="M0,0 L-8,-4 L-8,4 L0,0 z" fill-rule="nonzero" vector-effect="none"/></g><defs><clipPath id="clip413"><path d="M72,40 L497,40 L497,405 L72,405 L72,40 z"/></clipPath></defs><g clip-path="url(#clip413)" fill="none" opacity="1" stroke="#000000" stroke-linecap="butt" stroke-linejoin="miter" stroke-miterlimit="2" stroke-opacity="1" stroke-width="1" transform="matrix(1,0,0,1,-72,-40)"><path d="M235.5,90.5 L297.5,90.5" fill-rule="evenodd" vector-effect="none"/></g><defs><clipPath id="clip419"><path d="M0,0 L17,0 L17,12 L0,12 L0,0 z"/></clipPath></defs><g clip-path="url(#clip419)" fill="none" opacity="1" stroke="#000000" stroke-linecap="square" stroke-linejoin="bevel" stroke-opacity="1" stroke-width="1" transform="matrix(1,0,0,1,184.75,51.5)"><text fill="#000000" fill-opacity="1" font-family="Arial" font-size="9" font-style="normal" font-weight="400" stroke="none" textLength="14.5" x="1" xml:space="preserve" y="9">dxe</text></g><defs><clipPath id="clip427"><path d="M58,280 L-367,280 L-367,-85 L58,-85 L58,280 z"/></clipPath></defs><g clip-path="url(#clip427)" fill="#000000" fill-opacity="1" opacity="1" stroke="none" stroke-opacity="0" transform="matrix(-1,1.22465e-16,-1.22465e-16,-1,58,280)"><path d="M0,0 L-8,-4 L-8,4 L0,0 z" fill-rule="nonzero" vector-effect="none"/></g><defs><clipPath id="clip430"><path d="M72,40 L497,40 L497,405 L72,405 L72,40 z"/></clipPath></defs><g clip-path="url(#clip430)" fill="none" opacity="1" stroke="#000000" stroke-linecap="butt" stroke-linejoin="miter" stroke-miterlimit="2" stroke-opacity="1" stroke-width="1" transform="matrix(1,0,0,1,-72,-40)"><path d="M175.5,320.5 L138.5,320.5" fill-rule="evenodd" vector-effect="none"/></g><defs><clipPath id="clip433"><path d="M-33,-15 L392,-15 L392,350 L-33,350 L-33,-15 z"/></clipPath></defs><g clip-path="url(#clip433)" fill="#000000" fill-opacity="1" opacity="1" stroke="none" stroke-opacity="0" transform="matrix(1,0,0,1,33,15)"><path d="M0,0 L-8,-4 L-8,4 L0,0 z" fill-rule="nonzero" vector-effect="none"/></g><defs><clipPath id="clip436"><path d="M72,40 L497,40 L497,405 L72,405 L72,40 z"/></clipPath></defs><g clip-path="url(#clip436)" fill="none" opacity="1" stroke="#000000" stroke-linecap="butt" stroke-linejoin="miter" stroke-miterlimit="2" stroke-opacity="1" stroke-width="1" transform="matrix(1,0,0,1,-72,-40)"><path d="M195.5,175.5 L186.5,175.5 L186.5,100.5 L90.5,100.5 L90.5,81 M90.5,80 L90.5,55.5 L97.5,55.5" fill-rule="evenodd" vector-effect="none"/><polyline fill="none" points="90.5,86 90.5,85" vector-effect="none"/></g><defs><clipPath id="clip437"><path d="M72,40 L497,40 L497,405 L72,405 L72,40 z"/></clipPath></defs><g clip-path="url(#clip437)" fill="none" opacity="1" stroke="#2e2e2e" stroke-linecap="butt" stroke-linejoin="miter" stroke-miterlimit="2" stroke-opacity="1" stroke-width="1" transform="matrix(1,0,0,1,-72,-40)"><polyline fill="none" points="90.5,85 90.5,84" vector-effect="none"/></g><defs><clipPath id="clip438"><path d="M72,40 L497,40 L497,405 L72,405 L72,40 z"/></clipPath></defs><g clip-path="url(#clip438)" fill="none" opacity="1" stroke="#5d5d5d" stroke-linecap="butt" stroke-linejoin="miter" stroke-miterlimit="2" stroke-opacity="1" stroke-width="1" transform="matrix(1,0,0,1,-72,-40)"><polyline fill="none" points="90.5,84 90.5,83" vector-effect="none"/></g><defs><clipPath id="clip439"><path d="M72,40 L497,40 L497,405 L72,405 L72,40 z"/></clipPath></defs><g clip-path="url(#clip439)" fill="none" opacity="1" stroke="#8b8b8b" stroke-linecap="butt" stroke-linejoin="miter" stroke-miterlimit="2" stroke-opacity="1" stroke-width="1" transform="matrix(1,0,0,1,-72,-40)"><polyline fill="none" points="90.5,83 90.5,82" vector-effect="none"/></g><defs><clipPath id="clip440"><path d="M72,40 L497,40 L497,405 L72,405 L72,40 z"/></clipPath></defs><g clip-path="url(#clip440)" fill="none" opacity="1" stroke="#b9b9b9" stroke-linecap="butt" stroke-linejoin="miter" stroke-miterlimit="2" stroke-opacity="1" stroke-width="1" transform="matrix(1,0,0,1,-72,-40)"><polyline fill="none" points="90.5,82 90.5,81" vector-effect="none"/></g><defs><clipPath id="clip441"><path d="M72,40 L497,40 L497,405 L72,405 L72,40 z"/></clipPath></defs><g clip-path="url(#clip441)" fill="none" opacity="1" stroke="#000000" stroke-linecap="butt" stroke-linejoin="miter" stroke-miterlimit="2" stroke-opacity="1" stroke-width="1" transform="matrix(1,0,0,1,-72,-40)"><polyline fill="none" points="90.5,75 90.5,76" vector-effect="none"/></g><defs><clipPath id="clip442"><path d="M72,40 L497,40 L497,405 L72,405 L72,40 z"/></clipPath></defs><g clip-path="url(#clip442)" fill="none" opacity="1" stroke="#2e2e2e" stroke-linecap="butt" stroke-linejoin="miter" stroke-miterlimit="2" stroke-opacity="1" stroke-width="1" transform="matrix(1,0,0,1,-72,-40)"><polyline fill="none" points="90.5,76 90.5,77" vector-effect="none"/></g><defs><clipPath id="clip443"><path d="M72,40 L497,40 L497,405 L72,405 L72,40 z"/></clipPath></defs><g clip-path="url(#clip443)" fill="none" opacity="1" stroke="#5d5d5d" stroke-linecap="butt" stroke-linejoin="miter" stroke-miterlimit="2" stroke-opacity="1" stroke-width="1" transform="matrix(1,0,0,1,-72,-40)"><polyline fill="none" points="90.5,77 90.5,78" vector-effect="none"/></g><defs><clipPath id="clip444"><path d="M72,40 L497,40 L497,405 L72,405 L72,40 z"/></clipPath></defs><g clip-path="url(#clip444)" fill="none" opacity="1" stroke="#8b8b8b" stroke-linecap="butt" stroke-linejoin="miter" stroke-miterlimit="2" stroke-opacity="1" stroke-width="1" transform="matrix(1,0,0,1,-72,-40)"><polyline fill="none" points="90.5,78 90.5,79" vector-effect="none"/></g><defs><clipPath id="clip445"><path d="M72,40 L497,40 L497,405 L72,405 L72,40 z"/></clipPath></defs><g clip-path="url(#clip445)" fill="none" opacity="1" stroke="#b9b9b9" stroke-linecap="butt" stroke-linejoin="miter" stroke-miterlimit="2" stroke-opacity="1" stroke-width="1" transform="matrix(1,0,0,1,-72,-40)"><polyline fill="none" points="90.5,79 90.5,80" vector-effect="none"/></g><defs><clipPath id="clip448"><path d="M-33,-40 L392,-40 L392,325 L-33,325 L-33,-40 z"/></clipPath></defs><g clip-path="url(#clip448)" fill="#000000" fill-opacity="1" opacity="1" stroke="none" stroke-opacity="0" transform="matrix(1,0,0,1,33,40)"><path d="M0,0 L-8,-4 L-8,4 L0,0 z" fill-rule="nonzero" vector-effect="none"/></g><defs><clipPath id="clip451"><path d="M72,40 L497,40 L497,405 L72,405 L72,40 z"/></clipPath></defs><g clip-path="url(#clip451)" fill="none" opacity="1" stroke="#000000" stroke-linecap="butt" stroke-linejoin="miter" stroke-miterlimit="2" stroke-opacity="1" stroke-width="1" transform="matrix(1,0,0,1,-72,-40)"><path d="M115.5,350.5 L74.5,350.5 L74.5,80.5 L97.5,80.5" fill-rule="evenodd" vector-effect="none"/></g><defs><clipPath id="clip454"><path d="M-133,-30 L292,-30 L292,335 L-133,335 L-133,-30 z"/></clipPath></defs><g clip-path="url(#clip454)" fill="#000000" fill-opacity="1" opacity="1" stroke="none" stroke-opacity="0" transform="matrix(1,0,0,1,133,30)"><path d="M0,0 L-8,-4 L-8,4 L0,0 z" fill-rule="nonzero" vector-effect="none"/></g><defs><clipPath id="clip457"><path d="M72,40 L497,40 L497,405 L72,405 L72,40 z"/></clipPath></defs><g clip-path="url(#clip457)" fill="none" opacity="1" stroke="#000000" stroke-linecap="butt" stroke-linejoin="miter" stroke-miterlimit="2" stroke-opacity="1" stroke-width="1" transform="matrix(1,0,0,1,-72,-40)"><path d="M155.5,70.5 L197.5,70.5" fill-rule="evenodd" vector-effect="none"/></g><defs><clipPath id="clip460"><path d="M72,40 L497,40 L497,405 L72,405 L72,40 z"/></clipPath></defs><g clip-path="url(#clip460)" fill="none" opacity="1" stroke="#000000" stroke-linecap="butt" stroke-linejoin="miter" stroke-miterlimit="2" stroke-opacity="1" stroke-width="1" transform="matrix(1,0,0,1,-72,-40)"><path d="M325.5,360.5 L285.5,360.5" fill-rule="evenodd" vector-effect="none"/></g><defs><clipPath id="clip465"><path d="M193,145 L-232,145 L-232,-220 L193,-220 L193,145 z"/></clipPath></defs><g clip-path="url(#clip465)" fill="#000000" fill-opacity="1" opacity="1" stroke="none" stroke-opacity="0" transform="matrix(-1,1.22465e-16,-1.22465e-16,-1,193,145)"><path d="M0,0 L-8,-4 L-8,4 L0,0 z" fill-rule="nonzero" vector-effect="none"/></g><defs><clipPath id="clip468"><path d="M72,40 L497,40 L497,405 L72,405 L72,40 z"/></clipPath></defs><g clip-path="url(#clip468)" fill="none" opacity="1" stroke="#000000" stroke-linecap="butt" stroke-linejoin="miter" stroke-miterlimit="2" stroke-opacity="1" stroke-width="1" transform="matrix(1,0,0,1,-72,-40)"><path d="M285.5,360.5 L285.5,286 M285.5,285 L285.5,271 M285.5,270 L285.5,185.5 L273.5,185.5" fill-rule="evenodd" vector-effect="none"/><polyline fill="none" points="285.5,291 285.5,290" vector-effect="none"/></g><defs><clipPath id="clip469"><path d="M72,40 L497,40 L497,405 L72,405 L72,40 z"/></clipPath></defs><g clip-path="url(#clip469)" fill="none" opacity="1" stroke="#2e2e2e" stroke-linecap="butt" stroke-linejoin="miter" stroke-miterlimit="2" stroke-opacity="1" stroke-width="1" transform="matrix(1,0,0,1,-72,-40)"><polyline fill="none" points="285.5,290 285.5,289" vector-effect="none"/></g><defs><clipPath id="clip470"><path d="M72,40 L497,40 L497,405 L72,405 L72,40 z"/></clipPath></defs><g clip-path="url(#clip470)" fill="none" opacity="1" stroke="#5d5d5d" stroke-linecap="butt" stroke-linejoin="miter" stroke-miterlimit="2" stroke-opacity="1" stroke-width="1" transform="matrix(1,0,0,1,-72,-40)"><polyline fill="none" points="285.5,289 285.5,288" vector-effect="none"/></g><defs><clipPath id="clip471"><path d="M72,40 L497,40 L497,405 L72,405 L72,40 z"/></clipPath></defs><g clip-path="url(#clip471)" fill="none" opacity="1" stroke="#8b8b8b" stroke-linecap="butt" stroke-linejoin="miter" stroke-miterlimit="2" stroke-opacity="1" stroke-width="1" transform="matrix(1,0,0,1,-72,-40)"><polyline fill="none" points="285.5,288 285.5,287" vector-effect="none"/></g><defs><clipPath id="clip472"><path d="M72,40 L497,40 L497,405 L72,405 L72,40 z"/></clipPath></defs><g clip-path="url(#clip472)" fill="none" opacity="1" stroke="#b9b9b9" stroke-linecap="butt" stroke-linejoin="miter" stroke-miterlimit="2" stroke-opacity="1" stroke-width="1" transform="matrix(1,0,0,1,-72,-40)"><polyline fill="none" points="285.5,287 285.5,286" vector-effect="none"/></g><defs><clipPath id="clip473"><path d="M72,40 L497,40 L497,405 L72,405 L72,40 z"/></clipPath></defs><g clip-path="url(#clip473)" fill="none" opacity="1" stroke="#000000" stroke-linecap="butt" stroke-linejoin="miter" stroke-miterlimit="2" stroke-opacity="1" stroke-width="1" transform="matrix(1,0,0,1,-72,-40)"><polyline fill="none" points="285.5,280 285.5,281" vector-effect="none"/></g><defs><clipPath id="clip474"><path d="M72,40 L497,40 L497,405 L72,405 L72,40 z"/></clipPath></defs><g clip-path="url(#clip474)" fill="none" opacity="1" stroke="#2e2e2e" stroke-linecap="butt" stroke-linejoin="miter" stroke-miterlimit="2" stroke-opacity="1" stroke-width="1" transform="matrix(1,0,0,1,-72,-40)"><polyline fill="none" points="285.5,281 285.5,282" vector-effect="none"/></g><defs><clipPath id="clip475"><path d="M72,40 L497,40 L497,405 L72,405 L72,40 z"/></clipPath></defs><g clip-path="url(#clip475)" fill="none" opacity="1" stroke="#5d5d5d" stroke-linecap="butt" stroke-linejoin="miter" stroke-miterlimit="2" stroke-opacity="1" stroke-width="1" transform="matrix(1,0,0,1,-72,-40)"><polyline fill="none" points="285.5,282 285.5,283" vector-effect="none"/></g><defs><clipPath id="clip476"><path d="M72,40 L497,40 L497,405 L72,405 L72,40 z"/></clipPath></defs><g clip-path="url(#clip476)" fill="none" opacity="1" stroke="#8b8b8b" stroke-linecap="butt" stroke-linejoin="miter" stroke-miterlimit="2" stroke-opacity="1" stroke-width="1" transform="matrix(1,0,0,1,-72,-40)"><polyline fill="none" points="285.5,283 285.5,284" vector-effect="none"/></g><defs><clipPath id="clip477"><path d="M72,40 L497,40 L497,405 L72,405 L72,40 z"/></clipPath></defs><g clip-path="url(#clip477)" fill="none" opacity="1" stroke="#b9b9b9" stroke-linecap="butt" stroke-linejoin="miter" stroke-miterlimit="2" stroke-opacity="1" stroke-width="1" transform="matrix(1,0,0,1,-72,-40)"><polyline fill="none" points="285.5,284 285.5,285" vector-effect="none"/></g><defs><clipPath id="clip478"><path d="M72,40 L497,40 L497,405 L72,405 L72,40 z"/></clipPath></defs><g clip-path="url(#clip478)" fill="none" opacity="1" stroke="#000000" stroke-linecap="butt" stroke-linejoin="miter" stroke-miterlimit="2" stroke-opacity="1" stroke-width="1" transform="matrix(1,0,0,1,-72,-40)"><polyline fill="none" points="285.5,276 285.5,275" vector-effect="none"/></g><defs><clipPath id="clip479"><path d="M72,40 L497,40 L497,405 L72,405 L72,40 z"/></clipPath></defs><g clip-path="url(#clip479)" fill="none" opacity="1" stroke="#2e2e2e" stroke-linecap="butt" stroke-linejoin="miter" stroke-miterlimit="2" stroke-opacity="1" stroke-width="1" transform="matrix(1,0,0,1,-72,-40)"><polyline fill="none" points="285.5,275 285.5,274" vector-effect="none"/></g><defs><clipPath id="clip480"><path d="M72,40 L497,40 L497,405 L72,405 L72,40 z"/></clipPath></defs><g clip-path="url(#clip480)" fill="none" opacity="1" stroke="#5d5d5d" stroke-linecap="butt" stroke-linejoin="miter" stroke-miterlimit="2" stroke-opacity="1" stroke-width="1" transform="matrix(1,0,0,1,-72,-40)"><polyline fill="none" points="285.5,274 285.5,273" vector-effect="none"/></g><defs><clipPath id="clip481"><path d="M72,40 L497,40 L497,405 L72,405 L72,40 z"/></clipPath></defs><g clip-path="url(#clip481)" fill="none" opacity="1" stroke="#8b8b8b" stroke-linecap="butt" stroke-linejoin="miter" stroke-miterlimit="2" stroke-opacity="1" stroke-width="1" transform="matrix(1,0,0,1,-72,-40)"><polyline fill="none" points="285.5,273 285.5,272" vector-effect="none"/></g><defs><clipPath id="clip482"><path d="M72,40 L497,40 L497,405 L72,405 L72,40 z"/></clipPath></defs><g clip-path="url(#clip482)" fill="none" opacity="1" stroke="#b9b9b9" stroke-linecap="butt" stroke-linejoin="miter" stroke-miterlimit="2" stroke-opacity="1" stroke-width="1" transform="matrix(1,0,0,1,-72,-40)"><polyline fill="none" points="285.5,272 285.5,271" vector-effect="none"/></g><defs><clipPath id="clip483"><path d="M72,40 L497,40 L497,405 L72,405 L72,40 z"/></clipPath></defs><g clip-path="url(#clip483)" fill="none" opacity="1" stroke="#000000" stroke-linecap="butt" stroke-linejoin="miter" stroke-miterlimit="2" stroke-opacity="1" stroke-width="1" transform="matrix(1,0,0,1,-72,-40)"><polyline fill="none" points="285.5,265 285.5,266" vector-effect="none"/></g><defs><clipPath id="clip484"><path d="M72,40 L497,40 L497,405 L72,405 L72,40 z"/></clipPath></defs><g clip-path="url(#clip484)" fill="none" opacity="1" stroke="#2e2e2e" stroke-linecap="butt" stroke-linejoin="miter" stroke-miterlimit="2" stroke-opacity="1" stroke-width="1" transform="matrix(1,0,0,1,-72,-40)"><polyline fill="none" points="285.5,266 285.5,267" vector-effect="none"/></g><defs><clipPath id="clip485"><path d="M72,40 L497,40 L497,405 L72,405 L72,40 z"/></clipPath></defs><g clip-path="url(#clip485)" fill="none" opacity="1" stroke="#5d5d5d" stroke-linecap="butt" stroke-linejoin="miter" stroke-miterlimit="2" stroke-opacity="1" stroke-width="1" transform="matrix(1,0,0,1,-72,-40)"><polyline fill="none" points="285.5,267 285.5,268" vector-effect="none"/></g><defs><clipPath id="clip486"><path d="M72,40 L497,40 L497,405 L72,405 L72,40 z"/></clipPath></defs><g clip-path="url(#clip486)" fill="none" opacity="1" stroke="#8b8b8b" stroke-linecap="butt" stroke-linejoin="miter" stroke-miterlimit="2" stroke-opacity="1" stroke-width="1" transform="matrix(1,0,0,1,-72,-40)"><polyline fill="none" points="285.5,268 285.5,269" vector-effect="none"/></g><defs><clipPath id="clip487"><path d="M72,40 L497,40 L497,405 L72,405 L72,40 z"/></clipPath></defs><g clip-path="url(#clip487)" fill="none" opacity="1" stroke="#b9b9b9" stroke-linecap="butt" stroke-linejoin="miter" stroke-miterlimit="2" stroke-opacity="1" stroke-width="1" transform="matrix(1,0,0,1,-72,-40)"><polyline fill="none" points="285.5,269 285.5,270" vector-effect="none"/></g><defs><clipPath id="clip490"><path d="M163,320 L-262,320 L-262,-45 L163,-45 L163,320 z"/></clipPath></defs><g clip-path="url(#clip490)" fill="#000000" fill-opacity="1" opacity="1" stroke="none" stroke-opacity="0" transform="matrix(-1,1.22465e-16,-1.22465e-16,-1,163,320)"><path d="M0,0 L-8,-4 L-8,4 L0,0 z" fill-rule="nonzero" vector-effect="none"/></g><defs><clipPath id="clip493"><path d="M72,40 L497,40 L497,405 L72,405 L72,40 z"/></clipPath></defs><g clip-path="url(#clip493)" fill="none" opacity="1" stroke="#000000" stroke-linecap="butt" stroke-linejoin="miter" stroke-miterlimit="2" stroke-opacity="1" stroke-width="1" transform="matrix(1,0,0,1,-72,-40)"><path d="M285.5,360.5 L243.5,360.5" fill-rule="evenodd" vector-effect="none"/></g><defs><clipPath id="clip496"><path d="M-213,-320 L212,-320 L212,45 L-213,45 L-213,-320 z"/></clipPath></defs><g clip-path="url(#clip496)" fill="#000000" fill-opacity="1" opacity="1" stroke="none" stroke-opacity="0" transform="matrix(1,0,0,1,213,320)"><path d="M3,0.5 C3,1.88071 1.88071,3 0.5,3 C-0.880712,3 -2,1.88071 -2,0.5 C-2,-0.880712 -0.880712,-2 0.5,-2 C1.88071,-2 3,-0.880712 3,0.5 z" fill-rule="evenodd" vector-effect="none"/></g><defs><clipPath id="clip499"><path d="M58,335 L-367,335 L-367,-30 L58,-30 L58,335 z"/></clipPath></defs><g clip-path="url(#clip499)" fill="#000000" fill-opacity="1" opacity="1" stroke="none" stroke-opacity="0" transform="matrix(-1,1.22465e-16,-1.22465e-16,-1,58,335)"><path d="M0,0 L-8,-4 L-8,4 L0,0 z" fill-rule="nonzero" vector-effect="none"/></g><defs><clipPath id="clip502"><path d="M72,40 L497,40 L497,405 L72,405 L72,40 z"/></clipPath></defs><g clip-path="url(#clip502)" fill="none" opacity="1" stroke="#000000" stroke-linecap="butt" stroke-linejoin="miter" stroke-miterlimit="2" stroke-opacity="1" stroke-width="1" transform="matrix(1,0,0,1,-72,-40)"><path d="M185.5,375.5 L138.5,375.5" fill-rule="evenodd" vector-effect="none"/></g><defs><clipPath id="clip508"><path d="M0,0 L13,0 L13,12 L0,12 L0,0 z"/></clipPath></defs><g clip-path="url(#clip508)" fill="none" opacity="1" stroke="#000000" stroke-linecap="square" stroke-linejoin="bevel" stroke-opacity="1" stroke-width="1" transform="matrix(1,0,0,1,95.0156,321.5)"><text fill="#000000" fill-opacity="1" font-family="Arial" font-size="9" font-style="normal" font-weight="400" stroke="none" textLength="10.9844" x="1" xml:space="preserve" y="9">Cx</text></g><defs><clipPath id="clip516"><path d="M72,40 L497,40 L497,405 L72,405 L72,40 z"/></clipPath></defs><g clip-path="url(#clip516)" fill="none" opacity="1" stroke="#000000" stroke-linecap="butt" stroke-linejoin="miter" stroke-miterlimit="2" stroke-opacity="1" stroke-width="1" transform="matrix(1,0,0,1,-72,-40)"><path d="M345.5,90.5 L424.5,90.5" fill-rule="evenodd" vector-effect="none"/></g><defs><clipPath id="clip522"><path d="M0,0 L12,0 L12,12 L0,12 L0,0 z"/></clipPath></defs><g clip-path="url(#clip522)" fill="none" opacity="1" stroke="#000000" stroke-linecap="square" stroke-linejoin="bevel" stroke-opacity="1" stroke-width="1" transform="matrix(1,0,0,1,309.25,51.5)"><text fill="#000000" fill-opacity="1" font-family="Arial" font-size="9" font-style="normal" font-weight="400" stroke="none" textLength="9.5" x="1" xml:space="preserve" y="9">xe</text></g><defs><clipPath id="clip532"><path d="M72,40 L497,40 L497,405 L72,405 L72,40 z"/></clipPath></defs><g clip-path="url(#clip532)" fill="none" opacity="1" stroke="#000000" stroke-linecap="butt" stroke-linejoin="miter" stroke-miterlimit="2" stroke-opacity="1" stroke-width="1" transform="matrix(1,0,0,1,-72,-40)"><path d="M424.5,90.5 L424.5,160.5" fill-rule="evenodd" vector-effect="none"/></g><defs><clipPath id="clip537"><path d="M-393,-50 L32,-50 L32,315 L-393,315 L-393,-50 z"/></clipPath></defs><g clip-path="url(#clip537)" fill="#000000" fill-opacity="1" opacity="1" stroke="none" stroke-opacity="0" transform="matrix(1,0,0,1,393,50)"><path d="M0,0 L-8,-4 L-8,4 L0,0 z" fill-rule="nonzero" vector-effect="none"/></g><defs><clipPath id="clip540"><path d="M72,40 L497,40 L497,405 L72,405 L72,40 z"/></clipPath></defs><g clip-path="url(#clip540)" fill="none" opacity="1" stroke="#000000" stroke-linecap="butt" stroke-linejoin="miter" stroke-miterlimit="2" stroke-opacity="1" stroke-width="1" transform="matrix(1,0,0,1,-72,-40)"><path d="M424.5,90.5 L457.5,90.5" fill-rule="evenodd" vector-effect="none"/></g><defs><clipPath id="clip543"><path d="M303,120 L-122,120 L-122,-245 L303,-245 L303,120 z"/></clipPath></defs><g clip-path="url(#clip543)" fill="#000000" fill-opacity="1" opacity="1" stroke="none" stroke-opacity="0" transform="matrix(-1,1.22465e-16,-1.22465e-16,-1,303,120)"><path d="M0,0 L-8,-4 L-8,4 L0,0 z" fill-rule="nonzero" vector-effect="none"/></g><defs><clipPath id="clip546"><path d="M72,40 L497,40 L497,405 L72,405 L72,40 z"/></clipPath></defs><g clip-path="url(#clip546)" fill="none" opacity="1" stroke="#000000" stroke-linecap="butt" stroke-linejoin="miter" stroke-miterlimit="2" stroke-opacity="1" stroke-width="1" transform="matrix(1,0,0,1,-72,-40)"><path d="M424.5,160.5 L383.5,160.5" fill-rule="evenodd" vector-effect="none"/></g><defs><clipPath id="clip549"><path d="M72,40 L497,40 L497,405 L72,405 L72,40 z"/></clipPath></defs><g clip-path="url(#clip549)" fill="none" opacity="1" stroke="#000000" stroke-linecap="butt" stroke-linejoin="miter" stroke-miterlimit="2" stroke-opacity="1" stroke-width="1" transform="matrix(1,0,0,1,-72,-40)"><path d="M424.5,160.5 L424.5,270 M424.5,271 L424.5,285.5" fill-rule="evenodd" vector-effect="none"/><polyline fill="none" points="424.5,265 424.5,266" vector-effect="none"/></g><defs><clipPath id="clip550"><path d="M72,40 L497,40 L497,405 L72,405 L72,40 z"/></clipPath></defs><g clip-path="url(#clip550)" fill="none" opacity="1" stroke="#2e2e2e" stroke-linecap="butt" stroke-linejoin="miter" stroke-miterlimit="2" stroke-opacity="1" stroke-width="1" transform="matrix(1,0,0,1,-72,-40)"><polyline fill="none" points="424.5,266 424.5,267" vector-effect="none"/></g><defs><clipPath id="clip551"><path d="M72,40 L497,40 L497,405 L72,405 L72,40 z"/></clipPath></defs><g clip-path="url(#clip551)" fill="none" opacity="1" stroke="#5d5d5d" stroke-linecap="butt" stroke-linejoin="miter" stroke-miterlimit="2" stroke-opacity="1" stroke-width="1" transform="matrix(1,0,0,1,-72,-40)"><polyline fill="none" points="424.5,267 424.5,268" vector-effect="none"/></g><defs><clipPath id="clip552"><path d="M72,40 L497,40 L497,405 L72,405 L72,40 z"/></clipPath></defs><g clip-path="url(#clip552)" fill="none" opacity="1" stroke="#8b8b8b" stroke-linecap="butt" stroke-linejoin="miter" stroke-miterlimit="2" stroke-opacity="1" stroke-width="1" transform="matrix(1,0,0,1,-72,-40)"><polyline fill="none" points="424.5,268 424.5,269" vector-effect="none"/></g><defs><clipPath id="clip553"><path d="M72,40 L497,40 L497,405 L72,405 L72,40 z"/></clipPath></defs><g clip-path="url(#clip553)" fill="none" opacity="1" stroke="#b9b9b9" stroke-linecap="butt" stroke-linejoin="miter" stroke-miterlimit="2" stroke-opacity="1" stroke-width="1" transform="matrix(1,0,0,1,-72,-40)"><polyline fill="none" points="424.5,269 424.5,270" vector-effect="none"/></g><defs><clipPath id="clip554"><path d="M72,40 L497,40 L497,405 L72,405 L72,40 z"/></clipPath></defs><g clip-path="url(#clip554)" fill="none" opacity="1" stroke="#000000" stroke-linecap="butt" stroke-linejoin="miter" stroke-miterlimit="2" stroke-opacity="1" stroke-width="1" transform="matrix(1,0,0,1,-72,-40)"><polyline fill="none" points="424.5,276 424.5,275" vector-effect="none"/></g><defs><clipPath id="clip555"><path d="M72,40 L497,40 L497,405 L72,405 L72,40 z"/></clipPath></defs><g clip-path="url(#clip555)" fill="none" opacity="1" stroke="#2e2e2e" stroke-linecap="butt" stroke-linejoin="miter" stroke-miterlimit="2" stroke-opacity="1" stroke-width="1" transform="matrix(1,0,0,1,-72,-40)"><polyline fill="none" points="424.5,275 424.5,274" vector-effect="none"/></g><defs><clipPath id="clip556"><path d="M72,40 L497,40 L497,405 L72,405 L72,40 z"/></clipPath></defs><g clip-path="url(#clip556)" fill="none" opacity="1" stroke="#5d5d5d" stroke-linecap="butt" stroke-linejoin="miter" stroke-miterlimit="2" stroke-opacity="1" stroke-width="1" transform="matrix(1,0,0,1,-72,-40)"><polyline fill="none" points="424.5,274 424.5,273" vector-effect="none"/></g><defs><clipPath id="clip557"><path d="M72,40 L497,40 L497,405 L72,405 L72,40 z"/></clipPath></defs><g clip-path="url(#clip557)" fill="none" opacity="1" stroke="#8b8b8b" stroke-linecap="butt" stroke-linejoin="miter" stroke-miterlimit="2" stroke-opacity="1" stroke-width="1" transform="matrix(1,0,0,1,-72,-40)"><polyline fill="none" points="424.5,273 424.5,272" vector-effect="none"/></g><defs><clipPath id="clip558"><path d="M72,40 L497,40 L497,405 L72,405 L72,40 z"/></clipPath></defs><g clip-path="url(#clip558)" fill="none" opacity="1" stroke="#b9b9b9" stroke-linecap="butt" stroke-linejoin="miter" stroke-miterlimit="2" stroke-opacity="1" stroke-width="1" transform="matrix(1,0,0,1,-72,-40)"><polyline fill="none" points="424.5,272 424.5,271" vector-effect="none"/></g><defs><clipPath id="clip563"><path d="M215,-68 L215,357 L-150,357 L-150,-68 L215,-68 z"/></clipPath></defs><g clip-path="url(#clip563)" fill="#000000" fill-opacity="1" opacity="1" stroke="none" stroke-opacity="0" transform="matrix(6.12323e-17,-1,1,6.12323e-17,68,215)"><path d="M0,0 L-8,-4 L-8,4 L0,0 z" fill-rule="nonzero" vector-effect="none"/></g><defs><clipPath id="clip566"><path d="M72,40 L497,40 L497,405 L72,405 L72,40 z"/></clipPath></defs><g clip-path="url(#clip566)" fill="none" opacity="1" stroke="#000000" stroke-linecap="butt" stroke-linejoin="miter" stroke-miterlimit="2" stroke-opacity="1" stroke-width="1" transform="matrix(1,0,0,1,-72,-40)"><path d="M424.5,285.5 L140.5,285.5 L140.5,263.5" fill-rule="evenodd" vector-effect="none"/></g><defs><clipPath id="clip569"><path d="M163,350 L-262,350 L-262,-15 L163,-15 L163,350 z"/></clipPath></defs><g clip-path="url(#clip569)" fill="#000000" fill-opacity="1" opacity="1" stroke="none" stroke-opacity="0" transform="matrix(-1,1.22465e-16,-1.22465e-16,-1,163,350)"><path d="M0,0 L-8,-4 L-8,4 L0,0 z" fill-rule="nonzero" vector-effect="none"/></g><defs><clipPath id="clip572"><path d="M72,40 L497,40 L497,405 L72,405 L72,40 z"/></clipPath></defs><g clip-path="url(#clip572)" fill="none" opacity="1" stroke="#000000" stroke-linecap="butt" stroke-linejoin="miter" stroke-miterlimit="2" stroke-opacity="1" stroke-width="1" transform="matrix(1,0,0,1,-72,-40)"><path d="M424.5,285.5 L424.5,390.5 L243.5,390.5" fill-rule="evenodd" vector-effect="none"/></g><defs><clipPath id="clip575"><path d="M-352,-50 L73,-50 L73,315 L-352,315 L-352,-50 z"/></clipPath></defs><g clip-path="url(#clip575)" fill="#000000" fill-opacity="1" opacity="1" stroke="none" stroke-opacity="0" transform="matrix(1,0,0,1,352,50)"><path d="M3,0.5 C3,1.88071 1.88071,3 0.5,3 C-0.880712,3 -2,1.88071 -2,0.5 C-2,-0.880712 -0.880712,-2 0.5,-2 C1.88071,-2 3,-0.880712 3,0.5 z" fill-rule="evenodd" vector-effect="none"/></g><defs><clipPath id="clip578"><path d="M-352,-245 L73,-245 L73,120 L-352,120 L-352,-245 z"/></clipPath></defs><g clip-path="url(#clip578)" fill="#000000" fill-opacity="1" opacity="1" stroke="none" stroke-opacity="0" transform="matrix(1,0,0,1,352,245)"><path d="M3,0.5 C3,1.88071 1.88071,3 0.5,3 C-0.880712,3 -2,1.88071 -2,0.5 C-2,-0.880712 -0.880712,-2 0.5,-2 C1.88071,-2 3,-0.880712 3,0.5 z" fill-rule="evenodd" vector-effect="none"/></g><defs><clipPath id="clip581"><path d="M-352,-120 L73,-120 L73,245 L-352,245 L-352,-120 z"/></clipPath></defs><g clip-path="url(#clip581)" fill="#000000" fill-opacity="1" opacity="1" stroke="none" stroke-opacity="0" transform="matrix(1,0,0,1,352,120)"><path d="M3,0.5 C3,1.88071 1.88071,3 0.5,3 C-0.880712,3 -2,1.88071 -2,0.5 C-2,-0.880712 -0.880712,-2 0.5,-2 C1.88071,-2 3,-0.880712 3,0.5 z" fill-rule="evenodd" vector-effect="none"/></g><defs><clipPath id="clip584"><path d="M72,40 L497,40 L497,405 L72,405 L72,40 z"/></clipPath></defs><g clip-path="url(#clip584)" fill="none" opacity="1" stroke="#000000" stroke-linecap="butt" stroke-linejoin="miter" stroke-miterlimit="2" stroke-opacity="1" stroke-width="1" transform="matrix(1,0,0,1,-72,-40)"><path d="M465.5,270.5 L399.5,270.5" fill-rule="evenodd" vector-effect="none"/></g><defs><clipPath id="clip589"><path d="M303,145 L-122,145 L-122,-220 L303,-220 L303,145 z"/></clipPath></defs><g clip-path="url(#clip589)" fill="#000000" fill-opacity="1" opacity="1" stroke="none" stroke-opacity="0" transform="matrix(-1,1.22465e-16,-1.22465e-16,-1,303,145)"><path d="M0,0 L-8,-4 L-8,4 L0,0 z" fill-rule="nonzero" vector-effect="none"/></g><defs><clipPath id="clip592"><path d="M72,40 L497,40 L497,405 L72,405 L72,40 z"/></clipPath></defs><g clip-path="url(#clip592)" fill="none" opacity="1" stroke="#000000" stroke-linecap="butt" stroke-linejoin="miter" stroke-miterlimit="2" stroke-opacity="1" stroke-width="1" transform="matrix(1,0,0,1,-72,-40)"><path d="M399.5,270.5 L399.5,185.5 L383.5,185.5" fill-rule="evenodd" vector-effect="none"/></g><defs><clipPath id="clip595"><path d="M215,-93 L215,332 L-150,332 L-150,-93 L215,-93 z"/></clipPath></defs><g clip-path="url(#clip595)" fill="#000000" fill-opacity="1" opacity="1" stroke="none" stroke-opacity="0" transform="matrix(6.12323e-17,-1,1,6.12323e-17,93,215)"><path d="M0,0 L-8,-4 L-8,4 L0,0 z" fill-rule="nonzero" vector-effect="none"/></g><defs><clipPath id="clip598"><path d="M72,40 L497,40 L497,405 L72,405 L72,40 z"/></clipPath></defs><g clip-path="url(#clip598)" fill="none" opacity="1" stroke="#000000" stroke-linecap="butt" stroke-linejoin="miter" stroke-miterlimit="2" stroke-opacity="1" stroke-width="1" transform="matrix(1,0,0,1,-72,-40)"><path d="M399.5,270.5 L165.5,270.5 L165.5,263.5" fill-rule="evenodd" vector-effect="none"/></g><defs><clipPath id="clip601"><path d="M-327,-230 L98,-230 L98,135 L-327,135 L-327,-230 z"/></clipPath></defs><g clip-path="url(#clip601)" fill="#000000" fill-opacity="1" opacity="1" stroke="none" stroke-opacity="0" transform="matrix(1,0,0,1,327,230)"><path d="M3,0.5 C3,1.88071 1.88071,3 0.5,3 C-0.880712,3 -2,1.88071 -2,0.5 C-2,-0.880712 -0.880712,-2 0.5,-2 C1.88071,-2 3,-0.880712 3,0.5 z" fill-rule="evenodd" vector-effect="none"/></g><defs><clipPath id="clip604"><path d="M193,120 L-232,120 L-232,-245 L193,-245 L193,120 z"/></clipPath></defs><g clip-path="url(#clip604)" fill="#000000" fill-opacity="1" opacity="1" stroke="none" stroke-opacity="0" transform="matrix(-1,1.22465e-16,-1.22465e-16,-1,193,120)"><path d="M0,0 L-8,-4 L-8,4 L0,0 z" fill-rule="nonzero" vector-effect="none"/></g><defs><clipPath id="clip607"><path d="M72,40 L497,40 L497,405 L72,405 L72,40 z"/></clipPath></defs><g clip-path="url(#clip607)" fill="none" opacity="1" stroke="#000000" stroke-linecap="butt" stroke-linejoin="miter" stroke-miterlimit="2" stroke-opacity="1" stroke-width="1" transform="matrix(1,0,0,1,-72,-40)"><path d="M305.5,160.5 L273.5,160.5" fill-rule="evenodd" vector-effect="none"/></g><defs><clipPath id="clip610"><path d="M-133,-65 L292,-65 L292,300 L-133,300 L-133,-65 z"/></clipPath></defs><g clip-path="url(#clip610)" fill="#000000" fill-opacity="1" opacity="1" stroke="none" stroke-opacity="0" transform="matrix(1,0,0,1,133,65)"><path d="M0,0 L-8,-4 L-8,4 L0,0 z" fill-rule="nonzero" vector-effect="none"/></g><defs><clipPath id="clip613"><path d="M72,40 L497,40 L497,405 L72,405 L72,40 z"/></clipPath></defs><g clip-path="url(#clip613)" fill="none" opacity="1" stroke="#000000" stroke-linecap="butt" stroke-linejoin="miter" stroke-miterlimit="2" stroke-opacity="1" stroke-width="1" transform="matrix(1,0,0,1,-72,-40)"><path d="M155.5,175.5 L155.5,105.5 L197.5,105.5" fill-rule="evenodd" vector-effect="none"/></g><defs><clipPath id="clip619"><path d="M0,0 L12,0 L12,12 L0,12 L0,0 z"/></clipPath></defs><g clip-path="url(#clip619)" fill="none" opacity="1" stroke="#000000" stroke-linecap="square" stroke-linejoin="bevel" stroke-opacity="1" stroke-width="1" transform="matrix(1,0,0,1,84.5,118)"><text fill="#000000" fill-opacity="1" font-family="Arial" font-size="9" font-style="normal" font-weight="400" stroke="none" textLength="9.5" x="1" xml:space="preserve" y="9">dx</text></g></g><!--generated on windows @ 2020-06-01 19:41:41 AUS Eastern Standard Time--></svg>
